G04 (created by PCBNEW (2013-07-07 BZR 4022)-stable) date 7/23/2013 8:30:17 PM*
%MOIN*%
G04 Gerber Fmt 3.4, Leading zero omitted, Abs format*
%FSLAX34Y34*%
G01*
G70*
G90*
G04 APERTURE LIST*
%ADD10C,0.00590551*%
%ADD11C,0.0026*%
%ADD12C,0.008*%
%ADD13C,0.005*%
%ADD14C,0.0047*%
%ADD15C,0.004*%
%ADD16C,0.002*%
%ADD17C,0.006*%
%ADD18C,0.0045*%
%ADD19C,0.0035*%
G04 APERTURE END LIST*
G54D10*
G54D11*
X51400Y-20600D02*
X51600Y-20600D01*
X51600Y-20600D02*
X51600Y-20400D01*
X51400Y-20400D02*
X51600Y-20400D01*
X51400Y-20600D02*
X51400Y-20400D01*
X50400Y-20600D02*
X50600Y-20600D01*
X50600Y-20600D02*
X50600Y-20400D01*
X50400Y-20400D02*
X50600Y-20400D01*
X50400Y-20600D02*
X50400Y-20400D01*
X49400Y-20600D02*
X49600Y-20600D01*
X49600Y-20600D02*
X49600Y-20400D01*
X49400Y-20400D02*
X49600Y-20400D01*
X49400Y-20600D02*
X49400Y-20400D01*
X48400Y-20600D02*
X48600Y-20600D01*
X48600Y-20600D02*
X48600Y-20400D01*
X48400Y-20400D02*
X48600Y-20400D01*
X48400Y-20600D02*
X48400Y-20400D01*
X47400Y-20600D02*
X47600Y-20600D01*
X47600Y-20600D02*
X47600Y-20400D01*
X47400Y-20400D02*
X47600Y-20400D01*
X47400Y-20600D02*
X47400Y-20400D01*
G54D12*
X50250Y-20000D02*
X50750Y-20000D01*
X50750Y-20000D02*
X51000Y-20250D01*
X51000Y-20750D02*
X50750Y-21000D01*
X51000Y-20250D02*
X51250Y-20000D01*
X51250Y-20000D02*
X51750Y-20000D01*
X51750Y-20000D02*
X52000Y-20250D01*
X52000Y-20750D02*
X51750Y-21000D01*
X51750Y-21000D02*
X51250Y-21000D01*
X51250Y-21000D02*
X51000Y-20750D01*
X49000Y-20250D02*
X49250Y-20000D01*
X49250Y-20000D02*
X49750Y-20000D01*
X49750Y-20000D02*
X50000Y-20250D01*
X50000Y-20750D02*
X49750Y-21000D01*
X49750Y-21000D02*
X49250Y-21000D01*
X49250Y-21000D02*
X49000Y-20750D01*
X50250Y-20000D02*
X50000Y-20250D01*
X50000Y-20750D02*
X50250Y-21000D01*
X50750Y-21000D02*
X50250Y-21000D01*
X47250Y-20000D02*
X47750Y-20000D01*
X47750Y-20000D02*
X48000Y-20250D01*
X48000Y-20750D02*
X47750Y-21000D01*
X48000Y-20250D02*
X48250Y-20000D01*
X48250Y-20000D02*
X48750Y-20000D01*
X48750Y-20000D02*
X49000Y-20250D01*
X49000Y-20750D02*
X48750Y-21000D01*
X48750Y-21000D02*
X48250Y-21000D01*
X48250Y-21000D02*
X48000Y-20750D01*
X47000Y-20250D02*
X47000Y-20750D01*
X47250Y-20000D02*
X47000Y-20250D01*
X47000Y-20750D02*
X47250Y-21000D01*
X47750Y-21000D02*
X47250Y-21000D01*
X52000Y-20250D02*
X52000Y-20750D01*
G54D10*
X51490Y-28500D02*
G75*
G03X51490Y-28500I-590J0D01*
G74*
G01*
X52120Y-27279D02*
X52120Y-29720D01*
X52120Y-29720D02*
X49679Y-29720D01*
X49679Y-29720D02*
X49679Y-27279D01*
X49679Y-27279D02*
X52120Y-27279D01*
G54D12*
X47800Y-24000D02*
G75*
G03X47800Y-24000I-100J0D01*
G74*
G01*
X47500Y-25000D02*
X47500Y-23800D01*
X47500Y-23800D02*
X48700Y-23800D01*
X48700Y-23800D02*
X48700Y-25000D01*
X48700Y-25000D02*
X47500Y-25000D01*
G54D13*
X46920Y-22350D02*
G75*
G03X46920Y-22350I-70J0D01*
G74*
G01*
X47500Y-21200D02*
X46900Y-21200D01*
X46900Y-21200D02*
X46900Y-22300D01*
X46900Y-22300D02*
X47500Y-22300D01*
X48100Y-22300D02*
X48700Y-22300D01*
X48700Y-22300D02*
X48700Y-21200D01*
X48700Y-21200D02*
X48100Y-21200D01*
X50525Y-26797D02*
X50525Y-27075D01*
X50525Y-27075D02*
X51075Y-27075D01*
X51075Y-27075D02*
X51075Y-26797D01*
X50525Y-26125D02*
X50525Y-26403D01*
X50525Y-26125D02*
X51075Y-26125D01*
X51075Y-26125D02*
X51075Y-26403D01*
X47903Y-26525D02*
X47625Y-26525D01*
X47625Y-26525D02*
X47625Y-27075D01*
X47625Y-27075D02*
X47903Y-27075D01*
X48575Y-26525D02*
X48297Y-26525D01*
X48575Y-26525D02*
X48575Y-27075D01*
X48575Y-27075D02*
X48297Y-27075D01*
X49275Y-25403D02*
X49275Y-25125D01*
X49275Y-25125D02*
X48725Y-25125D01*
X48725Y-25125D02*
X48725Y-25403D01*
X49275Y-26075D02*
X49275Y-25797D01*
X49275Y-26075D02*
X48725Y-26075D01*
X48725Y-26075D02*
X48725Y-25797D01*
X47697Y-26375D02*
X47975Y-26375D01*
X47975Y-26375D02*
X47975Y-25825D01*
X47975Y-25825D02*
X47697Y-25825D01*
X47025Y-26375D02*
X47303Y-26375D01*
X47025Y-26375D02*
X47025Y-25825D01*
X47025Y-25825D02*
X47303Y-25825D01*
G54D14*
X49156Y-22903D02*
X49156Y-22628D01*
X49156Y-23297D02*
X49156Y-23572D01*
X48644Y-22903D02*
X48644Y-22628D01*
X48644Y-23572D02*
X48644Y-23297D01*
X48650Y-22628D02*
X49150Y-22628D01*
X49150Y-23572D02*
X48650Y-23572D01*
X49203Y-21944D02*
X48928Y-21944D01*
X49597Y-21944D02*
X49872Y-21944D01*
X49203Y-22456D02*
X48928Y-22456D01*
X49872Y-22456D02*
X49597Y-22456D01*
X48928Y-22450D02*
X48928Y-21950D01*
X49872Y-21950D02*
X49872Y-22450D01*
X49203Y-21244D02*
X48928Y-21244D01*
X49597Y-21244D02*
X49872Y-21244D01*
X49203Y-21756D02*
X48928Y-21756D01*
X49872Y-21756D02*
X49597Y-21756D01*
X48928Y-21750D02*
X48928Y-21250D01*
X49872Y-21250D02*
X49872Y-21750D01*
G54D11*
X47896Y-25518D02*
X47896Y-25646D01*
X47896Y-25646D02*
X48093Y-25646D01*
X48093Y-25518D02*
X48093Y-25646D01*
X47896Y-25518D02*
X48093Y-25518D01*
X47896Y-25273D02*
X47896Y-25332D01*
X47896Y-25332D02*
X47995Y-25332D01*
X47995Y-25273D02*
X47995Y-25332D01*
X47896Y-25273D02*
X47995Y-25273D01*
X47896Y-25468D02*
X47896Y-25527D01*
X47896Y-25527D02*
X47995Y-25527D01*
X47995Y-25468D02*
X47995Y-25527D01*
X47896Y-25468D02*
X47995Y-25468D01*
X47896Y-25322D02*
X47896Y-25478D01*
X47896Y-25478D02*
X47965Y-25478D01*
X47965Y-25322D02*
X47965Y-25478D01*
X47896Y-25322D02*
X47965Y-25322D01*
X47307Y-25518D02*
X47307Y-25646D01*
X47307Y-25646D02*
X47504Y-25646D01*
X47504Y-25518D02*
X47504Y-25646D01*
X47307Y-25518D02*
X47504Y-25518D01*
X47307Y-25154D02*
X47307Y-25282D01*
X47307Y-25282D02*
X47504Y-25282D01*
X47504Y-25154D02*
X47504Y-25282D01*
X47307Y-25154D02*
X47504Y-25154D01*
X47405Y-25468D02*
X47405Y-25527D01*
X47405Y-25527D02*
X47504Y-25527D01*
X47504Y-25468D02*
X47504Y-25527D01*
X47405Y-25468D02*
X47504Y-25468D01*
X47405Y-25273D02*
X47405Y-25332D01*
X47405Y-25332D02*
X47504Y-25332D01*
X47504Y-25273D02*
X47504Y-25332D01*
X47405Y-25273D02*
X47504Y-25273D01*
X47435Y-25322D02*
X47435Y-25478D01*
X47435Y-25478D02*
X47504Y-25478D01*
X47504Y-25322D02*
X47504Y-25478D01*
X47435Y-25322D02*
X47504Y-25322D01*
X47700Y-25361D02*
X47700Y-25439D01*
X47700Y-25439D02*
X47778Y-25439D01*
X47778Y-25361D02*
X47778Y-25439D01*
X47700Y-25361D02*
X47778Y-25361D01*
X47896Y-25164D02*
X47896Y-25282D01*
X47896Y-25282D02*
X48014Y-25282D01*
X48014Y-25164D02*
X48014Y-25282D01*
X47896Y-25164D02*
X48014Y-25164D01*
X48064Y-25154D02*
X48064Y-25243D01*
X48064Y-25243D02*
X48093Y-25243D01*
X48093Y-25154D02*
X48093Y-25243D01*
X48064Y-25154D02*
X48093Y-25154D01*
G54D15*
X47906Y-25626D02*
X47494Y-25626D01*
X47504Y-25174D02*
X48064Y-25174D01*
G54D16*
X48062Y-25223D02*
G75*
G03X48062Y-25223I-28J0D01*
G74*
G01*
G54D15*
X48093Y-25263D02*
G75*
G03X48093Y-25537I0J-137D01*
G74*
G01*
X47307Y-25537D02*
G75*
G03X47307Y-25263I0J137D01*
G74*
G01*
G54D10*
X51981Y-23217D02*
X52177Y-23020D01*
X52177Y-23020D02*
X52079Y-22922D01*
X52079Y-22922D02*
X51882Y-23118D01*
X49520Y-25677D02*
X49717Y-25481D01*
X49717Y-25481D02*
X49520Y-25677D01*
X49520Y-25677D02*
X49422Y-25579D01*
X49422Y-25579D02*
X49618Y-25382D01*
X51981Y-24300D02*
G75*
G03X51981Y-24300I-1181J0D01*
G74*
G01*
X49422Y-25185D02*
X49422Y-22922D01*
X52177Y-25677D02*
X49914Y-25677D01*
X49914Y-25677D02*
X49422Y-25185D01*
X52177Y-23414D02*
X51685Y-22922D01*
X51685Y-22922D02*
X49422Y-22922D01*
X52177Y-23414D02*
X52177Y-25677D01*
X52177Y-24300D02*
G75*
G03X52177Y-24300I-1377J0D01*
G74*
G01*
X50993Y-21995D02*
X50206Y-21995D01*
X50206Y-21404D02*
X50993Y-21404D01*
X50206Y-21207D02*
X50993Y-21207D01*
X50993Y-21207D02*
X50993Y-22192D01*
X50993Y-22192D02*
X50206Y-22192D01*
X50206Y-22192D02*
X50206Y-21207D01*
X48690Y-28500D02*
G75*
G03X48690Y-28500I-590J0D01*
G74*
G01*
X49320Y-27279D02*
X49320Y-29720D01*
X49320Y-29720D02*
X46879Y-29720D01*
X46879Y-29720D02*
X46879Y-27279D01*
X46879Y-27279D02*
X49320Y-27279D01*
G54D13*
X51503Y-21125D02*
X51225Y-21125D01*
X51225Y-21125D02*
X51225Y-21675D01*
X51225Y-21675D02*
X51503Y-21675D01*
X52175Y-21125D02*
X51897Y-21125D01*
X52175Y-21125D02*
X52175Y-21675D01*
X52175Y-21675D02*
X51897Y-21675D01*
G54D12*
X51993Y-21886D02*
X51993Y-22514D01*
X51207Y-22514D02*
X51207Y-21886D01*
X51324Y-21807D02*
G75*
G03X51207Y-21885I-19J-97D01*
G74*
G01*
X51206Y-22514D02*
G75*
G03X51324Y-22593I98J19D01*
G74*
G01*
X51875Y-22592D02*
G75*
G03X51992Y-22514I19J97D01*
G74*
G01*
X51993Y-21885D02*
G75*
G03X51875Y-21806I-98J-19D01*
G74*
G01*
X47814Y-23493D02*
X47186Y-23493D01*
X47186Y-22707D02*
X47814Y-22707D01*
X47892Y-22824D02*
G75*
G03X47814Y-22707I-97J19D01*
G74*
G01*
X47185Y-22706D02*
G75*
G03X47106Y-22824I19J-98D01*
G74*
G01*
X47107Y-23375D02*
G75*
G03X47185Y-23492I97J-19D01*
G74*
G01*
X47814Y-23493D02*
G75*
G03X47893Y-23375I-19J98D01*
G74*
G01*
G54D10*
X49800Y-29540D02*
X49856Y-29559D01*
X49950Y-29559D01*
X49987Y-29540D01*
X50006Y-29521D01*
X50025Y-29484D01*
X50025Y-29446D01*
X50006Y-29409D01*
X49987Y-29390D01*
X49950Y-29371D01*
X49875Y-29353D01*
X49837Y-29334D01*
X49818Y-29315D01*
X49800Y-29278D01*
X49800Y-29240D01*
X49818Y-29203D01*
X49837Y-29184D01*
X49875Y-29165D01*
X49968Y-29165D01*
X50025Y-29184D01*
X50174Y-29203D02*
X50193Y-29184D01*
X50231Y-29165D01*
X50324Y-29165D01*
X50362Y-29184D01*
X50381Y-29203D01*
X50399Y-29240D01*
X50399Y-29278D01*
X50381Y-29334D01*
X50156Y-29559D01*
X50399Y-29559D01*
G54D17*
X48071Y-23371D02*
X48071Y-23614D01*
X48085Y-23642D01*
X48100Y-23657D01*
X48128Y-23671D01*
X48185Y-23671D01*
X48214Y-23657D01*
X48228Y-23642D01*
X48242Y-23614D01*
X48242Y-23371D01*
X48542Y-23671D02*
X48371Y-23671D01*
X48457Y-23671D02*
X48457Y-23371D01*
X48428Y-23414D01*
X48400Y-23442D01*
X48371Y-23457D01*
G54D13*
X47750Y-21642D02*
X47735Y-21657D01*
X47692Y-21671D01*
X47664Y-21671D01*
X47621Y-21657D01*
X47592Y-21628D01*
X47578Y-21600D01*
X47564Y-21542D01*
X47564Y-21500D01*
X47578Y-21442D01*
X47592Y-21414D01*
X47621Y-21385D01*
X47664Y-21371D01*
X47692Y-21371D01*
X47735Y-21385D01*
X47750Y-21400D01*
X48035Y-21671D02*
X47864Y-21671D01*
X47950Y-21671D02*
X47950Y-21371D01*
X47921Y-21414D01*
X47892Y-21442D01*
X47864Y-21457D01*
G54D18*
X50745Y-26654D02*
X50685Y-26560D01*
X50642Y-26654D02*
X50642Y-26457D01*
X50710Y-26457D01*
X50727Y-26467D01*
X50736Y-26476D01*
X50745Y-26495D01*
X50745Y-26523D01*
X50736Y-26542D01*
X50727Y-26551D01*
X50710Y-26560D01*
X50642Y-26560D01*
X50916Y-26654D02*
X50813Y-26654D01*
X50865Y-26654D02*
X50865Y-26457D01*
X50847Y-26485D01*
X50830Y-26504D01*
X50813Y-26514D01*
X48095Y-26854D02*
X48035Y-26760D01*
X47992Y-26854D02*
X47992Y-26657D01*
X48060Y-26657D01*
X48077Y-26667D01*
X48086Y-26676D01*
X48095Y-26695D01*
X48095Y-26723D01*
X48086Y-26742D01*
X48077Y-26751D01*
X48060Y-26760D01*
X47992Y-26760D01*
X48163Y-26676D02*
X48172Y-26667D01*
X48189Y-26657D01*
X48232Y-26657D01*
X48249Y-26667D01*
X48257Y-26676D01*
X48266Y-26695D01*
X48266Y-26714D01*
X48257Y-26742D01*
X48155Y-26854D01*
X48266Y-26854D01*
X48995Y-25704D02*
X48935Y-25610D01*
X48892Y-25704D02*
X48892Y-25507D01*
X48960Y-25507D01*
X48977Y-25517D01*
X48986Y-25526D01*
X48995Y-25545D01*
X48995Y-25573D01*
X48986Y-25592D01*
X48977Y-25601D01*
X48960Y-25610D01*
X48892Y-25610D01*
X49055Y-25507D02*
X49166Y-25507D01*
X49106Y-25582D01*
X49132Y-25582D01*
X49149Y-25592D01*
X49157Y-25601D01*
X49166Y-25620D01*
X49166Y-25667D01*
X49157Y-25685D01*
X49149Y-25695D01*
X49132Y-25704D01*
X49080Y-25704D01*
X49063Y-25695D01*
X49055Y-25685D01*
X47445Y-26204D02*
X47385Y-26110D01*
X47342Y-26204D02*
X47342Y-26007D01*
X47410Y-26007D01*
X47427Y-26017D01*
X47436Y-26026D01*
X47445Y-26045D01*
X47445Y-26073D01*
X47436Y-26092D01*
X47427Y-26101D01*
X47410Y-26110D01*
X47342Y-26110D01*
X47599Y-26073D02*
X47599Y-26204D01*
X47556Y-25998D02*
X47513Y-26139D01*
X47625Y-26139D01*
X48870Y-23161D02*
X48861Y-23171D01*
X48835Y-23180D01*
X48818Y-23180D01*
X48792Y-23171D01*
X48775Y-23152D01*
X48767Y-23133D01*
X48758Y-23095D01*
X48758Y-23066D01*
X48767Y-23028D01*
X48775Y-23009D01*
X48792Y-22990D01*
X48818Y-22980D01*
X48835Y-22980D01*
X48861Y-22990D01*
X48870Y-23000D01*
X48938Y-23000D02*
X48947Y-22990D01*
X48964Y-22980D01*
X49007Y-22980D01*
X49024Y-22990D01*
X49032Y-23000D01*
X49041Y-23019D01*
X49041Y-23038D01*
X49032Y-23066D01*
X48930Y-23180D01*
X49041Y-23180D01*
X49461Y-22230D02*
X49471Y-22238D01*
X49480Y-22264D01*
X49480Y-22281D01*
X49471Y-22307D01*
X49452Y-22324D01*
X49433Y-22332D01*
X49395Y-22341D01*
X49366Y-22341D01*
X49328Y-22332D01*
X49309Y-22324D01*
X49290Y-22307D01*
X49280Y-22281D01*
X49280Y-22264D01*
X49290Y-22238D01*
X49300Y-22230D01*
X49280Y-22170D02*
X49280Y-22058D01*
X49357Y-22118D01*
X49357Y-22092D01*
X49366Y-22075D01*
X49376Y-22067D01*
X49395Y-22058D01*
X49442Y-22058D01*
X49461Y-22067D01*
X49471Y-22075D01*
X49480Y-22092D01*
X49480Y-22144D01*
X49471Y-22161D01*
X49461Y-22170D01*
X49461Y-21530D02*
X49471Y-21538D01*
X49480Y-21564D01*
X49480Y-21581D01*
X49471Y-21607D01*
X49452Y-21624D01*
X49433Y-21632D01*
X49395Y-21641D01*
X49366Y-21641D01*
X49328Y-21632D01*
X49309Y-21624D01*
X49290Y-21607D01*
X49280Y-21581D01*
X49280Y-21564D01*
X49290Y-21538D01*
X49300Y-21530D01*
X49347Y-21375D02*
X49480Y-21375D01*
X49271Y-21418D02*
X49414Y-21461D01*
X49414Y-21350D01*
G54D13*
X48078Y-26021D02*
X48078Y-25721D01*
X48150Y-25721D01*
X48192Y-25735D01*
X48221Y-25764D01*
X48235Y-25792D01*
X48250Y-25850D01*
X48250Y-25892D01*
X48235Y-25950D01*
X48221Y-25978D01*
X48192Y-26007D01*
X48150Y-26021D01*
X48078Y-26021D01*
X48535Y-26021D02*
X48364Y-26021D01*
X48450Y-26021D02*
X48450Y-25721D01*
X48421Y-25764D01*
X48392Y-25792D01*
X48364Y-25807D01*
G54D10*
X51334Y-26159D02*
X51146Y-26159D01*
X51146Y-25765D01*
X51671Y-26159D02*
X51446Y-26159D01*
X51559Y-26159D02*
X51559Y-25765D01*
X51521Y-25821D01*
X51484Y-25859D01*
X51446Y-25878D01*
X50534Y-21909D02*
X50346Y-21909D01*
X50346Y-21515D01*
X50646Y-21553D02*
X50665Y-21534D01*
X50703Y-21515D01*
X50796Y-21515D01*
X50834Y-21534D01*
X50853Y-21553D01*
X50871Y-21590D01*
X50871Y-21628D01*
X50853Y-21684D01*
X50628Y-21909D01*
X50871Y-21909D01*
X47000Y-29540D02*
X47056Y-29559D01*
X47150Y-29559D01*
X47187Y-29540D01*
X47206Y-29521D01*
X47225Y-29484D01*
X47225Y-29446D01*
X47206Y-29409D01*
X47187Y-29390D01*
X47150Y-29371D01*
X47075Y-29353D01*
X47037Y-29334D01*
X47018Y-29315D01*
X47000Y-29278D01*
X47000Y-29240D01*
X47018Y-29203D01*
X47037Y-29184D01*
X47075Y-29165D01*
X47168Y-29165D01*
X47225Y-29184D01*
X47599Y-29559D02*
X47374Y-29559D01*
X47487Y-29559D02*
X47487Y-29165D01*
X47449Y-29221D01*
X47412Y-29259D01*
X47374Y-29278D01*
G54D18*
X51804Y-21405D02*
X51710Y-21465D01*
X51804Y-21507D02*
X51607Y-21507D01*
X51607Y-21439D01*
X51617Y-21422D01*
X51626Y-21413D01*
X51645Y-21405D01*
X51673Y-21405D01*
X51692Y-21413D01*
X51701Y-21422D01*
X51710Y-21439D01*
X51710Y-21507D01*
X51607Y-21242D02*
X51607Y-21327D01*
X51701Y-21336D01*
X51692Y-21327D01*
X51682Y-21310D01*
X51682Y-21267D01*
X51692Y-21250D01*
X51701Y-21242D01*
X51720Y-21233D01*
X51767Y-21233D01*
X51785Y-21242D01*
X51795Y-21250D01*
X51804Y-21267D01*
X51804Y-21310D01*
X51795Y-21327D01*
X51785Y-21336D01*
G54D19*
X51546Y-22604D02*
X51546Y-22719D01*
X51539Y-22741D01*
X51523Y-22757D01*
X51500Y-22764D01*
X51485Y-22764D01*
X51615Y-22620D02*
X51622Y-22612D01*
X51638Y-22604D01*
X51676Y-22604D01*
X51691Y-22612D01*
X51699Y-22620D01*
X51706Y-22635D01*
X51706Y-22650D01*
X51699Y-22673D01*
X51607Y-22764D01*
X51706Y-22764D01*
X47488Y-22424D02*
X47488Y-22539D01*
X47481Y-22561D01*
X47465Y-22577D01*
X47442Y-22584D01*
X47427Y-22584D01*
X47648Y-22584D02*
X47557Y-22584D01*
X47602Y-22584D02*
X47602Y-22424D01*
X47587Y-22447D01*
X47572Y-22462D01*
X47557Y-22470D01*
M02*
