G04 (created by PCBNEW (2013-07-07 BZR 4022)-stable) date 7/23/2013 8:30:17 PM*
%MOIN*%
G04 Gerber Fmt 3.4, Leading zero omitted, Abs format*
%FSLAX34Y34*%
G01*
G70*
G90*
G04 APERTURE LIST*
%ADD10C,0.00590551*%
G04 APERTURE END LIST*
G54D10*
G36*
X47871Y-20463D02*
X47869Y-20546D01*
X47869Y-20546D01*
X47869Y-20548D01*
X47853Y-20617D01*
X47853Y-20617D01*
X47853Y-20617D01*
X47824Y-20684D01*
X47824Y-20684D01*
X47824Y-20684D01*
X47782Y-20743D01*
X47782Y-20743D01*
X47782Y-20743D01*
X47729Y-20793D01*
X47729Y-20793D01*
X47729Y-20793D01*
X47698Y-20813D01*
X47668Y-20832D01*
X47668Y-20832D01*
X47600Y-20859D01*
X47600Y-20859D01*
X47600Y-20859D01*
X47528Y-20871D01*
X47528Y-20871D01*
X47528Y-20871D01*
X47455Y-20870D01*
X47455Y-20870D01*
X47431Y-20864D01*
X47384Y-20854D01*
X47384Y-20854D01*
X47318Y-20825D01*
X47318Y-20825D01*
X47258Y-20783D01*
X47258Y-20783D01*
X47207Y-20731D01*
X47168Y-20670D01*
X47168Y-20670D01*
X47141Y-20602D01*
X47141Y-20602D01*
X47140Y-20598D01*
X47128Y-20531D01*
X47129Y-20458D01*
X47144Y-20387D01*
X47173Y-20320D01*
X47214Y-20260D01*
X47266Y-20209D01*
X47327Y-20169D01*
X47394Y-20142D01*
X47466Y-20128D01*
X47538Y-20129D01*
X47610Y-20143D01*
X47677Y-20172D01*
X47728Y-20206D01*
X47737Y-20212D01*
X47737Y-20212D01*
X47788Y-20264D01*
X47788Y-20264D01*
X47809Y-20294D01*
X47829Y-20324D01*
X47829Y-20325D01*
X47856Y-20392D01*
X47856Y-20392D01*
X47856Y-20392D01*
X47871Y-20463D01*
X47871Y-20463D01*
X47871Y-20463D01*
X47871Y-20463D01*
G37*
G36*
X48871Y-20463D02*
X48869Y-20546D01*
X48869Y-20546D01*
X48869Y-20548D01*
X48853Y-20617D01*
X48853Y-20617D01*
X48853Y-20617D01*
X48824Y-20684D01*
X48824Y-20684D01*
X48824Y-20684D01*
X48782Y-20743D01*
X48782Y-20743D01*
X48782Y-20743D01*
X48729Y-20793D01*
X48729Y-20793D01*
X48729Y-20793D01*
X48698Y-20813D01*
X48668Y-20832D01*
X48668Y-20832D01*
X48600Y-20859D01*
X48600Y-20859D01*
X48600Y-20859D01*
X48528Y-20871D01*
X48528Y-20871D01*
X48528Y-20871D01*
X48455Y-20870D01*
X48455Y-20870D01*
X48431Y-20864D01*
X48384Y-20854D01*
X48384Y-20854D01*
X48318Y-20825D01*
X48318Y-20825D01*
X48258Y-20783D01*
X48258Y-20783D01*
X48207Y-20731D01*
X48168Y-20670D01*
X48168Y-20670D01*
X48141Y-20602D01*
X48141Y-20602D01*
X48140Y-20598D01*
X48128Y-20531D01*
X48129Y-20458D01*
X48144Y-20387D01*
X48173Y-20320D01*
X48214Y-20260D01*
X48266Y-20209D01*
X48327Y-20169D01*
X48394Y-20142D01*
X48466Y-20128D01*
X48538Y-20129D01*
X48610Y-20143D01*
X48677Y-20172D01*
X48728Y-20206D01*
X48737Y-20212D01*
X48737Y-20212D01*
X48788Y-20264D01*
X48788Y-20264D01*
X48809Y-20294D01*
X48829Y-20324D01*
X48829Y-20325D01*
X48856Y-20392D01*
X48856Y-20392D01*
X48856Y-20392D01*
X48871Y-20463D01*
X48871Y-20463D01*
X48871Y-20463D01*
X48871Y-20463D01*
G37*
G36*
X49871Y-20463D02*
X49869Y-20546D01*
X49869Y-20546D01*
X49869Y-20548D01*
X49853Y-20617D01*
X49853Y-20617D01*
X49853Y-20617D01*
X49824Y-20684D01*
X49824Y-20684D01*
X49824Y-20684D01*
X49782Y-20743D01*
X49782Y-20743D01*
X49782Y-20743D01*
X49729Y-20793D01*
X49729Y-20793D01*
X49729Y-20793D01*
X49698Y-20813D01*
X49668Y-20832D01*
X49668Y-20832D01*
X49600Y-20859D01*
X49600Y-20859D01*
X49600Y-20859D01*
X49528Y-20871D01*
X49528Y-20871D01*
X49528Y-20871D01*
X49455Y-20870D01*
X49455Y-20870D01*
X49431Y-20864D01*
X49384Y-20854D01*
X49384Y-20854D01*
X49318Y-20825D01*
X49318Y-20825D01*
X49258Y-20783D01*
X49258Y-20783D01*
X49207Y-20731D01*
X49168Y-20670D01*
X49168Y-20670D01*
X49141Y-20602D01*
X49141Y-20602D01*
X49140Y-20598D01*
X49128Y-20531D01*
X49129Y-20458D01*
X49144Y-20387D01*
X49173Y-20320D01*
X49214Y-20260D01*
X49266Y-20209D01*
X49327Y-20169D01*
X49394Y-20142D01*
X49466Y-20128D01*
X49538Y-20129D01*
X49610Y-20143D01*
X49677Y-20172D01*
X49728Y-20206D01*
X49737Y-20212D01*
X49737Y-20212D01*
X49788Y-20264D01*
X49788Y-20264D01*
X49809Y-20294D01*
X49829Y-20324D01*
X49829Y-20325D01*
X49856Y-20392D01*
X49856Y-20392D01*
X49856Y-20392D01*
X49871Y-20463D01*
X49871Y-20463D01*
X49871Y-20463D01*
X49871Y-20463D01*
G37*
G36*
X50871Y-20463D02*
X50869Y-20546D01*
X50869Y-20546D01*
X50869Y-20548D01*
X50853Y-20617D01*
X50853Y-20617D01*
X50853Y-20617D01*
X50824Y-20684D01*
X50824Y-20684D01*
X50824Y-20684D01*
X50782Y-20743D01*
X50782Y-20743D01*
X50782Y-20743D01*
X50729Y-20793D01*
X50729Y-20793D01*
X50729Y-20793D01*
X50698Y-20813D01*
X50668Y-20832D01*
X50668Y-20832D01*
X50600Y-20859D01*
X50600Y-20859D01*
X50600Y-20859D01*
X50528Y-20871D01*
X50528Y-20871D01*
X50528Y-20871D01*
X50455Y-20870D01*
X50455Y-20870D01*
X50431Y-20864D01*
X50384Y-20854D01*
X50384Y-20854D01*
X50318Y-20825D01*
X50318Y-20825D01*
X50258Y-20783D01*
X50258Y-20783D01*
X50207Y-20731D01*
X50168Y-20670D01*
X50168Y-20670D01*
X50141Y-20602D01*
X50141Y-20602D01*
X50140Y-20598D01*
X50128Y-20531D01*
X50129Y-20458D01*
X50144Y-20387D01*
X50173Y-20320D01*
X50214Y-20260D01*
X50266Y-20209D01*
X50327Y-20169D01*
X50394Y-20142D01*
X50466Y-20128D01*
X50538Y-20129D01*
X50610Y-20143D01*
X50677Y-20172D01*
X50728Y-20206D01*
X50737Y-20212D01*
X50737Y-20212D01*
X50788Y-20264D01*
X50788Y-20264D01*
X50809Y-20294D01*
X50829Y-20324D01*
X50829Y-20325D01*
X50856Y-20392D01*
X50856Y-20392D01*
X50856Y-20392D01*
X50871Y-20463D01*
X50871Y-20463D01*
X50871Y-20463D01*
X50871Y-20463D01*
G37*
G36*
X51871Y-20463D02*
X51869Y-20546D01*
X51869Y-20546D01*
X51869Y-20548D01*
X51853Y-20617D01*
X51853Y-20617D01*
X51853Y-20617D01*
X51824Y-20684D01*
X51824Y-20684D01*
X51824Y-20684D01*
X51782Y-20743D01*
X51782Y-20743D01*
X51782Y-20743D01*
X51729Y-20793D01*
X51729Y-20793D01*
X51729Y-20793D01*
X51698Y-20813D01*
X51668Y-20832D01*
X51668Y-20832D01*
X51600Y-20859D01*
X51600Y-20859D01*
X51600Y-20859D01*
X51528Y-20871D01*
X51528Y-20871D01*
X51528Y-20871D01*
X51455Y-20870D01*
X51455Y-20870D01*
X51431Y-20864D01*
X51384Y-20854D01*
X51384Y-20854D01*
X51318Y-20825D01*
X51318Y-20825D01*
X51258Y-20783D01*
X51258Y-20783D01*
X51207Y-20731D01*
X51168Y-20670D01*
X51168Y-20670D01*
X51141Y-20602D01*
X51141Y-20602D01*
X51140Y-20598D01*
X51128Y-20531D01*
X51129Y-20458D01*
X51144Y-20387D01*
X51173Y-20320D01*
X51214Y-20260D01*
X51266Y-20209D01*
X51327Y-20169D01*
X51394Y-20142D01*
X51466Y-20128D01*
X51538Y-20129D01*
X51610Y-20143D01*
X51677Y-20172D01*
X51728Y-20206D01*
X51737Y-20212D01*
X51737Y-20212D01*
X51788Y-20264D01*
X51788Y-20264D01*
X51809Y-20294D01*
X51829Y-20324D01*
X51829Y-20325D01*
X51856Y-20392D01*
X51856Y-20392D01*
X51856Y-20392D01*
X51871Y-20463D01*
X51871Y-20463D01*
X51871Y-20463D01*
X51871Y-20463D01*
G37*
M02*
