G04 (created by PCBNEW (2013-07-07 BZR 4022)-stable) date 7/23/2013 8:12:13 PM*
%MOIN*%
G04 Gerber Fmt 3.4, Leading zero omitted, Abs format*
%FSLAX34Y34*%
G01*
G70*
G90*
G04 APERTURE LIST*
%ADD10C,0.00590551*%
G04 APERTURE END LIST*
G54D10*
G36*
X47326Y-26326D02*
X47073Y-26326D01*
X47073Y-25873D01*
X47326Y-25873D01*
X47326Y-26326D01*
X47326Y-26326D01*
G37*
G36*
X47423Y-24054D02*
X47026Y-24054D01*
X47026Y-23945D01*
X47423Y-23945D01*
X47423Y-24054D01*
X47423Y-24054D01*
G37*
G36*
X47423Y-24254D02*
X47026Y-24254D01*
X47026Y-24145D01*
X47423Y-24145D01*
X47423Y-24254D01*
X47423Y-24254D01*
G37*
G36*
X47423Y-24454D02*
X47026Y-24454D01*
X47026Y-24345D01*
X47423Y-24345D01*
X47423Y-24454D01*
X47423Y-24454D01*
G37*
G36*
X47423Y-24654D02*
X47026Y-24654D01*
X47026Y-24545D01*
X47423Y-24545D01*
X47423Y-24654D01*
X47423Y-24654D01*
G37*
G36*
X47423Y-24854D02*
X47026Y-24854D01*
X47026Y-24745D01*
X47423Y-24745D01*
X47423Y-24854D01*
X47423Y-24854D01*
G37*
G36*
X47449Y-23351D02*
X47196Y-23351D01*
X47196Y-22848D01*
X47449Y-22848D01*
X47449Y-23351D01*
X47449Y-23351D01*
G37*
G36*
X47451Y-22251D02*
X46948Y-22251D01*
X46948Y-21248D01*
X47451Y-21248D01*
X47451Y-22251D01*
X47451Y-22251D01*
G37*
G36*
X47490Y-27162D02*
X46937Y-27162D01*
X46937Y-26530D01*
X47490Y-26530D01*
X47490Y-27162D01*
X47490Y-27162D01*
G37*
G36*
X47490Y-30469D02*
X46937Y-30469D01*
X46937Y-29837D01*
X47490Y-29837D01*
X47490Y-30469D01*
X47490Y-30469D01*
G37*
G36*
X47524Y-25637D02*
X47049Y-25637D01*
X47049Y-25162D01*
X47524Y-25162D01*
X47524Y-25637D01*
X47524Y-25637D01*
G37*
G36*
X47803Y-23351D02*
X47550Y-23351D01*
X47550Y-22848D01*
X47803Y-22848D01*
X47803Y-23351D01*
X47803Y-23351D01*
G37*
G36*
X47871Y-20463D02*
X47869Y-20546D01*
X47869Y-20546D01*
X47869Y-20548D01*
X47853Y-20617D01*
X47853Y-20617D01*
X47853Y-20617D01*
X47824Y-20684D01*
X47824Y-20684D01*
X47824Y-20684D01*
X47782Y-20743D01*
X47782Y-20743D01*
X47782Y-20743D01*
X47729Y-20793D01*
X47729Y-20793D01*
X47729Y-20793D01*
X47698Y-20813D01*
X47668Y-20832D01*
X47668Y-20832D01*
X47600Y-20859D01*
X47600Y-20859D01*
X47600Y-20859D01*
X47528Y-20871D01*
X47528Y-20871D01*
X47528Y-20871D01*
X47455Y-20870D01*
X47455Y-20870D01*
X47431Y-20864D01*
X47384Y-20854D01*
X47384Y-20854D01*
X47318Y-20825D01*
X47318Y-20825D01*
X47258Y-20783D01*
X47258Y-20783D01*
X47207Y-20731D01*
X47168Y-20670D01*
X47168Y-20670D01*
X47141Y-20602D01*
X47141Y-20602D01*
X47140Y-20598D01*
X47128Y-20531D01*
X47129Y-20458D01*
X47144Y-20387D01*
X47173Y-20320D01*
X47214Y-20260D01*
X47266Y-20209D01*
X47327Y-20169D01*
X47394Y-20142D01*
X47466Y-20128D01*
X47538Y-20129D01*
X47610Y-20143D01*
X47677Y-20172D01*
X47728Y-20206D01*
X47737Y-20212D01*
X47737Y-20212D01*
X47788Y-20264D01*
X47788Y-20264D01*
X47809Y-20294D01*
X47829Y-20324D01*
X47829Y-20325D01*
X47856Y-20392D01*
X47856Y-20392D01*
X47856Y-20392D01*
X47871Y-20463D01*
X47871Y-20463D01*
X47871Y-20463D01*
X47871Y-20463D01*
G37*
G36*
X47926Y-26326D02*
X47673Y-26326D01*
X47673Y-25873D01*
X47926Y-25873D01*
X47926Y-26326D01*
X47926Y-26326D01*
G37*
G36*
X47926Y-27026D02*
X47673Y-27026D01*
X47673Y-26573D01*
X47926Y-26573D01*
X47926Y-27026D01*
X47926Y-27026D01*
G37*
G36*
X48350Y-25637D02*
X47875Y-25637D01*
X47875Y-25162D01*
X48350Y-25162D01*
X48350Y-25637D01*
X48350Y-25637D01*
G37*
G36*
X48376Y-30469D02*
X47823Y-30469D01*
X47823Y-29837D01*
X48376Y-29837D01*
X48376Y-30469D01*
X48376Y-30469D01*
G37*
G36*
X48526Y-27026D02*
X48273Y-27026D01*
X48273Y-26573D01*
X48526Y-26573D01*
X48526Y-27026D01*
X48526Y-27026D01*
G37*
G36*
X48651Y-22251D02*
X48148Y-22251D01*
X48148Y-21248D01*
X48651Y-21248D01*
X48651Y-22251D01*
X48651Y-22251D01*
G37*
G36*
X48871Y-20463D02*
X48869Y-20546D01*
X48869Y-20546D01*
X48869Y-20548D01*
X48853Y-20617D01*
X48853Y-20617D01*
X48853Y-20617D01*
X48824Y-20684D01*
X48824Y-20684D01*
X48824Y-20684D01*
X48782Y-20743D01*
X48782Y-20743D01*
X48782Y-20743D01*
X48729Y-20793D01*
X48729Y-20793D01*
X48729Y-20793D01*
X48698Y-20813D01*
X48668Y-20832D01*
X48668Y-20832D01*
X48600Y-20859D01*
X48600Y-20859D01*
X48600Y-20859D01*
X48528Y-20871D01*
X48528Y-20871D01*
X48528Y-20871D01*
X48455Y-20870D01*
X48455Y-20870D01*
X48431Y-20864D01*
X48384Y-20854D01*
X48384Y-20854D01*
X48318Y-20825D01*
X48318Y-20825D01*
X48258Y-20783D01*
X48258Y-20783D01*
X48207Y-20731D01*
X48168Y-20670D01*
X48168Y-20670D01*
X48141Y-20602D01*
X48141Y-20602D01*
X48140Y-20598D01*
X48128Y-20531D01*
X48129Y-20458D01*
X48144Y-20387D01*
X48173Y-20320D01*
X48214Y-20260D01*
X48266Y-20209D01*
X48327Y-20169D01*
X48394Y-20142D01*
X48466Y-20128D01*
X48538Y-20129D01*
X48610Y-20143D01*
X48677Y-20172D01*
X48728Y-20206D01*
X48737Y-20212D01*
X48737Y-20212D01*
X48788Y-20264D01*
X48788Y-20264D01*
X48809Y-20294D01*
X48829Y-20324D01*
X48829Y-20325D01*
X48856Y-20392D01*
X48856Y-20392D01*
X48856Y-20392D01*
X48871Y-20463D01*
X48871Y-20463D01*
X48871Y-20463D01*
X48871Y-20463D01*
G37*
G36*
X49126Y-22926D02*
X48673Y-22926D01*
X48673Y-22673D01*
X49126Y-22673D01*
X49126Y-22926D01*
X49126Y-22926D01*
G37*
G36*
X49126Y-23526D02*
X48673Y-23526D01*
X48673Y-23273D01*
X49126Y-23273D01*
X49126Y-23526D01*
X49126Y-23526D01*
G37*
G36*
X49173Y-24054D02*
X48776Y-24054D01*
X48776Y-23945D01*
X49173Y-23945D01*
X49173Y-24054D01*
X49173Y-24054D01*
G37*
G36*
X49173Y-24254D02*
X48776Y-24254D01*
X48776Y-24145D01*
X49173Y-24145D01*
X49173Y-24254D01*
X49173Y-24254D01*
G37*
G36*
X49173Y-24454D02*
X48776Y-24454D01*
X48776Y-24345D01*
X49173Y-24345D01*
X49173Y-24454D01*
X49173Y-24454D01*
G37*
G36*
X49173Y-24654D02*
X48776Y-24654D01*
X48776Y-24545D01*
X49173Y-24545D01*
X49173Y-24654D01*
X49173Y-24654D01*
G37*
G36*
X49173Y-24854D02*
X48776Y-24854D01*
X48776Y-24745D01*
X49173Y-24745D01*
X49173Y-24854D01*
X49173Y-24854D01*
G37*
G36*
X49226Y-21726D02*
X48973Y-21726D01*
X48973Y-21273D01*
X49226Y-21273D01*
X49226Y-21726D01*
X49226Y-21726D01*
G37*
G36*
X49226Y-22426D02*
X48973Y-22426D01*
X48973Y-21973D01*
X49226Y-21973D01*
X49226Y-22426D01*
X49226Y-22426D01*
G37*
G36*
X49226Y-25426D02*
X48773Y-25426D01*
X48773Y-25173D01*
X49226Y-25173D01*
X49226Y-25426D01*
X49226Y-25426D01*
G37*
G36*
X49226Y-26026D02*
X48773Y-26026D01*
X48773Y-25773D01*
X49226Y-25773D01*
X49226Y-26026D01*
X49226Y-26026D01*
G37*
G36*
X49262Y-27162D02*
X48709Y-27162D01*
X48709Y-26530D01*
X49262Y-26530D01*
X49262Y-27162D01*
X49262Y-27162D01*
G37*
G36*
X49262Y-30469D02*
X48709Y-30469D01*
X48709Y-29837D01*
X49262Y-29837D01*
X49262Y-30469D01*
X49262Y-30469D01*
G37*
G36*
X49826Y-21726D02*
X49573Y-21726D01*
X49573Y-21273D01*
X49826Y-21273D01*
X49826Y-21726D01*
X49826Y-21726D01*
G37*
G36*
X49826Y-22426D02*
X49573Y-22426D01*
X49573Y-21973D01*
X49826Y-21973D01*
X49826Y-22426D01*
X49826Y-22426D01*
G37*
G36*
X49871Y-20463D02*
X49869Y-20546D01*
X49869Y-20546D01*
X49869Y-20548D01*
X49853Y-20617D01*
X49853Y-20617D01*
X49853Y-20617D01*
X49824Y-20684D01*
X49824Y-20684D01*
X49824Y-20684D01*
X49782Y-20743D01*
X49782Y-20743D01*
X49782Y-20743D01*
X49729Y-20793D01*
X49729Y-20793D01*
X49729Y-20793D01*
X49698Y-20813D01*
X49668Y-20832D01*
X49668Y-20832D01*
X49600Y-20859D01*
X49600Y-20859D01*
X49600Y-20859D01*
X49528Y-20871D01*
X49528Y-20871D01*
X49528Y-20871D01*
X49455Y-20870D01*
X49455Y-20870D01*
X49431Y-20864D01*
X49384Y-20854D01*
X49384Y-20854D01*
X49318Y-20825D01*
X49318Y-20825D01*
X49258Y-20783D01*
X49258Y-20783D01*
X49207Y-20731D01*
X49168Y-20670D01*
X49168Y-20670D01*
X49141Y-20602D01*
X49141Y-20602D01*
X49140Y-20598D01*
X49128Y-20531D01*
X49129Y-20458D01*
X49144Y-20387D01*
X49173Y-20320D01*
X49214Y-20260D01*
X49266Y-20209D01*
X49327Y-20169D01*
X49394Y-20142D01*
X49466Y-20128D01*
X49538Y-20129D01*
X49610Y-20143D01*
X49677Y-20172D01*
X49728Y-20206D01*
X49737Y-20212D01*
X49737Y-20212D01*
X49788Y-20264D01*
X49788Y-20264D01*
X49809Y-20294D01*
X49829Y-20324D01*
X49829Y-20325D01*
X49856Y-20392D01*
X49856Y-20392D01*
X49856Y-20392D01*
X49871Y-20463D01*
X49871Y-20463D01*
X49871Y-20463D01*
X49871Y-20463D01*
G37*
G36*
X50290Y-27162D02*
X49737Y-27162D01*
X49737Y-26530D01*
X50290Y-26530D01*
X50290Y-27162D01*
X50290Y-27162D01*
G37*
G36*
X50290Y-30469D02*
X49737Y-30469D01*
X49737Y-29837D01*
X50290Y-29837D01*
X50290Y-30469D01*
X50290Y-30469D01*
G37*
G36*
X50871Y-20463D02*
X50869Y-20546D01*
X50869Y-20546D01*
X50869Y-20548D01*
X50853Y-20617D01*
X50853Y-20617D01*
X50853Y-20617D01*
X50824Y-20684D01*
X50824Y-20684D01*
X50824Y-20684D01*
X50782Y-20743D01*
X50782Y-20743D01*
X50782Y-20743D01*
X50729Y-20793D01*
X50729Y-20793D01*
X50729Y-20793D01*
X50698Y-20813D01*
X50668Y-20832D01*
X50668Y-20832D01*
X50600Y-20859D01*
X50600Y-20859D01*
X50600Y-20859D01*
X50528Y-20871D01*
X50528Y-20871D01*
X50528Y-20871D01*
X50455Y-20870D01*
X50455Y-20870D01*
X50431Y-20864D01*
X50384Y-20854D01*
X50384Y-20854D01*
X50318Y-20825D01*
X50318Y-20825D01*
X50258Y-20783D01*
X50258Y-20783D01*
X50207Y-20731D01*
X50168Y-20670D01*
X50168Y-20670D01*
X50141Y-20602D01*
X50141Y-20602D01*
X50140Y-20598D01*
X50128Y-20531D01*
X50129Y-20458D01*
X50144Y-20387D01*
X50173Y-20320D01*
X50214Y-20260D01*
X50266Y-20209D01*
X50327Y-20169D01*
X50394Y-20142D01*
X50466Y-20128D01*
X50538Y-20129D01*
X50610Y-20143D01*
X50677Y-20172D01*
X50728Y-20206D01*
X50737Y-20212D01*
X50737Y-20212D01*
X50788Y-20264D01*
X50788Y-20264D01*
X50809Y-20294D01*
X50829Y-20324D01*
X50829Y-20325D01*
X50856Y-20392D01*
X50856Y-20392D01*
X50856Y-20392D01*
X50871Y-20463D01*
X50871Y-20463D01*
X50871Y-20463D01*
X50871Y-20463D01*
G37*
G36*
X51026Y-26426D02*
X50573Y-26426D01*
X50573Y-26173D01*
X51026Y-26173D01*
X51026Y-26426D01*
X51026Y-26426D01*
G37*
G36*
X51026Y-27026D02*
X50573Y-27026D01*
X50573Y-26773D01*
X51026Y-26773D01*
X51026Y-27026D01*
X51026Y-27026D01*
G37*
G36*
X51053Y-21350D02*
X50146Y-21350D01*
X50146Y-21104D01*
X51053Y-21104D01*
X51053Y-21350D01*
X51053Y-21350D01*
G37*
G36*
X51053Y-22295D02*
X50146Y-22295D01*
X50146Y-22049D01*
X51053Y-22049D01*
X51053Y-22295D01*
X51053Y-22295D01*
G37*
G36*
X51176Y-30469D02*
X50623Y-30469D01*
X50623Y-29837D01*
X51176Y-29837D01*
X51176Y-30469D01*
X51176Y-30469D01*
G37*
G36*
X51273Y-23474D02*
X50326Y-23474D01*
X50326Y-22763D01*
X51273Y-22763D01*
X51273Y-23474D01*
X51273Y-23474D01*
G37*
G36*
X51273Y-25836D02*
X50326Y-25836D01*
X50326Y-25125D01*
X51273Y-25125D01*
X51273Y-25836D01*
X51273Y-25836D01*
G37*
G36*
X51526Y-21626D02*
X51273Y-21626D01*
X51273Y-21173D01*
X51526Y-21173D01*
X51526Y-21626D01*
X51526Y-21626D01*
G37*
G36*
X51851Y-22149D02*
X51348Y-22149D01*
X51348Y-21896D01*
X51851Y-21896D01*
X51851Y-22149D01*
X51851Y-22149D01*
G37*
G36*
X51851Y-22503D02*
X51348Y-22503D01*
X51348Y-22250D01*
X51851Y-22250D01*
X51851Y-22503D01*
X51851Y-22503D01*
G37*
G36*
X51871Y-20463D02*
X51869Y-20546D01*
X51869Y-20546D01*
X51869Y-20548D01*
X51853Y-20617D01*
X51853Y-20617D01*
X51853Y-20617D01*
X51824Y-20684D01*
X51824Y-20684D01*
X51824Y-20684D01*
X51782Y-20743D01*
X51782Y-20743D01*
X51782Y-20743D01*
X51729Y-20793D01*
X51729Y-20793D01*
X51729Y-20793D01*
X51698Y-20813D01*
X51668Y-20832D01*
X51668Y-20832D01*
X51600Y-20859D01*
X51600Y-20859D01*
X51600Y-20859D01*
X51528Y-20871D01*
X51528Y-20871D01*
X51528Y-20871D01*
X51455Y-20870D01*
X51455Y-20870D01*
X51431Y-20864D01*
X51384Y-20854D01*
X51384Y-20854D01*
X51318Y-20825D01*
X51318Y-20825D01*
X51258Y-20783D01*
X51258Y-20783D01*
X51207Y-20731D01*
X51168Y-20670D01*
X51168Y-20670D01*
X51141Y-20602D01*
X51141Y-20602D01*
X51140Y-20598D01*
X51128Y-20531D01*
X51129Y-20458D01*
X51144Y-20387D01*
X51173Y-20320D01*
X51214Y-20260D01*
X51266Y-20209D01*
X51327Y-20169D01*
X51394Y-20142D01*
X51466Y-20128D01*
X51538Y-20129D01*
X51610Y-20143D01*
X51677Y-20172D01*
X51728Y-20206D01*
X51737Y-20212D01*
X51737Y-20212D01*
X51788Y-20264D01*
X51788Y-20264D01*
X51809Y-20294D01*
X51829Y-20324D01*
X51829Y-20325D01*
X51856Y-20392D01*
X51856Y-20392D01*
X51856Y-20392D01*
X51871Y-20463D01*
X51871Y-20463D01*
X51871Y-20463D01*
X51871Y-20463D01*
G37*
G36*
X52062Y-27162D02*
X51509Y-27162D01*
X51509Y-26530D01*
X52062Y-26530D01*
X52062Y-27162D01*
X52062Y-27162D01*
G37*
G36*
X52062Y-30469D02*
X51509Y-30469D01*
X51509Y-29837D01*
X52062Y-29837D01*
X52062Y-30469D01*
X52062Y-30469D01*
G37*
G36*
X52126Y-21626D02*
X51873Y-21626D01*
X51873Y-21173D01*
X52126Y-21173D01*
X52126Y-21626D01*
X52126Y-21626D01*
G37*
M02*
