G04 (created by PCBNEW (2013-07-07 BZR 4022)-stable) date 7/23/2013 8:12:12 PM*
%MOIN*%
G04 Gerber Fmt 3.4, Leading zero omitted, Abs format*
%FSLAX34Y34*%
G01*
G70*
G90*
G04 APERTURE LIST*
%ADD10C,0.00590551*%
%ADD11C,0.074*%
%ADD12C,0.035*%
%ADD13C,0.01*%
%ADD14C,0.008*%
G04 APERTURE END LIST*
G54D10*
G54D11*
X47500Y-20500D03*
X48500Y-20500D03*
X49500Y-20500D03*
X50500Y-20500D03*
X51500Y-20500D03*
G54D12*
X47700Y-27500D03*
X48400Y-24300D03*
X49500Y-27500D03*
X49500Y-28500D03*
X48150Y-22600D03*
X50900Y-23900D03*
X48000Y-24500D03*
X49400Y-22700D03*
X49400Y-23100D03*
X48300Y-24900D03*
X51800Y-26200D03*
X49800Y-26100D03*
G54D13*
X47400Y-27200D02*
X47200Y-27000D01*
X47700Y-21300D02*
X47800Y-21200D01*
X47800Y-21200D02*
X47800Y-21200D01*
X47800Y-21900D02*
X47800Y-21899D01*
X48300Y-23000D02*
X48500Y-22800D01*
X48500Y-22800D02*
X48500Y-22400D01*
X48500Y-22400D02*
X48300Y-22200D01*
X48300Y-22200D02*
X48100Y-22200D01*
X48100Y-22200D02*
X47800Y-21900D01*
X47800Y-21899D02*
X47700Y-21800D01*
X48500Y-20500D02*
X47800Y-21200D01*
X47700Y-21800D02*
X47700Y-21300D01*
X47400Y-23900D02*
X48300Y-23000D01*
X47400Y-27200D02*
X47700Y-27500D01*
X47200Y-24100D02*
X47400Y-23900D01*
X47200Y-27000D02*
X47200Y-24100D01*
X48400Y-24300D02*
X48800Y-24700D01*
X48800Y-26800D02*
X49500Y-27500D01*
X48800Y-24700D02*
X48800Y-26800D01*
X49500Y-28500D02*
X49500Y-27500D01*
X47500Y-21950D02*
X48150Y-22600D01*
X47500Y-21950D02*
X47500Y-20500D01*
X48300Y-23900D02*
X48000Y-24200D01*
X48400Y-23900D02*
X48300Y-23900D01*
X50900Y-23900D02*
X48400Y-23900D01*
X48000Y-24200D02*
X48000Y-24500D01*
X48300Y-28400D02*
X49000Y-29100D01*
X48300Y-24900D02*
X48300Y-28400D01*
X50500Y-28500D02*
X49900Y-29100D01*
X49000Y-29100D02*
X49900Y-29100D01*
X51800Y-26200D02*
X51800Y-22800D01*
X51800Y-22800D02*
X49500Y-20500D01*
X50500Y-28500D02*
X51400Y-27600D01*
X51800Y-27200D02*
X51800Y-26200D01*
X51400Y-27600D02*
X51800Y-27200D01*
X50500Y-26800D02*
X49800Y-26100D01*
X50500Y-28500D02*
X50500Y-26800D01*
G54D10*
G36*
X52060Y-30460D02*
X51195Y-30460D01*
X51195Y-23841D01*
X51150Y-23733D01*
X51067Y-23650D01*
X50958Y-23605D01*
X50841Y-23604D01*
X50733Y-23649D01*
X50652Y-23730D01*
X48400Y-23730D01*
X48300Y-23730D01*
X48299Y-23730D01*
X48234Y-23742D01*
X48179Y-23779D01*
X48179Y-23779D01*
X47879Y-24079D01*
X47842Y-24134D01*
X47830Y-24200D01*
X47830Y-24252D01*
X47750Y-24332D01*
X47705Y-24441D01*
X47704Y-24558D01*
X47749Y-24666D01*
X47832Y-24749D01*
X47941Y-24794D01*
X48058Y-24795D01*
X48166Y-24750D01*
X48249Y-24667D01*
X48288Y-24573D01*
X48341Y-24594D01*
X48454Y-24595D01*
X48630Y-24770D01*
X48630Y-26800D01*
X48642Y-26865D01*
X48679Y-26920D01*
X49205Y-27445D01*
X49204Y-27558D01*
X49249Y-27666D01*
X49330Y-27747D01*
X49330Y-28252D01*
X49250Y-28332D01*
X49205Y-28441D01*
X49204Y-28558D01*
X49249Y-28666D01*
X49332Y-28749D01*
X49441Y-28794D01*
X49558Y-28795D01*
X49666Y-28750D01*
X49749Y-28667D01*
X49794Y-28558D01*
X49795Y-28441D01*
X49750Y-28333D01*
X49670Y-28252D01*
X49670Y-27747D01*
X49749Y-27667D01*
X49794Y-27558D01*
X49795Y-27441D01*
X49750Y-27333D01*
X49667Y-27250D01*
X49558Y-27205D01*
X49445Y-27204D01*
X48970Y-26729D01*
X48970Y-24700D01*
X48969Y-24699D01*
X48970Y-24699D01*
X48957Y-24634D01*
X48920Y-24579D01*
X48920Y-24579D01*
X48694Y-24354D01*
X48695Y-24241D01*
X48650Y-24133D01*
X48587Y-24070D01*
X50652Y-24070D01*
X50732Y-24149D01*
X50841Y-24194D01*
X50958Y-24195D01*
X51066Y-24150D01*
X51149Y-24067D01*
X51194Y-23958D01*
X51195Y-23841D01*
X51195Y-30460D01*
X46940Y-30460D01*
X46940Y-20140D01*
X47167Y-20140D01*
X47084Y-20222D01*
X47010Y-20402D01*
X47009Y-20597D01*
X47084Y-20777D01*
X47222Y-20915D01*
X47330Y-20959D01*
X47330Y-21950D01*
X47342Y-22015D01*
X47379Y-22070D01*
X47855Y-22545D01*
X47854Y-22658D01*
X47899Y-22766D01*
X47982Y-22849D01*
X48091Y-22894D01*
X48164Y-22895D01*
X47279Y-23779D01*
X47279Y-23779D01*
X47079Y-23979D01*
X47042Y-24034D01*
X47030Y-24100D01*
X47030Y-27000D01*
X47042Y-27065D01*
X47079Y-27120D01*
X47279Y-27320D01*
X47279Y-27320D01*
X47405Y-27445D01*
X47404Y-27558D01*
X47449Y-27666D01*
X47532Y-27749D01*
X47641Y-27794D01*
X47758Y-27795D01*
X47866Y-27750D01*
X47949Y-27667D01*
X47994Y-27558D01*
X47995Y-27441D01*
X47950Y-27333D01*
X47867Y-27250D01*
X47758Y-27205D01*
X47645Y-27204D01*
X47520Y-27079D01*
X47520Y-27079D01*
X47370Y-26929D01*
X47370Y-24170D01*
X47520Y-24020D01*
X47520Y-24020D01*
X47520Y-24020D01*
X48420Y-23120D01*
X48620Y-22920D01*
X48620Y-22920D01*
X48620Y-22920D01*
X48657Y-22865D01*
X48670Y-22800D01*
X48670Y-22400D01*
X48657Y-22334D01*
X48620Y-22279D01*
X48620Y-22279D01*
X48420Y-22079D01*
X48365Y-22042D01*
X48300Y-22030D01*
X48170Y-22030D01*
X47920Y-21779D01*
X47920Y-21779D01*
X47920Y-21779D01*
X47870Y-21729D01*
X47870Y-21370D01*
X47920Y-21320D01*
X47920Y-21320D01*
X47920Y-21320D01*
X47920Y-21320D01*
X47920Y-21320D01*
X48294Y-20945D01*
X48402Y-20989D01*
X48597Y-20990D01*
X48777Y-20915D01*
X48915Y-20777D01*
X48989Y-20597D01*
X48990Y-20402D01*
X48915Y-20222D01*
X48832Y-20140D01*
X50167Y-20140D01*
X50084Y-20222D01*
X50010Y-20402D01*
X50009Y-20597D01*
X50084Y-20777D01*
X50222Y-20915D01*
X50402Y-20989D01*
X50597Y-20990D01*
X50777Y-20915D01*
X50915Y-20777D01*
X50989Y-20597D01*
X50990Y-20402D01*
X50915Y-20222D01*
X50832Y-20140D01*
X51167Y-20140D01*
X51084Y-20222D01*
X51010Y-20402D01*
X51009Y-20597D01*
X51084Y-20777D01*
X51222Y-20915D01*
X51402Y-20989D01*
X51597Y-20990D01*
X51777Y-20915D01*
X51915Y-20777D01*
X51989Y-20597D01*
X51990Y-20402D01*
X51915Y-20222D01*
X51832Y-20140D01*
X52060Y-20140D01*
X52060Y-30460D01*
X52060Y-30460D01*
G37*
G54D14*
X52060Y-30460D02*
X51195Y-30460D01*
X51195Y-23841D01*
X51150Y-23733D01*
X51067Y-23650D01*
X50958Y-23605D01*
X50841Y-23604D01*
X50733Y-23649D01*
X50652Y-23730D01*
X48400Y-23730D01*
X48300Y-23730D01*
X48299Y-23730D01*
X48234Y-23742D01*
X48179Y-23779D01*
X48179Y-23779D01*
X47879Y-24079D01*
X47842Y-24134D01*
X47830Y-24200D01*
X47830Y-24252D01*
X47750Y-24332D01*
X47705Y-24441D01*
X47704Y-24558D01*
X47749Y-24666D01*
X47832Y-24749D01*
X47941Y-24794D01*
X48058Y-24795D01*
X48166Y-24750D01*
X48249Y-24667D01*
X48288Y-24573D01*
X48341Y-24594D01*
X48454Y-24595D01*
X48630Y-24770D01*
X48630Y-26800D01*
X48642Y-26865D01*
X48679Y-26920D01*
X49205Y-27445D01*
X49204Y-27558D01*
X49249Y-27666D01*
X49330Y-27747D01*
X49330Y-28252D01*
X49250Y-28332D01*
X49205Y-28441D01*
X49204Y-28558D01*
X49249Y-28666D01*
X49332Y-28749D01*
X49441Y-28794D01*
X49558Y-28795D01*
X49666Y-28750D01*
X49749Y-28667D01*
X49794Y-28558D01*
X49795Y-28441D01*
X49750Y-28333D01*
X49670Y-28252D01*
X49670Y-27747D01*
X49749Y-27667D01*
X49794Y-27558D01*
X49795Y-27441D01*
X49750Y-27333D01*
X49667Y-27250D01*
X49558Y-27205D01*
X49445Y-27204D01*
X48970Y-26729D01*
X48970Y-24700D01*
X48969Y-24699D01*
X48970Y-24699D01*
X48957Y-24634D01*
X48920Y-24579D01*
X48920Y-24579D01*
X48694Y-24354D01*
X48695Y-24241D01*
X48650Y-24133D01*
X48587Y-24070D01*
X50652Y-24070D01*
X50732Y-24149D01*
X50841Y-24194D01*
X50958Y-24195D01*
X51066Y-24150D01*
X51149Y-24067D01*
X51194Y-23958D01*
X51195Y-23841D01*
X51195Y-30460D01*
X46940Y-30460D01*
X46940Y-20140D01*
X47167Y-20140D01*
X47084Y-20222D01*
X47010Y-20402D01*
X47009Y-20597D01*
X47084Y-20777D01*
X47222Y-20915D01*
X47330Y-20959D01*
X47330Y-21950D01*
X47342Y-22015D01*
X47379Y-22070D01*
X47855Y-22545D01*
X47854Y-22658D01*
X47899Y-22766D01*
X47982Y-22849D01*
X48091Y-22894D01*
X48164Y-22895D01*
X47279Y-23779D01*
X47279Y-23779D01*
X47079Y-23979D01*
X47042Y-24034D01*
X47030Y-24100D01*
X47030Y-27000D01*
X47042Y-27065D01*
X47079Y-27120D01*
X47279Y-27320D01*
X47279Y-27320D01*
X47405Y-27445D01*
X47404Y-27558D01*
X47449Y-27666D01*
X47532Y-27749D01*
X47641Y-27794D01*
X47758Y-27795D01*
X47866Y-27750D01*
X47949Y-27667D01*
X47994Y-27558D01*
X47995Y-27441D01*
X47950Y-27333D01*
X47867Y-27250D01*
X47758Y-27205D01*
X47645Y-27204D01*
X47520Y-27079D01*
X47520Y-27079D01*
X47370Y-26929D01*
X47370Y-24170D01*
X47520Y-24020D01*
X47520Y-24020D01*
X47520Y-24020D01*
X48420Y-23120D01*
X48620Y-22920D01*
X48620Y-22920D01*
X48620Y-22920D01*
X48657Y-22865D01*
X48670Y-22800D01*
X48670Y-22400D01*
X48657Y-22334D01*
X48620Y-22279D01*
X48620Y-22279D01*
X48420Y-22079D01*
X48365Y-22042D01*
X48300Y-22030D01*
X48170Y-22030D01*
X47920Y-21779D01*
X47920Y-21779D01*
X47920Y-21779D01*
X47870Y-21729D01*
X47870Y-21370D01*
X47920Y-21320D01*
X47920Y-21320D01*
X47920Y-21320D01*
X47920Y-21320D01*
X47920Y-21320D01*
X48294Y-20945D01*
X48402Y-20989D01*
X48597Y-20990D01*
X48777Y-20915D01*
X48915Y-20777D01*
X48989Y-20597D01*
X48990Y-20402D01*
X48915Y-20222D01*
X48832Y-20140D01*
X50167Y-20140D01*
X50084Y-20222D01*
X50010Y-20402D01*
X50009Y-20597D01*
X50084Y-20777D01*
X50222Y-20915D01*
X50402Y-20989D01*
X50597Y-20990D01*
X50777Y-20915D01*
X50915Y-20777D01*
X50989Y-20597D01*
X50990Y-20402D01*
X50915Y-20222D01*
X50832Y-20140D01*
X51167Y-20140D01*
X51084Y-20222D01*
X51010Y-20402D01*
X51009Y-20597D01*
X51084Y-20777D01*
X51222Y-20915D01*
X51402Y-20989D01*
X51597Y-20990D01*
X51777Y-20915D01*
X51915Y-20777D01*
X51989Y-20597D01*
X51990Y-20402D01*
X51915Y-20222D01*
X51832Y-20140D01*
X52060Y-20140D01*
X52060Y-30460D01*
M02*
