G04 (created by PCBNEW (2013-07-07 BZR 4022)-stable) date 7/23/2013 8:12:12 PM*
%MOIN*%
G04 Gerber Fmt 3.4, Leading zero omitted, Abs format*
%FSLAX34Y34*%
G01*
G70*
G90*
G04 APERTURE LIST*
%ADD10C,0.00590551*%
%ADD11C,0.074*%
%ADD12R,0.0551181X0.0629921*%
%ADD13R,0.0394X0.0106*%
%ADD14R,0.05X0.1*%
%ADD15R,0.045X0.025*%
%ADD16R,0.025X0.045*%
%ADD17R,0.0472X0.0472*%
%ADD18R,0.0944882X0.0708661*%
%ADD19R,0.0905512X0.0244094*%
%ADD20R,0.05X0.025*%
%ADD21R,0.025X0.05*%
%ADD22C,0.035*%
%ADD23C,0.01*%
%ADD24C,0.02*%
%ADD25C,0.008*%
G04 APERTURE END LIST*
G54D10*
G54D11*
X47500Y-20500D03*
X48500Y-20500D03*
X49500Y-20500D03*
X50500Y-20500D03*
X51500Y-20500D03*
G54D12*
X51785Y-30153D03*
X51785Y-26846D03*
X50014Y-26846D03*
X50014Y-30153D03*
X50900Y-30153D03*
G54D13*
X47225Y-24000D03*
X47225Y-24200D03*
X47225Y-24400D03*
X47225Y-24600D03*
X47225Y-24800D03*
X48975Y-24800D03*
X48975Y-24600D03*
X48975Y-24400D03*
X48975Y-24200D03*
X48975Y-24000D03*
G54D14*
X47200Y-21750D03*
X48400Y-21750D03*
G54D15*
X50800Y-26900D03*
X50800Y-26300D03*
G54D16*
X47800Y-26800D03*
X48400Y-26800D03*
G54D15*
X49000Y-25300D03*
X49000Y-25900D03*
G54D16*
X47800Y-26100D03*
X47200Y-26100D03*
G54D15*
X48900Y-23400D03*
X48900Y-22800D03*
G54D16*
X49700Y-22200D03*
X49100Y-22200D03*
X49700Y-21500D03*
X49100Y-21500D03*
G54D17*
X47287Y-25400D03*
X48113Y-25400D03*
G54D18*
X50800Y-25481D03*
X50800Y-23118D03*
G54D19*
X50600Y-22172D03*
X50600Y-21227D03*
G54D12*
X48985Y-30153D03*
X48985Y-26846D03*
X47214Y-26846D03*
X47214Y-30153D03*
X48100Y-30153D03*
G54D16*
X51400Y-21400D03*
X52000Y-21400D03*
G54D20*
X51600Y-22377D03*
X51600Y-22023D03*
G54D21*
X47323Y-23100D03*
X47677Y-23100D03*
G54D22*
X47700Y-27500D03*
X48400Y-24300D03*
X49500Y-27500D03*
X49500Y-28500D03*
X48150Y-22600D03*
X50900Y-23900D03*
X48000Y-24500D03*
X49400Y-22700D03*
X49400Y-23100D03*
X48300Y-24900D03*
X51800Y-26200D03*
X49800Y-26100D03*
G54D23*
X47323Y-23100D02*
X47323Y-23902D01*
X47323Y-23902D02*
X47225Y-24000D01*
X47800Y-26800D02*
X47800Y-27400D01*
X47800Y-27400D02*
X47700Y-27500D01*
X47214Y-27500D02*
X47700Y-27500D01*
X47214Y-26846D02*
X47214Y-27500D01*
X47214Y-27500D02*
X47214Y-30153D01*
X47214Y-26846D02*
X47214Y-27014D01*
X47753Y-26846D02*
X47800Y-26800D01*
X48975Y-24400D02*
X48700Y-24400D01*
X48600Y-24300D02*
X48700Y-24400D01*
X48600Y-24300D02*
X48400Y-24300D01*
X47677Y-23877D02*
X47700Y-23900D01*
X47800Y-24000D02*
X47700Y-23900D01*
X48100Y-24000D02*
X47800Y-24000D01*
X48400Y-24300D02*
X48100Y-24000D01*
X47677Y-23100D02*
X47677Y-23877D01*
X50014Y-26846D02*
X49500Y-26846D01*
X49500Y-26846D02*
X49500Y-27500D01*
X49500Y-30153D02*
X49500Y-28500D01*
X48985Y-30153D02*
X49500Y-30153D01*
X49500Y-30153D02*
X50014Y-30153D01*
X48985Y-26846D02*
X49500Y-26846D01*
X50800Y-26900D02*
X50067Y-26900D01*
X50067Y-26900D02*
X50014Y-26846D01*
X47677Y-23100D02*
X47677Y-23073D01*
X48150Y-22600D02*
X47950Y-22800D01*
X47677Y-23073D02*
X47950Y-22800D01*
G54D24*
X50600Y-22172D02*
X50600Y-22918D01*
X50600Y-22918D02*
X50800Y-23118D01*
G54D23*
X47225Y-24800D02*
X47417Y-24800D01*
X47700Y-25082D02*
X47558Y-24941D01*
X47800Y-25800D02*
X47800Y-26100D01*
X47700Y-25700D02*
X47700Y-25100D01*
X47800Y-25800D02*
X47700Y-25700D01*
X47700Y-25100D02*
X47700Y-25082D01*
X47417Y-24800D02*
X47558Y-24941D01*
X51300Y-26200D02*
X51300Y-27200D01*
X50800Y-23200D02*
X50500Y-23500D01*
X50500Y-23500D02*
X50500Y-24000D01*
X50500Y-24000D02*
X51500Y-25000D01*
X51500Y-25000D02*
X51500Y-25900D01*
X51300Y-26200D02*
X51500Y-26000D01*
X51500Y-26000D02*
X51500Y-25900D01*
X47800Y-26100D02*
X48100Y-26400D01*
X50800Y-23200D02*
X50800Y-23118D01*
X48100Y-27200D02*
X48100Y-26400D01*
X48300Y-27400D02*
X48100Y-27200D01*
X48900Y-27400D02*
X48300Y-27400D01*
X49100Y-27600D02*
X48900Y-27400D01*
X49100Y-27800D02*
X49100Y-27600D01*
X49200Y-27900D02*
X49100Y-27800D01*
X49800Y-27900D02*
X49200Y-27900D01*
X49900Y-27800D02*
X49800Y-27900D01*
X49900Y-27600D02*
X49900Y-27800D01*
X50100Y-27400D02*
X49900Y-27600D01*
X51100Y-27400D02*
X50100Y-27400D01*
X51300Y-27200D02*
X51100Y-27400D01*
X48975Y-24800D02*
X48975Y-25275D01*
X48975Y-25275D02*
X49000Y-25300D01*
X49000Y-25300D02*
X48400Y-25900D01*
X48400Y-26800D02*
X48400Y-25900D01*
X48400Y-25900D02*
X48400Y-26100D01*
X51500Y-23700D02*
X51300Y-23900D01*
X51300Y-23900D02*
X50900Y-23900D01*
X52100Y-22500D02*
X51500Y-23100D01*
X52000Y-21800D02*
X52100Y-21900D01*
X52100Y-21900D02*
X52100Y-22500D01*
X52000Y-21400D02*
X52000Y-21800D01*
X51500Y-23100D02*
X51500Y-23700D01*
X47700Y-24200D02*
X48000Y-24500D01*
X47600Y-24200D02*
X47225Y-24200D01*
X47600Y-24200D02*
X47700Y-24200D01*
X52000Y-21400D02*
X52000Y-21000D01*
X52000Y-21000D02*
X51500Y-20500D01*
X49400Y-23100D02*
X49400Y-22700D01*
X49300Y-22800D02*
X49400Y-22700D01*
X49300Y-22800D02*
X48900Y-22800D01*
X47700Y-24800D02*
X47800Y-24900D01*
X47500Y-24600D02*
X47700Y-24800D01*
X47225Y-24600D02*
X47500Y-24600D01*
X47800Y-24900D02*
X48300Y-24900D01*
X47225Y-24400D02*
X47225Y-24600D01*
X48300Y-24900D02*
X48300Y-25213D01*
X48300Y-25213D02*
X48113Y-25400D01*
X48600Y-24600D02*
X48300Y-24900D01*
X48600Y-24600D02*
X48975Y-24600D01*
X51785Y-26214D02*
X51785Y-26846D01*
X51800Y-26200D02*
X51785Y-26214D01*
X50800Y-26300D02*
X50000Y-26300D01*
X50000Y-26300D02*
X49800Y-26100D01*
X49200Y-26100D02*
X49000Y-25900D01*
X49800Y-26100D02*
X49200Y-26100D01*
X51785Y-26846D02*
X51785Y-30153D01*
X47200Y-26100D02*
X47200Y-25487D01*
X47200Y-25487D02*
X47287Y-25400D01*
G54D10*
G36*
X49960Y-20883D02*
X49688Y-21154D01*
X49551Y-21154D01*
X49539Y-21160D01*
X49460Y-21160D01*
X49460Y-21239D01*
X49455Y-21251D01*
X49454Y-21298D01*
X49454Y-21748D01*
X49460Y-21760D01*
X49460Y-21939D01*
X49455Y-21951D01*
X49454Y-21998D01*
X49454Y-22448D01*
X49460Y-22460D01*
X49460Y-23110D01*
X48510Y-23110D01*
X48510Y-23690D01*
X48783Y-23690D01*
X49103Y-24010D01*
X48470Y-24010D01*
X48458Y-24005D01*
X48345Y-24004D01*
X48220Y-23879D01*
X48165Y-23842D01*
X48100Y-23830D01*
X47870Y-23830D01*
X47847Y-23806D01*
X47847Y-23461D01*
X47869Y-23451D01*
X47903Y-23418D01*
X47921Y-23373D01*
X47922Y-23326D01*
X47922Y-23068D01*
X48070Y-22920D01*
X48070Y-22920D01*
X48070Y-22920D01*
X48095Y-22894D01*
X48208Y-22895D01*
X48316Y-22850D01*
X48399Y-22767D01*
X48444Y-22658D01*
X48445Y-22541D01*
X48400Y-22433D01*
X48317Y-22350D01*
X48208Y-22305D01*
X48190Y-22305D01*
X48190Y-21240D01*
X48716Y-21240D01*
X49040Y-20916D01*
X49040Y-20140D01*
X49960Y-20140D01*
X49960Y-20883D01*
X49960Y-20883D01*
G37*
G54D25*
X49960Y-20883D02*
X49688Y-21154D01*
X49551Y-21154D01*
X49539Y-21160D01*
X49460Y-21160D01*
X49460Y-21239D01*
X49455Y-21251D01*
X49454Y-21298D01*
X49454Y-21748D01*
X49460Y-21760D01*
X49460Y-21939D01*
X49455Y-21951D01*
X49454Y-21998D01*
X49454Y-22448D01*
X49460Y-22460D01*
X49460Y-23110D01*
X48510Y-23110D01*
X48510Y-23690D01*
X48783Y-23690D01*
X49103Y-24010D01*
X48470Y-24010D01*
X48458Y-24005D01*
X48345Y-24004D01*
X48220Y-23879D01*
X48165Y-23842D01*
X48100Y-23830D01*
X47870Y-23830D01*
X47847Y-23806D01*
X47847Y-23461D01*
X47869Y-23451D01*
X47903Y-23418D01*
X47921Y-23373D01*
X47922Y-23326D01*
X47922Y-23068D01*
X48070Y-22920D01*
X48070Y-22920D01*
X48070Y-22920D01*
X48095Y-22894D01*
X48208Y-22895D01*
X48316Y-22850D01*
X48399Y-22767D01*
X48444Y-22658D01*
X48445Y-22541D01*
X48400Y-22433D01*
X48317Y-22350D01*
X48208Y-22305D01*
X48190Y-22305D01*
X48190Y-21240D01*
X48716Y-21240D01*
X49040Y-20916D01*
X49040Y-20140D01*
X49960Y-20140D01*
X49960Y-20883D01*
G54D10*
G36*
X48880Y-20850D02*
X48650Y-21080D01*
X48030Y-21080D01*
X48030Y-21250D01*
X48029Y-21273D01*
X48029Y-22273D01*
X48030Y-22273D01*
X48030Y-22330D01*
X47983Y-22349D01*
X47900Y-22432D01*
X47855Y-22541D01*
X47854Y-22654D01*
X47829Y-22679D01*
X47829Y-22679D01*
X47779Y-22729D01*
X47778Y-22729D01*
X47550Y-22729D01*
X47550Y-22600D01*
X46950Y-22600D01*
X46950Y-23600D01*
X47430Y-23600D01*
X47430Y-24010D01*
X46940Y-24010D01*
X46940Y-20140D01*
X47167Y-20140D01*
X47084Y-20222D01*
X47010Y-20402D01*
X47009Y-20597D01*
X47084Y-20777D01*
X47222Y-20915D01*
X47402Y-20989D01*
X47597Y-20990D01*
X47777Y-20915D01*
X47915Y-20777D01*
X47989Y-20597D01*
X47990Y-20402D01*
X47915Y-20222D01*
X47832Y-20140D01*
X48880Y-20140D01*
X48880Y-20850D01*
X48880Y-20850D01*
G37*
G54D25*
X48880Y-20850D02*
X48650Y-21080D01*
X48030Y-21080D01*
X48030Y-21250D01*
X48029Y-21273D01*
X48029Y-22273D01*
X48030Y-22273D01*
X48030Y-22330D01*
X47983Y-22349D01*
X47900Y-22432D01*
X47855Y-22541D01*
X47854Y-22654D01*
X47829Y-22679D01*
X47829Y-22679D01*
X47779Y-22729D01*
X47778Y-22729D01*
X47550Y-22729D01*
X47550Y-22600D01*
X46950Y-22600D01*
X46950Y-23600D01*
X47430Y-23600D01*
X47430Y-24010D01*
X46940Y-24010D01*
X46940Y-20140D01*
X47167Y-20140D01*
X47084Y-20222D01*
X47010Y-20402D01*
X47009Y-20597D01*
X47084Y-20777D01*
X47222Y-20915D01*
X47402Y-20989D01*
X47597Y-20990D01*
X47777Y-20915D01*
X47915Y-20777D01*
X47989Y-20597D01*
X47990Y-20402D01*
X47915Y-20222D01*
X47832Y-20140D01*
X48880Y-20140D01*
X48880Y-20850D01*
G54D10*
G36*
X51930Y-22160D02*
X51927Y-22160D01*
X51918Y-22150D01*
X51873Y-22132D01*
X51826Y-22131D01*
X51326Y-22131D01*
X51282Y-22150D01*
X51272Y-22160D01*
X51172Y-22160D01*
X51172Y-22026D01*
X51154Y-21982D01*
X51120Y-21948D01*
X51076Y-21930D01*
X51028Y-21930D01*
X50123Y-21930D01*
X50079Y-21948D01*
X50045Y-21982D01*
X50027Y-22026D01*
X50027Y-22074D01*
X50027Y-22318D01*
X50045Y-22362D01*
X50060Y-22376D01*
X50060Y-22460D01*
X49620Y-22460D01*
X49620Y-21320D01*
X49749Y-21320D01*
X50120Y-20949D01*
X50120Y-20140D01*
X51000Y-20140D01*
X51167Y-20140D01*
X51084Y-20222D01*
X51010Y-20402D01*
X51009Y-20597D01*
X51084Y-20777D01*
X51222Y-20915D01*
X51402Y-20989D01*
X51597Y-20990D01*
X51705Y-20945D01*
X51825Y-21065D01*
X51807Y-21073D01*
X51773Y-21106D01*
X51755Y-21151D01*
X51754Y-21198D01*
X51754Y-21648D01*
X51773Y-21692D01*
X51806Y-21726D01*
X51830Y-21736D01*
X51830Y-21800D01*
X51842Y-21865D01*
X51879Y-21920D01*
X51930Y-21970D01*
X51930Y-22160D01*
X51930Y-22160D01*
G37*
G54D25*
X51930Y-22160D02*
X51927Y-22160D01*
X51918Y-22150D01*
X51873Y-22132D01*
X51826Y-22131D01*
X51326Y-22131D01*
X51282Y-22150D01*
X51272Y-22160D01*
X51172Y-22160D01*
X51172Y-22026D01*
X51154Y-21982D01*
X51120Y-21948D01*
X51076Y-21930D01*
X51028Y-21930D01*
X50123Y-21930D01*
X50079Y-21948D01*
X50045Y-21982D01*
X50027Y-22026D01*
X50027Y-22074D01*
X50027Y-22318D01*
X50045Y-22362D01*
X50060Y-22376D01*
X50060Y-22460D01*
X49620Y-22460D01*
X49620Y-21320D01*
X49749Y-21320D01*
X50120Y-20949D01*
X50120Y-20140D01*
X51000Y-20140D01*
X51167Y-20140D01*
X51084Y-20222D01*
X51010Y-20402D01*
X51009Y-20597D01*
X51084Y-20777D01*
X51222Y-20915D01*
X51402Y-20989D01*
X51597Y-20990D01*
X51705Y-20945D01*
X51825Y-21065D01*
X51807Y-21073D01*
X51773Y-21106D01*
X51755Y-21151D01*
X51754Y-21198D01*
X51754Y-21648D01*
X51773Y-21692D01*
X51806Y-21726D01*
X51830Y-21736D01*
X51830Y-21800D01*
X51842Y-21865D01*
X51879Y-21920D01*
X51930Y-21970D01*
X51930Y-22160D01*
G54D10*
G36*
X51260Y-25810D02*
X50366Y-25810D01*
X49440Y-24883D01*
X49440Y-24333D01*
X49316Y-24210D01*
X48840Y-24210D01*
X48840Y-24190D01*
X50333Y-24190D01*
X51260Y-25116D01*
X51260Y-25810D01*
X51260Y-25810D01*
G37*
G54D25*
X51260Y-25810D02*
X50366Y-25810D01*
X49440Y-24883D01*
X49440Y-24333D01*
X49316Y-24210D01*
X48840Y-24210D01*
X48840Y-24190D01*
X50333Y-24190D01*
X51260Y-25116D01*
X51260Y-25810D01*
G54D10*
G36*
X52060Y-25810D02*
X51420Y-25810D01*
X51420Y-25050D01*
X50399Y-24030D01*
X49440Y-24030D01*
X49440Y-24010D01*
X49329Y-24010D01*
X49292Y-23972D01*
X49292Y-23923D01*
X49273Y-23879D01*
X49240Y-23845D01*
X49195Y-23827D01*
X49148Y-23826D01*
X49146Y-23826D01*
X48849Y-23530D01*
X48670Y-23530D01*
X48670Y-23270D01*
X49152Y-23270D01*
X49232Y-23349D01*
X49341Y-23394D01*
X49458Y-23395D01*
X49566Y-23350D01*
X49649Y-23267D01*
X49694Y-23158D01*
X49695Y-23041D01*
X49650Y-22933D01*
X49620Y-22902D01*
X49620Y-22897D01*
X49649Y-22867D01*
X49694Y-22758D01*
X49695Y-22641D01*
X49686Y-22620D01*
X50220Y-22620D01*
X50220Y-22320D01*
X51930Y-22320D01*
X51930Y-22429D01*
X51379Y-22979D01*
X51342Y-23034D01*
X51330Y-23100D01*
X51330Y-23629D01*
X51229Y-23730D01*
X51147Y-23730D01*
X51067Y-23650D01*
X50958Y-23605D01*
X50841Y-23604D01*
X50733Y-23649D01*
X50650Y-23732D01*
X50605Y-23841D01*
X50604Y-23958D01*
X50649Y-24066D01*
X50732Y-24149D01*
X50841Y-24194D01*
X50958Y-24195D01*
X51066Y-24150D01*
X51147Y-24070D01*
X51300Y-24070D01*
X51365Y-24057D01*
X51365Y-24057D01*
X51420Y-24020D01*
X51620Y-23820D01*
X51620Y-23820D01*
X51620Y-23820D01*
X51657Y-23765D01*
X51670Y-23700D01*
X51670Y-23170D01*
X52060Y-22780D01*
X52060Y-25810D01*
X52060Y-25810D01*
G37*
G54D25*
X52060Y-25810D02*
X51420Y-25810D01*
X51420Y-25050D01*
X50399Y-24030D01*
X49440Y-24030D01*
X49440Y-24010D01*
X49329Y-24010D01*
X49292Y-23972D01*
X49292Y-23923D01*
X49273Y-23879D01*
X49240Y-23845D01*
X49195Y-23827D01*
X49148Y-23826D01*
X49146Y-23826D01*
X48849Y-23530D01*
X48670Y-23530D01*
X48670Y-23270D01*
X49152Y-23270D01*
X49232Y-23349D01*
X49341Y-23394D01*
X49458Y-23395D01*
X49566Y-23350D01*
X49649Y-23267D01*
X49694Y-23158D01*
X49695Y-23041D01*
X49650Y-22933D01*
X49620Y-22902D01*
X49620Y-22897D01*
X49649Y-22867D01*
X49694Y-22758D01*
X49695Y-22641D01*
X49686Y-22620D01*
X50220Y-22620D01*
X50220Y-22320D01*
X51930Y-22320D01*
X51930Y-22429D01*
X51379Y-22979D01*
X51342Y-23034D01*
X51330Y-23100D01*
X51330Y-23629D01*
X51229Y-23730D01*
X51147Y-23730D01*
X51067Y-23650D01*
X50958Y-23605D01*
X50841Y-23604D01*
X50733Y-23649D01*
X50650Y-23732D01*
X50605Y-23841D01*
X50604Y-23958D01*
X50649Y-24066D01*
X50732Y-24149D01*
X50841Y-24194D01*
X50958Y-24195D01*
X51066Y-24150D01*
X51147Y-24070D01*
X51300Y-24070D01*
X51365Y-24057D01*
X51365Y-24057D01*
X51420Y-24020D01*
X51620Y-23820D01*
X51620Y-23820D01*
X51620Y-23820D01*
X51657Y-23765D01*
X51670Y-23700D01*
X51670Y-23170D01*
X52060Y-22780D01*
X52060Y-25810D01*
G54D10*
G36*
X47510Y-22737D02*
X47500Y-22741D01*
X47471Y-22729D01*
X47363Y-22730D01*
X47333Y-22760D01*
X47333Y-23090D01*
X47340Y-23090D01*
X47340Y-23110D01*
X47333Y-23110D01*
X47333Y-23440D01*
X47363Y-23470D01*
X47430Y-23470D01*
X47430Y-23560D01*
X47313Y-23560D01*
X47313Y-23440D01*
X47313Y-23110D01*
X47313Y-23090D01*
X47313Y-22760D01*
X47283Y-22730D01*
X47174Y-22729D01*
X47130Y-22748D01*
X47096Y-22781D01*
X47078Y-22826D01*
X47077Y-22873D01*
X47078Y-23060D01*
X47108Y-23090D01*
X47313Y-23090D01*
X47313Y-23110D01*
X47108Y-23110D01*
X47078Y-23140D01*
X47077Y-23326D01*
X47078Y-23373D01*
X47096Y-23418D01*
X47130Y-23451D01*
X47174Y-23470D01*
X47283Y-23470D01*
X47313Y-23440D01*
X47313Y-23560D01*
X46990Y-23560D01*
X46990Y-22640D01*
X47510Y-22640D01*
X47510Y-22737D01*
X47510Y-22737D01*
G37*
G54D25*
X47510Y-22737D02*
X47500Y-22741D01*
X47471Y-22729D01*
X47363Y-22730D01*
X47333Y-22760D01*
X47333Y-23090D01*
X47340Y-23090D01*
X47340Y-23110D01*
X47333Y-23110D01*
X47333Y-23440D01*
X47363Y-23470D01*
X47430Y-23470D01*
X47430Y-23560D01*
X47313Y-23560D01*
X47313Y-23440D01*
X47313Y-23110D01*
X47313Y-23090D01*
X47313Y-22760D01*
X47283Y-22730D01*
X47174Y-22729D01*
X47130Y-22748D01*
X47096Y-22781D01*
X47078Y-22826D01*
X47077Y-22873D01*
X47078Y-23060D01*
X47108Y-23090D01*
X47313Y-23090D01*
X47313Y-23110D01*
X47108Y-23110D01*
X47078Y-23140D01*
X47077Y-23326D01*
X47078Y-23373D01*
X47096Y-23418D01*
X47130Y-23451D01*
X47174Y-23470D01*
X47283Y-23470D01*
X47313Y-23440D01*
X47313Y-23560D01*
X46990Y-23560D01*
X46990Y-22640D01*
X47510Y-22640D01*
X47510Y-22737D01*
G54D10*
G36*
X49280Y-24694D02*
X49273Y-24679D01*
X49240Y-24645D01*
X49195Y-24627D01*
X49148Y-24626D01*
X48754Y-24626D01*
X48710Y-24645D01*
X48676Y-24678D01*
X48658Y-24723D01*
X48657Y-24770D01*
X48657Y-24876D01*
X48676Y-24920D01*
X48709Y-24954D01*
X48754Y-24972D01*
X48801Y-24973D01*
X48805Y-24973D01*
X48805Y-25054D01*
X48751Y-25054D01*
X48707Y-25073D01*
X48673Y-25106D01*
X48655Y-25151D01*
X48654Y-25198D01*
X48654Y-25404D01*
X48279Y-25779D01*
X48242Y-25834D01*
X48230Y-25900D01*
X48230Y-26100D01*
X48230Y-26294D01*
X48220Y-26279D01*
X48220Y-26279D01*
X48045Y-26104D01*
X48045Y-25851D01*
X48026Y-25807D01*
X47993Y-25773D01*
X47962Y-25760D01*
X47957Y-25734D01*
X47920Y-25679D01*
X47870Y-25629D01*
X47870Y-25100D01*
X47870Y-25082D01*
X47857Y-25017D01*
X47820Y-24962D01*
X47820Y-24962D01*
X47678Y-24821D01*
X47678Y-24821D01*
X47537Y-24679D01*
X47498Y-24653D01*
X47498Y-24653D01*
X47490Y-24645D01*
X47445Y-24627D01*
X47398Y-24626D01*
X47004Y-24626D01*
X46960Y-24645D01*
X46940Y-24665D01*
X46940Y-24334D01*
X46959Y-24354D01*
X47004Y-24372D01*
X47051Y-24373D01*
X47445Y-24373D01*
X47453Y-24370D01*
X47600Y-24370D01*
X47629Y-24370D01*
X47705Y-24445D01*
X47704Y-24558D01*
X47749Y-24666D01*
X47832Y-24749D01*
X47941Y-24794D01*
X48058Y-24795D01*
X48166Y-24750D01*
X48249Y-24667D01*
X48288Y-24573D01*
X48341Y-24594D01*
X48458Y-24595D01*
X48566Y-24550D01*
X48590Y-24527D01*
X48634Y-24557D01*
X48700Y-24570D01*
X48746Y-24570D01*
X48754Y-24572D01*
X48801Y-24573D01*
X49195Y-24573D01*
X49239Y-24554D01*
X49273Y-24521D01*
X49280Y-24505D01*
X49280Y-24694D01*
X49280Y-24694D01*
G37*
G54D25*
X49280Y-24694D02*
X49273Y-24679D01*
X49240Y-24645D01*
X49195Y-24627D01*
X49148Y-24626D01*
X48754Y-24626D01*
X48710Y-24645D01*
X48676Y-24678D01*
X48658Y-24723D01*
X48657Y-24770D01*
X48657Y-24876D01*
X48676Y-24920D01*
X48709Y-24954D01*
X48754Y-24972D01*
X48801Y-24973D01*
X48805Y-24973D01*
X48805Y-25054D01*
X48751Y-25054D01*
X48707Y-25073D01*
X48673Y-25106D01*
X48655Y-25151D01*
X48654Y-25198D01*
X48654Y-25404D01*
X48279Y-25779D01*
X48242Y-25834D01*
X48230Y-25900D01*
X48230Y-26100D01*
X48230Y-26294D01*
X48220Y-26279D01*
X48220Y-26279D01*
X48045Y-26104D01*
X48045Y-25851D01*
X48026Y-25807D01*
X47993Y-25773D01*
X47962Y-25760D01*
X47957Y-25734D01*
X47920Y-25679D01*
X47870Y-25629D01*
X47870Y-25100D01*
X47870Y-25082D01*
X47857Y-25017D01*
X47820Y-24962D01*
X47820Y-24962D01*
X47678Y-24821D01*
X47678Y-24821D01*
X47537Y-24679D01*
X47498Y-24653D01*
X47498Y-24653D01*
X47490Y-24645D01*
X47445Y-24627D01*
X47398Y-24626D01*
X47004Y-24626D01*
X46960Y-24645D01*
X46940Y-24665D01*
X46940Y-24334D01*
X46959Y-24354D01*
X47004Y-24372D01*
X47051Y-24373D01*
X47445Y-24373D01*
X47453Y-24370D01*
X47600Y-24370D01*
X47629Y-24370D01*
X47705Y-24445D01*
X47704Y-24558D01*
X47749Y-24666D01*
X47832Y-24749D01*
X47941Y-24794D01*
X48058Y-24795D01*
X48166Y-24750D01*
X48249Y-24667D01*
X48288Y-24573D01*
X48341Y-24594D01*
X48458Y-24595D01*
X48566Y-24550D01*
X48590Y-24527D01*
X48634Y-24557D01*
X48700Y-24570D01*
X48746Y-24570D01*
X48754Y-24572D01*
X48801Y-24573D01*
X49195Y-24573D01*
X49239Y-24554D01*
X49273Y-24521D01*
X49280Y-24505D01*
X49280Y-24694D01*
G54D10*
G36*
X51289Y-25970D02*
X51179Y-26079D01*
X51142Y-26134D01*
X51130Y-26200D01*
X51130Y-26714D01*
X51126Y-26707D01*
X51093Y-26673D01*
X51048Y-26655D01*
X51001Y-26654D01*
X50551Y-26654D01*
X50507Y-26673D01*
X50473Y-26706D01*
X50463Y-26730D01*
X50409Y-26730D01*
X50409Y-26507D01*
X50391Y-26463D01*
X50357Y-26429D01*
X50313Y-26411D01*
X50265Y-26411D01*
X49714Y-26411D01*
X49670Y-26429D01*
X49636Y-26463D01*
X49618Y-26507D01*
X49618Y-26555D01*
X49618Y-26676D01*
X49500Y-26676D01*
X49381Y-26676D01*
X49381Y-26507D01*
X49363Y-26463D01*
X49329Y-26429D01*
X49285Y-26411D01*
X49237Y-26411D01*
X48686Y-26411D01*
X48642Y-26429D01*
X48608Y-26463D01*
X48601Y-26481D01*
X48593Y-26473D01*
X48570Y-26463D01*
X48570Y-26100D01*
X48570Y-25970D01*
X48995Y-25545D01*
X49248Y-25545D01*
X49280Y-25532D01*
X49280Y-25970D01*
X50300Y-25970D01*
X51289Y-25970D01*
X51289Y-25970D01*
G37*
G54D25*
X51289Y-25970D02*
X51179Y-26079D01*
X51142Y-26134D01*
X51130Y-26200D01*
X51130Y-26714D01*
X51126Y-26707D01*
X51093Y-26673D01*
X51048Y-26655D01*
X51001Y-26654D01*
X50551Y-26654D01*
X50507Y-26673D01*
X50473Y-26706D01*
X50463Y-26730D01*
X50409Y-26730D01*
X50409Y-26507D01*
X50391Y-26463D01*
X50357Y-26429D01*
X50313Y-26411D01*
X50265Y-26411D01*
X49714Y-26411D01*
X49670Y-26429D01*
X49636Y-26463D01*
X49618Y-26507D01*
X49618Y-26555D01*
X49618Y-26676D01*
X49500Y-26676D01*
X49381Y-26676D01*
X49381Y-26507D01*
X49363Y-26463D01*
X49329Y-26429D01*
X49285Y-26411D01*
X49237Y-26411D01*
X48686Y-26411D01*
X48642Y-26429D01*
X48608Y-26463D01*
X48601Y-26481D01*
X48593Y-26473D01*
X48570Y-26463D01*
X48570Y-26100D01*
X48570Y-25970D01*
X48995Y-25545D01*
X49248Y-25545D01*
X49280Y-25532D01*
X49280Y-25970D01*
X50300Y-25970D01*
X51289Y-25970D01*
G54D10*
G36*
X52060Y-30460D02*
X51295Y-30460D01*
X51295Y-30444D01*
X51295Y-29814D01*
X51277Y-29770D01*
X51243Y-29736D01*
X51199Y-29718D01*
X51151Y-29718D01*
X50600Y-29718D01*
X50556Y-29736D01*
X50522Y-29770D01*
X50504Y-29814D01*
X50504Y-29862D01*
X50504Y-30460D01*
X50409Y-30460D01*
X50409Y-30444D01*
X50409Y-29814D01*
X50391Y-29770D01*
X50357Y-29736D01*
X50313Y-29718D01*
X50265Y-29718D01*
X49714Y-29718D01*
X49670Y-29736D01*
X49670Y-29737D01*
X49670Y-28747D01*
X49749Y-28667D01*
X49794Y-28558D01*
X49795Y-28441D01*
X49750Y-28333D01*
X49667Y-28250D01*
X49558Y-28205D01*
X49441Y-28204D01*
X49333Y-28249D01*
X49250Y-28332D01*
X49205Y-28441D01*
X49204Y-28558D01*
X49249Y-28666D01*
X49330Y-28747D01*
X49330Y-29737D01*
X49329Y-29736D01*
X49285Y-29718D01*
X49237Y-29718D01*
X48686Y-29718D01*
X48642Y-29736D01*
X48608Y-29770D01*
X48590Y-29814D01*
X48590Y-29862D01*
X48590Y-30460D01*
X48495Y-30460D01*
X48495Y-30444D01*
X48495Y-29814D01*
X48477Y-29770D01*
X48443Y-29736D01*
X48399Y-29718D01*
X48351Y-29718D01*
X47800Y-29718D01*
X47756Y-29736D01*
X47722Y-29770D01*
X47704Y-29814D01*
X47704Y-29862D01*
X47704Y-30460D01*
X47609Y-30460D01*
X47609Y-30444D01*
X47609Y-29814D01*
X47591Y-29770D01*
X47557Y-29736D01*
X47513Y-29718D01*
X47465Y-29718D01*
X47384Y-29718D01*
X47384Y-27670D01*
X47452Y-27670D01*
X47532Y-27749D01*
X47641Y-27794D01*
X47758Y-27795D01*
X47866Y-27750D01*
X47949Y-27667D01*
X47994Y-27558D01*
X47995Y-27441D01*
X47970Y-27380D01*
X47970Y-27305D01*
X47979Y-27320D01*
X48179Y-27520D01*
X48179Y-27520D01*
X48234Y-27557D01*
X48300Y-27570D01*
X48829Y-27570D01*
X48930Y-27670D01*
X48930Y-27800D01*
X48942Y-27865D01*
X48979Y-27920D01*
X49079Y-28020D01*
X49134Y-28057D01*
X49200Y-28070D01*
X49800Y-28070D01*
X49865Y-28057D01*
X49865Y-28057D01*
X49920Y-28020D01*
X50020Y-27920D01*
X50057Y-27865D01*
X50070Y-27800D01*
X50070Y-27670D01*
X50170Y-27570D01*
X51100Y-27570D01*
X51165Y-27557D01*
X51165Y-27557D01*
X51220Y-27520D01*
X51420Y-27320D01*
X51420Y-27320D01*
X51420Y-27320D01*
X51457Y-27265D01*
X51470Y-27200D01*
X51470Y-26270D01*
X51620Y-26120D01*
X51620Y-26120D01*
X51620Y-26120D01*
X51657Y-26065D01*
X51670Y-26000D01*
X51670Y-25970D01*
X52060Y-25970D01*
X52060Y-30460D01*
X52060Y-30460D01*
G37*
G54D25*
X52060Y-30460D02*
X51295Y-30460D01*
X51295Y-30444D01*
X51295Y-29814D01*
X51277Y-29770D01*
X51243Y-29736D01*
X51199Y-29718D01*
X51151Y-29718D01*
X50600Y-29718D01*
X50556Y-29736D01*
X50522Y-29770D01*
X50504Y-29814D01*
X50504Y-29862D01*
X50504Y-30460D01*
X50409Y-30460D01*
X50409Y-30444D01*
X50409Y-29814D01*
X50391Y-29770D01*
X50357Y-29736D01*
X50313Y-29718D01*
X50265Y-29718D01*
X49714Y-29718D01*
X49670Y-29736D01*
X49670Y-29737D01*
X49670Y-28747D01*
X49749Y-28667D01*
X49794Y-28558D01*
X49795Y-28441D01*
X49750Y-28333D01*
X49667Y-28250D01*
X49558Y-28205D01*
X49441Y-28204D01*
X49333Y-28249D01*
X49250Y-28332D01*
X49205Y-28441D01*
X49204Y-28558D01*
X49249Y-28666D01*
X49330Y-28747D01*
X49330Y-29737D01*
X49329Y-29736D01*
X49285Y-29718D01*
X49237Y-29718D01*
X48686Y-29718D01*
X48642Y-29736D01*
X48608Y-29770D01*
X48590Y-29814D01*
X48590Y-29862D01*
X48590Y-30460D01*
X48495Y-30460D01*
X48495Y-30444D01*
X48495Y-29814D01*
X48477Y-29770D01*
X48443Y-29736D01*
X48399Y-29718D01*
X48351Y-29718D01*
X47800Y-29718D01*
X47756Y-29736D01*
X47722Y-29770D01*
X47704Y-29814D01*
X47704Y-29862D01*
X47704Y-30460D01*
X47609Y-30460D01*
X47609Y-30444D01*
X47609Y-29814D01*
X47591Y-29770D01*
X47557Y-29736D01*
X47513Y-29718D01*
X47465Y-29718D01*
X47384Y-29718D01*
X47384Y-27670D01*
X47452Y-27670D01*
X47532Y-27749D01*
X47641Y-27794D01*
X47758Y-27795D01*
X47866Y-27750D01*
X47949Y-27667D01*
X47994Y-27558D01*
X47995Y-27441D01*
X47970Y-27380D01*
X47970Y-27305D01*
X47979Y-27320D01*
X48179Y-27520D01*
X48179Y-27520D01*
X48234Y-27557D01*
X48300Y-27570D01*
X48829Y-27570D01*
X48930Y-27670D01*
X48930Y-27800D01*
X48942Y-27865D01*
X48979Y-27920D01*
X49079Y-28020D01*
X49134Y-28057D01*
X49200Y-28070D01*
X49800Y-28070D01*
X49865Y-28057D01*
X49865Y-28057D01*
X49920Y-28020D01*
X50020Y-27920D01*
X50057Y-27865D01*
X50070Y-27800D01*
X50070Y-27670D01*
X50170Y-27570D01*
X51100Y-27570D01*
X51165Y-27557D01*
X51165Y-27557D01*
X51220Y-27520D01*
X51420Y-27320D01*
X51420Y-27320D01*
X51420Y-27320D01*
X51457Y-27265D01*
X51470Y-27200D01*
X51470Y-26270D01*
X51620Y-26120D01*
X51620Y-26120D01*
X51620Y-26120D01*
X51657Y-26065D01*
X51670Y-26000D01*
X51670Y-25970D01*
X52060Y-25970D01*
X52060Y-30460D01*
M02*
