G04 (created by PCBNEW (2013-07-07 BZR 4022)-stable) date 7/23/2013 8:12:12 PM*
%MOIN*%
G04 Gerber Fmt 3.4, Leading zero omitted, Abs format*
%FSLAX34Y34*%
G01*
G70*
G90*
G04 APERTURE LIST*
%ADD10C,0.00590551*%
%ADD11C,0.008*%
%ADD12C,0.00787402*%
%ADD13C,0.011811*%
%ADD14C,0.04*%
G04 APERTURE END LIST*
G54D10*
G54D11*
X52028Y-30069D02*
X51909Y-30402D01*
X51790Y-30069D01*
X51338Y-30402D02*
X51623Y-30402D01*
X51480Y-30402D02*
X51480Y-29902D01*
X51528Y-29973D01*
X51576Y-30021D01*
X51623Y-30045D01*
X51123Y-30354D02*
X51100Y-30378D01*
X51123Y-30402D01*
X51147Y-30378D01*
X51123Y-30354D01*
X51123Y-30402D01*
X50790Y-29902D02*
X50742Y-29902D01*
X50695Y-29926D01*
X50671Y-29950D01*
X50647Y-29997D01*
X50623Y-30092D01*
X50623Y-30211D01*
X50647Y-30307D01*
X50671Y-30354D01*
X50695Y-30378D01*
X50742Y-30402D01*
X50790Y-30402D01*
X50838Y-30378D01*
X50861Y-30354D01*
X50885Y-30307D01*
X50909Y-30211D01*
X50909Y-30092D01*
X50885Y-29997D01*
X50861Y-29950D01*
X50838Y-29926D01*
X50790Y-29902D01*
X47311Y-23409D02*
X47311Y-23790D01*
X47407Y-23695D02*
X47311Y-23790D01*
X47216Y-23695D01*
X47002Y-23980D02*
X47002Y-24290D01*
X47192Y-24123D01*
X47192Y-24195D01*
X47216Y-24242D01*
X47240Y-24266D01*
X47288Y-24290D01*
X47407Y-24290D01*
X47454Y-24266D01*
X47478Y-24242D01*
X47502Y-24195D01*
X47502Y-24052D01*
X47478Y-24004D01*
X47454Y-23980D01*
X47454Y-24504D02*
X47478Y-24528D01*
X47502Y-24504D01*
X47478Y-24480D01*
X47454Y-24504D01*
X47502Y-24504D01*
X47002Y-24695D02*
X47002Y-25004D01*
X47192Y-24838D01*
X47192Y-24909D01*
X47216Y-24957D01*
X47240Y-24980D01*
X47288Y-25004D01*
X47407Y-25004D01*
X47454Y-24980D01*
X47478Y-24957D01*
X47502Y-24909D01*
X47502Y-24766D01*
X47478Y-24719D01*
X47454Y-24695D01*
X47311Y-25219D02*
X47311Y-25600D01*
X47502Y-26100D02*
X47502Y-25814D01*
X47502Y-25957D02*
X47002Y-25957D01*
X47073Y-25909D01*
X47121Y-25861D01*
X47145Y-25814D01*
X47502Y-26576D02*
X47502Y-26290D01*
X47502Y-26433D02*
X47002Y-26433D01*
X47073Y-26385D01*
X47121Y-26338D01*
X47145Y-26290D01*
X47002Y-26719D02*
X47502Y-26885D01*
X47002Y-27052D01*
X48091Y-25361D02*
X48091Y-24980D01*
X48187Y-25076D02*
X48091Y-24980D01*
X47996Y-25076D01*
X47782Y-25552D02*
X47782Y-25861D01*
X47972Y-25695D01*
X47972Y-25766D01*
X47996Y-25814D01*
X48020Y-25838D01*
X48068Y-25861D01*
X48187Y-25861D01*
X48234Y-25838D01*
X48258Y-25814D01*
X48282Y-25766D01*
X48282Y-25623D01*
X48258Y-25576D01*
X48234Y-25552D01*
X48234Y-26076D02*
X48258Y-26100D01*
X48282Y-26076D01*
X48258Y-26052D01*
X48234Y-26076D01*
X48282Y-26076D01*
X47782Y-26266D02*
X47782Y-26576D01*
X47972Y-26409D01*
X47972Y-26480D01*
X47996Y-26528D01*
X48020Y-26552D01*
X48068Y-26576D01*
X48187Y-26576D01*
X48234Y-26552D01*
X48258Y-26528D01*
X48282Y-26480D01*
X48282Y-26338D01*
X48258Y-26290D01*
X48234Y-26266D01*
X47782Y-26719D02*
X48282Y-26885D01*
X47782Y-27052D01*
X48871Y-25361D02*
X48871Y-24980D01*
X48967Y-25076D02*
X48871Y-24980D01*
X48776Y-25076D01*
X48562Y-25695D02*
X48562Y-25742D01*
X48586Y-25790D01*
X48610Y-25814D01*
X48657Y-25838D01*
X48752Y-25861D01*
X48871Y-25861D01*
X48967Y-25838D01*
X49014Y-25814D01*
X49038Y-25790D01*
X49062Y-25742D01*
X49062Y-25695D01*
X49038Y-25647D01*
X49014Y-25623D01*
X48967Y-25600D01*
X48871Y-25576D01*
X48752Y-25576D01*
X48657Y-25600D01*
X48610Y-25623D01*
X48586Y-25647D01*
X48562Y-25695D01*
X49014Y-26076D02*
X49038Y-26100D01*
X49062Y-26076D01*
X49038Y-26052D01*
X49014Y-26076D01*
X49062Y-26076D01*
X48776Y-26385D02*
X48752Y-26338D01*
X48729Y-26314D01*
X48681Y-26290D01*
X48657Y-26290D01*
X48610Y-26314D01*
X48586Y-26338D01*
X48562Y-26385D01*
X48562Y-26480D01*
X48586Y-26528D01*
X48610Y-26552D01*
X48657Y-26576D01*
X48681Y-26576D01*
X48729Y-26552D01*
X48752Y-26528D01*
X48776Y-26480D01*
X48776Y-26385D01*
X48800Y-26338D01*
X48824Y-26314D01*
X48871Y-26290D01*
X48967Y-26290D01*
X49014Y-26314D01*
X49038Y-26338D01*
X49062Y-26385D01*
X49062Y-26480D01*
X49038Y-26528D01*
X49014Y-26552D01*
X48967Y-26576D01*
X48871Y-26576D01*
X48824Y-26552D01*
X48800Y-26528D01*
X48776Y-26480D01*
X48919Y-26766D02*
X48919Y-27004D01*
X49062Y-26719D02*
X48562Y-26885D01*
X49062Y-27052D01*
X51602Y-23759D02*
X51364Y-23592D01*
X51602Y-23473D02*
X51102Y-23473D01*
X51102Y-23664D01*
X51126Y-23711D01*
X51150Y-23735D01*
X51197Y-23759D01*
X51269Y-23759D01*
X51316Y-23735D01*
X51340Y-23711D01*
X51364Y-23664D01*
X51364Y-23473D01*
X51578Y-24164D02*
X51602Y-24116D01*
X51602Y-24021D01*
X51578Y-23973D01*
X51530Y-23950D01*
X51340Y-23950D01*
X51292Y-23973D01*
X51269Y-24021D01*
X51269Y-24116D01*
X51292Y-24164D01*
X51340Y-24188D01*
X51388Y-24188D01*
X51435Y-23950D01*
X51269Y-24330D02*
X51269Y-24521D01*
X51602Y-24402D02*
X51173Y-24402D01*
X51126Y-24426D01*
X51102Y-24473D01*
X51102Y-24521D01*
X51578Y-24878D02*
X51602Y-24830D01*
X51602Y-24735D01*
X51578Y-24688D01*
X51530Y-24664D01*
X51340Y-24664D01*
X51292Y-24688D01*
X51269Y-24735D01*
X51269Y-24830D01*
X51292Y-24878D01*
X51340Y-24902D01*
X51388Y-24902D01*
X51435Y-24664D01*
X51602Y-25116D02*
X51269Y-25116D01*
X51364Y-25116D02*
X51316Y-25140D01*
X51292Y-25164D01*
X51269Y-25211D01*
X51269Y-25259D01*
X51578Y-25616D02*
X51602Y-25569D01*
X51602Y-25473D01*
X51578Y-25426D01*
X51530Y-25402D01*
X51340Y-25402D01*
X51292Y-25426D01*
X51269Y-25473D01*
X51269Y-25569D01*
X51292Y-25616D01*
X51340Y-25640D01*
X51388Y-25640D01*
X51435Y-25402D01*
X51269Y-25854D02*
X51602Y-25854D01*
X51316Y-25854D02*
X51292Y-25878D01*
X51269Y-25926D01*
X51269Y-25997D01*
X51292Y-26045D01*
X51340Y-26069D01*
X51602Y-26069D01*
X51578Y-26521D02*
X51602Y-26473D01*
X51602Y-26378D01*
X51578Y-26330D01*
X51554Y-26307D01*
X51507Y-26283D01*
X51364Y-26283D01*
X51316Y-26307D01*
X51292Y-26330D01*
X51269Y-26378D01*
X51269Y-26473D01*
X51292Y-26521D01*
X51578Y-26926D02*
X51602Y-26878D01*
X51602Y-26783D01*
X51578Y-26735D01*
X51530Y-26711D01*
X51340Y-26711D01*
X51292Y-26735D01*
X51269Y-26783D01*
X51269Y-26878D01*
X51292Y-26926D01*
X51340Y-26950D01*
X51388Y-26950D01*
X51435Y-26711D01*
G54D12*
X49000Y-20100D02*
X49000Y-23200D01*
X50000Y-23200D02*
X50100Y-23200D01*
X50000Y-20100D02*
X50000Y-23200D01*
X47000Y-22800D02*
X47000Y-20100D01*
X48000Y-22800D02*
X47000Y-22800D01*
X52000Y-22800D02*
X52000Y-22700D01*
X51000Y-22800D02*
X52000Y-22800D01*
X52000Y-22700D02*
X52000Y-20100D01*
X51000Y-23200D02*
X48000Y-23200D01*
G54D11*
X50302Y-23478D02*
X50302Y-23764D01*
X50802Y-23621D02*
X50302Y-23621D01*
X50802Y-23930D02*
X50302Y-23930D01*
X50302Y-24121D01*
X50326Y-24169D01*
X50350Y-24192D01*
X50397Y-24216D01*
X50469Y-24216D01*
X50516Y-24192D01*
X50540Y-24169D01*
X50564Y-24121D01*
X50564Y-23930D01*
X50778Y-24407D02*
X50802Y-24478D01*
X50802Y-24597D01*
X50778Y-24645D01*
X50754Y-24669D01*
X50707Y-24692D01*
X50659Y-24692D01*
X50611Y-24669D01*
X50588Y-24645D01*
X50564Y-24597D01*
X50540Y-24502D01*
X50516Y-24454D01*
X50492Y-24430D01*
X50445Y-24407D01*
X50397Y-24407D01*
X50350Y-24430D01*
X50326Y-24454D01*
X50302Y-24502D01*
X50302Y-24621D01*
X50326Y-24692D01*
X50302Y-25121D02*
X50302Y-25026D01*
X50326Y-24978D01*
X50350Y-24954D01*
X50421Y-24907D01*
X50516Y-24883D01*
X50707Y-24883D01*
X50754Y-24907D01*
X50778Y-24930D01*
X50802Y-24978D01*
X50802Y-25073D01*
X50778Y-25121D01*
X50754Y-25145D01*
X50707Y-25169D01*
X50588Y-25169D01*
X50540Y-25145D01*
X50516Y-25121D01*
X50492Y-25073D01*
X50492Y-24978D01*
X50516Y-24930D01*
X50540Y-24907D01*
X50588Y-24883D01*
X50350Y-25359D02*
X50326Y-25383D01*
X50302Y-25430D01*
X50302Y-25550D01*
X50326Y-25597D01*
X50350Y-25621D01*
X50397Y-25645D01*
X50445Y-25645D01*
X50516Y-25621D01*
X50802Y-25335D01*
X50802Y-25645D01*
X50302Y-25954D02*
X50302Y-26002D01*
X50326Y-26050D01*
X50350Y-26073D01*
X50397Y-26097D01*
X50492Y-26121D01*
X50611Y-26121D01*
X50707Y-26097D01*
X50754Y-26073D01*
X50778Y-26050D01*
X50802Y-26002D01*
X50802Y-25954D01*
X50778Y-25907D01*
X50754Y-25883D01*
X50707Y-25859D01*
X50611Y-25835D01*
X50492Y-25835D01*
X50397Y-25859D01*
X50350Y-25883D01*
X50326Y-25907D01*
X50302Y-25954D01*
X50302Y-26573D02*
X50302Y-26335D01*
X50540Y-26311D01*
X50516Y-26335D01*
X50492Y-26383D01*
X50492Y-26502D01*
X50516Y-26550D01*
X50540Y-26573D01*
X50588Y-26597D01*
X50707Y-26597D01*
X50754Y-26573D01*
X50778Y-26550D01*
X50802Y-26502D01*
X50802Y-26383D01*
X50778Y-26335D01*
X50754Y-26311D01*
X50302Y-27026D02*
X50302Y-26930D01*
X50326Y-26883D01*
X50350Y-26859D01*
X50421Y-26811D01*
X50516Y-26788D01*
X50707Y-26788D01*
X50754Y-26811D01*
X50778Y-26835D01*
X50802Y-26883D01*
X50802Y-26978D01*
X50778Y-27026D01*
X50754Y-27050D01*
X50707Y-27073D01*
X50588Y-27073D01*
X50540Y-27050D01*
X50516Y-27026D01*
X50492Y-26978D01*
X50492Y-26883D01*
X50516Y-26835D01*
X50540Y-26811D01*
X50588Y-26788D01*
G54D12*
X48000Y-20100D02*
X48000Y-23200D01*
X51000Y-20100D02*
X51000Y-23200D01*
X51900Y-27350D02*
X49900Y-27350D01*
X52050Y-29500D02*
X52050Y-27500D01*
X49900Y-29650D02*
X51900Y-29650D01*
X49750Y-27500D02*
X49750Y-29500D01*
X49750Y-29500D02*
G75*
G03X49900Y-29650I150J0D01*
G74*
G01*
X49900Y-27350D02*
G75*
G03X49750Y-27500I0J-150D01*
G74*
G01*
X52050Y-27500D02*
G75*
G03X51900Y-27350I-150J0D01*
G74*
G01*
X51900Y-29650D02*
G75*
G03X52050Y-29500I0J150D01*
G74*
G01*
G54D13*
X47748Y-28134D02*
X47748Y-28246D01*
X47776Y-28303D01*
X47832Y-28359D01*
X47945Y-28387D01*
X48142Y-28387D01*
X48254Y-28359D01*
X48310Y-28303D01*
X48339Y-28246D01*
X48339Y-28134D01*
X48310Y-28078D01*
X48254Y-28021D01*
X48142Y-27993D01*
X47945Y-27993D01*
X47832Y-28021D01*
X47776Y-28078D01*
X47748Y-28134D01*
X48339Y-28640D02*
X47748Y-28640D01*
X48339Y-28978D01*
X47748Y-28978D01*
X50548Y-27937D02*
X50548Y-28050D01*
X50576Y-28106D01*
X50632Y-28162D01*
X50745Y-28190D01*
X50942Y-28190D01*
X51054Y-28162D01*
X51110Y-28106D01*
X51139Y-28050D01*
X51139Y-27937D01*
X51110Y-27881D01*
X51054Y-27825D01*
X50942Y-27796D01*
X50745Y-27796D01*
X50632Y-27825D01*
X50576Y-27881D01*
X50548Y-27937D01*
X50829Y-28640D02*
X50829Y-28443D01*
X51139Y-28443D02*
X50548Y-28443D01*
X50548Y-28724D01*
X50829Y-29146D02*
X50829Y-28949D01*
X51139Y-28949D02*
X50548Y-28949D01*
X50548Y-29231D01*
G54D11*
X51752Y-21507D02*
X51752Y-21269D01*
X51252Y-21269D01*
X51490Y-21840D02*
X51514Y-21911D01*
X51538Y-21935D01*
X51585Y-21959D01*
X51657Y-21959D01*
X51704Y-21935D01*
X51728Y-21911D01*
X51752Y-21864D01*
X51752Y-21673D01*
X51252Y-21673D01*
X51252Y-21840D01*
X51276Y-21888D01*
X51300Y-21911D01*
X51347Y-21935D01*
X51395Y-21935D01*
X51442Y-21911D01*
X51466Y-21888D01*
X51490Y-21840D01*
X51490Y-21673D01*
X51252Y-22269D02*
X51252Y-22364D01*
X51276Y-22411D01*
X51323Y-22459D01*
X51419Y-22483D01*
X51585Y-22483D01*
X51680Y-22459D01*
X51728Y-22411D01*
X51752Y-22364D01*
X51752Y-22269D01*
X51728Y-22221D01*
X51680Y-22173D01*
X51585Y-22150D01*
X51419Y-22150D01*
X51323Y-22173D01*
X51276Y-22221D01*
X51252Y-22269D01*
X50252Y-21247D02*
X50752Y-21414D01*
X50252Y-21580D01*
X50252Y-21842D02*
X50252Y-21938D01*
X50276Y-21985D01*
X50323Y-22033D01*
X50419Y-22057D01*
X50585Y-22057D01*
X50680Y-22033D01*
X50728Y-21985D01*
X50752Y-21938D01*
X50752Y-21842D01*
X50728Y-21795D01*
X50680Y-21747D01*
X50585Y-21723D01*
X50419Y-21723D01*
X50323Y-21747D01*
X50276Y-21795D01*
X50252Y-21842D01*
X50252Y-22271D02*
X50657Y-22271D01*
X50704Y-22295D01*
X50728Y-22319D01*
X50752Y-22366D01*
X50752Y-22461D01*
X50728Y-22509D01*
X50704Y-22533D01*
X50657Y-22557D01*
X50252Y-22557D01*
X50252Y-22723D02*
X50252Y-23009D01*
X50752Y-22866D02*
X50252Y-22866D01*
X49276Y-21530D02*
X49252Y-21483D01*
X49252Y-21411D01*
X49276Y-21340D01*
X49323Y-21292D01*
X49371Y-21269D01*
X49466Y-21245D01*
X49538Y-21245D01*
X49633Y-21269D01*
X49680Y-21292D01*
X49728Y-21340D01*
X49752Y-21411D01*
X49752Y-21459D01*
X49728Y-21530D01*
X49704Y-21554D01*
X49538Y-21554D01*
X49538Y-21459D01*
X49752Y-21769D02*
X49252Y-21769D01*
X49752Y-22054D01*
X49252Y-22054D01*
X49752Y-22292D02*
X49252Y-22292D01*
X49252Y-22411D01*
X49276Y-22483D01*
X49323Y-22530D01*
X49371Y-22554D01*
X49466Y-22578D01*
X49538Y-22578D01*
X49633Y-22554D01*
X49680Y-22530D01*
X49728Y-22483D01*
X49752Y-22411D01*
X49752Y-22292D01*
X48252Y-21247D02*
X48752Y-21414D01*
X48252Y-21580D01*
X48752Y-21747D02*
X48252Y-21747D01*
X48752Y-21985D02*
X48252Y-21985D01*
X48752Y-22271D01*
X48252Y-22271D01*
X47490Y-21269D02*
X47490Y-21435D01*
X47752Y-21507D02*
X47752Y-21269D01*
X47252Y-21269D01*
X47252Y-21507D01*
X47752Y-21721D02*
X47252Y-21721D01*
X47752Y-22007D01*
X47252Y-22007D01*
G54D10*
G36*
X49100Y-29500D02*
X48700Y-29500D01*
X48700Y-29400D01*
X48700Y-27600D01*
X47400Y-27600D01*
X47400Y-29400D01*
X48700Y-29400D01*
X48700Y-29500D01*
X48500Y-29500D01*
X47600Y-29500D01*
X47400Y-29500D01*
X47100Y-29500D01*
X47100Y-27500D01*
X47400Y-27500D01*
X47600Y-27500D01*
X48500Y-27500D01*
X48700Y-27500D01*
X49100Y-27500D01*
X49100Y-29500D01*
X49100Y-29500D01*
G37*
G54D14*
X49100Y-29500D02*
X48700Y-29500D01*
X48700Y-29400D01*
X48700Y-27600D01*
X47400Y-27600D01*
X47400Y-29400D01*
X48700Y-29400D01*
X48700Y-29500D01*
X48500Y-29500D01*
X47600Y-29500D01*
X47400Y-29500D01*
X47100Y-29500D01*
X47100Y-27500D01*
X47400Y-27500D01*
X47600Y-27500D01*
X48500Y-27500D01*
X48700Y-27500D01*
X49100Y-27500D01*
X49100Y-29500D01*
M02*
