<?xml version="1.0" standalone="no"?>
 <!DOCTYPE svg PUBLIC "-//W3C//DTD SVG 1.1//EN" 
 "http://www.w3.org/Graphics/SVG/1.1/DTD/svg11.dtd"> 
<svg xmlns="http://www.w3.org/2000/svg" version="1.1" 
    width="41.9989cm" height="29.7002cm" viewBox="0 0 165350 116930 ">
<title>SVG Picture created as TPS62056_Reference-B_SilkS.svg date 2013/07/23 20:59:59 </title>
  <desc>Picture generated by PCBNEW </desc>
<g style="fill:#000000; fill-opacity:1;stroke:#000000; stroke-opacity:1;
stroke-linecap:round; stroke-linejoin:round; "
 transform="translate(0 0) scale(1 1)">
</g>
<g style="fill:#000000; fill-opacity:0.0; 
stroke:#000000; stroke-width:39.3701; stroke-opacity:1; 
stroke-linecap:round; stroke-linejoin:round;">
<path d="M4000 4000
L161350 4000
L161350 112930
L4000 112930
L4000 4000
" />
<path d="M4700 4700
L160650 4700
L160650 112230
L4700 112230
L4700 4700
" />
<path d="M26470 4000
L26470 4700
" />
<path d="M15382 4552
L15097 4552
" />
<path d="M15240 4552
L15240 4052
L15192 4123
L15144 4171
L15097 4195
" />
<path d="M26470 112930
L26470 112230
" />
<path d="M15382 112782
L15097 112782
" />
<path d="M15240 112782
L15240 112282
L15192 112353
L15144 112401
L15097 112425
" />
<path d="M48940 4000
L48940 4700
" />
<path d="M37567 4100
L37590 4076
L37638 4052
L37757 4052
L37805 4076
L37829 4100
L37852 4147
L37852 4195
L37829 4266
L37543 4552
L37852 4552
" />
<path d="M48940 112930
L48940 112230
" />
<path d="M37567 112330
L37590 112306
L37638 112282
L37757 112282
L37805 112306
L37829 112330
L37852 112377
L37852 112425
L37829 112496
L37543 112782
L37852 112782
" />
<path d="M71410 4000
L71410 4700
" />
<path d="M60013 4052
L60322 4052
L60156 4242
L60227 4242
L60275 4266
L60299 4290
L60322 4338
L60322 4457
L60299 4504
L60275 4528
L60227 4552
L60084 4552
L60037 4528
L60013 4504
" />
<path d="M71410 112930
L71410 112230
" />
<path d="M60013 112282
L60322 112282
L60156 112472
L60227 112472
L60275 112496
L60299 112520
L60322 112568
L60322 112687
L60299 112734
L60275 112758
L60227 112782
L60084 112782
L60037 112758
L60013 112734
" />
<path d="M93880 4000
L93880 4700
" />
<path d="M82745 4219
L82745 4552
" />
<path d="M82626 4028
L82507 4385
L82816 4385
" />
<path d="M93880 112930
L93880 112230
" />
<path d="M82745 112449
L82745 112782
" />
<path d="M82626 112258
L82507 112615
L82816 112615
" />
<path d="M116350 4000
L116350 4700
" />
<path d="M105239 4052
L105000 4052
L104977 4290
L105000 4266
L105048 4242
L105167 4242
L105215 4266
L105239 4290
L105262 4338
L105262 4457
L105239 4504
L105215 4528
L105167 4552
L105048 4552
L105000 4528
L104977 4504
" />
<path d="M116350 112930
L116350 112230
" />
<path d="M105239 112282
L105000 112282
L104977 112520
L105000 112496
L105048 112472
L105167 112472
L105215 112496
L105239 112520
L105262 112568
L105262 112687
L105239 112734
L105215 112758
L105167 112782
L105048 112782
L105000 112758
L104977 112734
" />
<path d="M138820 4000
L138820 4700
" />
<path d="M127685 4052
L127590 4052
L127542 4076
L127518 4100
L127470 4171
L127447 4266
L127447 4457
L127470 4504
L127494 4528
L127542 4552
L127637 4552
L127685 4528
L127709 4504
L127732 4457
L127732 4338
L127709 4290
L127685 4266
L127637 4242
L127542 4242
L127494 4266
L127470 4290
L127447 4338
" />
<path d="M138820 112930
L138820 112230
" />
<path d="M127685 112282
L127590 112282
L127542 112306
L127518 112330
L127470 112401
L127447 112496
L127447 112687
L127470 112734
L127494 112758
L127542 112782
L127637 112782
L127685 112758
L127709 112734
L127732 112687
L127732 112568
L127709 112520
L127685 112496
L127637 112472
L127542 112472
L127494 112496
L127470 112520
L127447 112568
" />
<path d="M149893 4052
L150226 4052
L150012 4552
" />
<path d="M149893 112282
L150226 112282
L150012 112782
" />
<path d="M4000 25780
L4700 25780
" />
<path d="M4230 14949
L4469 14949
" />
<path d="M4183 15092
L4350 14592
L4516 15092
" />
<path d="M161350 25780
L160650 25780
" />
<path d="M160880 14949
L161119 14949
" />
<path d="M160833 15092
L161000 14592
L161166 15092
" />
<path d="M4000 47560
L4700 47560
" />
<path d="M4385 36610
L4457 36634
L4480 36658
L4504 36705
L4504 36777
L4480 36824
L4457 36848
L4409 36872
L4219 36872
L4219 36372
L4385 36372
L4433 36396
L4457 36420
L4480 36467
L4480 36515
L4457 36562
L4433 36586
L4385 36610
L4219 36610
" />
<path d="M161350 47560
L160650 47560
" />
<path d="M161035 36610
L161107 36634
L161130 36658
L161154 36705
L161154 36777
L161130 36824
L161107 36848
L161059 36872
L160869 36872
L160869 36372
L161035 36372
L161083 36396
L161107 36420
L161130 36467
L161130 36515
L161107 36562
L161083 36586
L161035 36610
L160869 36610
" />
<path d="M4000 69340
L4700 69340
" />
<path d="M4504 58604
L4480 58628
L4409 58652
L4361 58652
L4290 58628
L4242 58580
L4219 58533
L4195 58438
L4195 58366
L4219 58271
L4242 58223
L4290 58176
L4361 58152
L4409 58152
L4480 58176
L4504 58200
" />
<path d="M161350 69340
L160650 69340
" />
<path d="M161154 58604
L161130 58628
L161059 58652
L161011 58652
L160940 58628
L160892 58580
L160869 58533
L160845 58438
L160845 58366
L160869 58271
L160892 58223
L160940 58176
L161011 58152
L161059 58152
L161130 58176
L161154 58200
" />
<path d="M4000 91120
L4700 91120
" />
<path d="M4219 80432
L4219 79932
L4338 79932
L4409 79956
L4457 80003
L4480 80051
L4504 80146
L4504 80218
L4480 80313
L4457 80360
L4409 80408
L4338 80432
L4219 80432
" />
<path d="M161350 91120
L160650 91120
" />
<path d="M160869 80432
L160869 79932
L160988 79932
L161059 79956
L161107 80003
L161130 80051
L161154 80146
L161154 80218
L161130 80313
L161107 80360
L161059 80408
L160988 80432
L160869 80432
" />
<path d="M4242 101950
L4409 101950
" />
<path d="M4480 102212
L4242 102212
L4242 101712
L4480 101712
" />
<path d="M160892 101950
L161059 101950
" />
<path d="M161130 102212
L160892 102212
L160892 101712
L161130 101712
" />
<path d="M127800 110672
L127875 110072
L128017 110072
L128100 110101
L128150 110158
L128171 110215
L128185 110330
L128175 110415
L128132 110530
L128096 110587
L128032 110644
L127942 110672
L127800 110672
" />
<path d="M128657 110672
L128696 110358
L128675 110301
L128621 110272
L128507 110272
L128446 110301
" />
<path d="M128660 110644
L128600 110672
L128457 110672
L128403 110644
L128382 110587
L128389 110530
L128425 110472
L128485 110444
L128628 110444
L128689 110415
" />
<path d="M128907 110272
L129135 110272
" />
<path d="M129017 110072
L128953 110587
L128975 110644
L129028 110672
L129085 110672
" />
<path d="M129517 110644
L129457 110672
L129342 110672
L129289 110644
L129267 110587
L129296 110358
L129332 110301
L129392 110272
L129507 110272
L129560 110301
L129582 110358
L129575 110415
L129282 110472
" />
<path d="M129807 110615
L129832 110644
L129800 110672
L129775 110644
L129807 110615
L129800 110672
" />
<path d="M129846 110301
L129871 110330
L129839 110358
L129814 110330
L129846 110301
L129839 110358
" />
<path d="M119392 111872
L119392 111272
" />
<path d="M119735 111872
L119478 111530
" />
<path d="M119735 111272
L119392 111615
" />
<path d="M119992 111872
L119992 111472
" />
<path d="M119992 111272
L119964 111301
L119992 111330
L120021 111301
L119992 111272
L119992 111330
" />
<path d="M120621 111815
L120592 111844
L120507 111872
L120450 111872
L120364 111844
L120307 111787
L120278 111730
L120250 111615
L120250 111530
L120278 111415
L120307 111358
L120364 111301
L120450 111272
L120507 111272
L120592 111301
L120621 111330
" />
<path d="M121135 111872
L121135 111558
L121107 111501
L121050 111472
L120935 111472
L120878 111501
" />
<path d="M121135 111844
L121078 111872
L120935 111872
L120878 111844
L120850 111787
L120850 111730
L120878 111672
L120935 111644
L121078 111644
L121135 111615
" />
<path d="M121678 111872
L121678 111272
" />
<path d="M121678 111844
L121621 111872
L121507 111872
L121450 111844
L121421 111815
L121392 111758
L121392 111587
L121421 111530
L121450 111501
L121507 111472
L121621 111472
L121678 111501
" />
<path d="M122421 111558
L122621 111558
" />
<path d="M122707 111872
L122421 111872
L122421 111272
L122707 111272
" />
<path d="M122964 111815
L122992 111844
L122964 111872
L122935 111844
L122964 111815
L122964 111872
" />
<path d="M123249 111872
L123249 111272
L123392 111272
L123478 111301
L123535 111358
L123564 111415
L123592 111530
L123592 111615
L123564 111730
L123535 111787
L123478 111844
L123392 111872
L123249 111872
" />
<path d="M123849 111815
L123878 111844
L123849 111872
L123821 111844
L123849 111815
L123849 111872
" />
<path d="M124107 111701
L124392 111701
" />
<path d="M124049 111872
L124249 111272
L124449 111872
" />
<path d="M124649 111815
L124678 111844
L124649 111872
L124621 111844
L124649 111815
L124649 111872
" />
<path d="M152942 110672
L152778 110387
" />
<path d="M152600 110672
L152675 110072
L152903 110072
L152957 110101
L152982 110130
L153003 110187
L152992 110272
L152957 110330
L152925 110358
L152864 110387
L152635 110387
" />
<path d="M153432 110644
L153371 110672
L153257 110672
L153203 110644
L153182 110587
L153210 110358
L153246 110301
L153307 110272
L153421 110272
L153475 110301
L153496 110358
L153489 110415
L153196 110472
" />
<path d="M153707 110272
L153800 110672
L153992 110272
" />
<path d="M154178 110615
L154203 110644
L154171 110672
L154146 110644
L154178 110615
L154171 110672
" />
<path d="M154217 110301
L154242 110330
L154210 110358
L154185 110330
L154217 110301
L154210 110358
" />
<path d="M119364 110644
L119450 110672
L119592 110672
L119650 110644
L119678 110615
L119707 110558
L119707 110501
L119678 110444
L119650 110415
L119592 110387
L119478 110358
L119421 110330
L119392 110301
L119364 110244
L119364 110187
L119392 110130
L119421 110101
L119478 110072
L119621 110072
L119707 110101
" />
<path d="M119964 110672
L119964 110272
" />
<path d="M119964 110072
L119935 110101
L119964 110130
L119992 110101
L119964 110072
L119964 110130
" />
<path d="M120192 110272
L120507 110272
L120192 110672
L120507 110672
" />
<path d="M120964 110644
L120907 110672
L120792 110672
L120735 110644
L120707 110587
L120707 110358
L120735 110301
L120792 110272
L120907 110272
L120964 110301
L120992 110358
L120992 110415
L120707 110472
" />
<path d="M121250 110615
L121278 110644
L121250 110672
L121221 110644
L121250 110615
L121250 110672
" />
<path d="M121250 110301
L121278 110330
L121250 110358
L121221 110330
L121250 110301
L121250 110358
" />
<path d="M121964 110501
L122250 110501
" />
<path d="M121907 110672
L122107 110072
L122307 110672
" />
<path d="M122450 110072
L122821 110072
L122621 110301
L122707 110301
L122764 110330
L122792 110358
L122821 110415
L122821 110558
L122792 110615
L122764 110644
L122707 110672
L122535 110672
L122478 110644
L122450 110615
" />
<path d="M152592 111872
L152592 111272
" />
<path d="M153135 111872
L153135 111272
" />
<path d="M153135 111844
L153078 111872
L152964 111872
L152907 111844
L152878 111815
L152850 111758
L152850 111587
L152878 111530
L152907 111501
L152964 111472
L153078 111472
L153135 111501
" />
<path d="M153421 111815
L153450 111844
L153421 111872
L153392 111844
L153421 111815
L153421 111872
" />
<path d="M153421 111501
L153450 111530
L153421 111558
L153392 111530
L153421 111501
L153421 111558
" />
<path d="M154478 111872
L154135 111872
" />
<path d="M154307 111872
L154307 111272
L154249 111358
L154192 111415
L154135 111444
" />
<path d="M155164 111244
L154650 112015
" />
<path d="M155678 111872
L155335 111872
" />
<path d="M155507 111872
L155507 111272
L155449 111358
L155392 111415
L155335 111444
" />
<path d="M119389 108872
L119732 108872
" />
<path d="M119485 109472
L119560 108872
" />
<path d="M119857 109472
L119907 109072
" />
<path d="M119932 108872
L119900 108901
L119925 108930
L119957 108901
L119932 108872
L119925 108930
" />
<path d="M120107 109072
L120335 109072
" />
<path d="M120217 108872
L120153 109387
L120175 109444
L120228 109472
L120285 109472
" />
<path d="M120571 109472
L120517 109444
L120496 109387
L120560 108872
" />
<path d="M121032 109444
L120971 109472
L120857 109472
L120803 109444
L120782 109387
L120810 109158
L120846 109101
L120907 109072
L121021 109072
L121075 109101
L121096 109158
L121089 109215
L120796 109272
" />
<path d="M121321 109415
L121346 109444
L121314 109472
L121289 109444
L121321 109415
L121314 109472
" />
<path d="M121360 109101
L121385 109130
L121353 109158
L121328 109130
L121360 109101
L121353 109158
" />
<path d="M119592 106758
L119392 106758
" />
<path d="M119392 107072
L119392 106472
L119678 106472
" />
<path d="M119907 107072
L119907 106672
" />
<path d="M119907 106472
L119878 106501
L119907 106530
L119935 106501
L119907 106472
L119907 106530
" />
<path d="M120278 107072
L120221 107044
L120192 106987
L120192 106472
" />
<path d="M120735 107044
L120678 107072
L120564 107072
L120507 107044
L120478 106987
L120478 106758
L120507 106701
L120564 106672
L120678 106672
L120735 106701
L120764 106758
L120764 106815
L120478 106872
" />
<path d="M121021 107015
L121050 107044
L121021 107072
L120992 107044
L121021 107015
L121021 107072
" />
<path d="M121021 106701
L121050 106730
L121021 106758
L120992 106730
L121021 106701
L121021 106758
" />
<path d="M121678 106472
L122021 106472
" />
<path d="M121850 107072
L121850 106472
" />
<path d="M122221 107072
L122221 106472
L122450 106472
L122507 106501
L122535 106530
L122564 106587
L122564 106672
L122535 106730
L122507 106758
L122450 106787
L122221 106787
" />
<path d="M122792 107044
L122878 107072
L123021 107072
L123078 107044
L123107 107015
L123135 106958
L123135 106901
L123107 106844
L123078 106815
L123021 106787
L122907 106758
L122850 106730
L122821 106701
L122792 106644
L122792 106587
L122821 106530
L122850 106501
L122907 106472
L123050 106472
L123135 106501
" />
<path d="M123650 106472
L123535 106472
L123478 106501
L123450 106530
L123392 106615
L123364 106730
L123364 106958
L123392 107015
L123421 107044
L123478 107072
L123592 107072
L123650 107044
L123678 107015
L123707 106958
L123707 106815
L123678 106758
L123650 106730
L123592 106701
L123478 106701
L123421 106730
L123392 106758
L123364 106815
" />
<path d="M123935 106530
L123964 106501
L124021 106472
L124164 106472
L124221 106501
L124250 106530
L124278 106587
L124278 106644
L124250 106730
L123907 107072
L124278 107072
" />
<path d="M124650 106472
L124707 106472
L124764 106501
L124792 106530
L124821 106587
L124850 106701
L124850 106844
L124821 106958
L124792 107015
L124764 107044
L124707 107072
L124650 107072
L124592 107044
L124564 107015
L124535 106958
L124507 106844
L124507 106701
L124535 106587
L124564 106530
L124592 106501
L124650 106472
" />
<path d="M125392 106472
L125107 106472
L125078 106758
L125107 106730
L125164 106701
L125307 106701
L125364 106730
L125392 106758
L125421 106815
L125421 106958
L125392 107015
L125364 107044
L125307 107072
L125164 107072
L125107 107044
L125078 107015
" />
<path d="M125935 106472
L125821 106472
L125764 106501
L125735 106530
L125678 106615
L125650 106730
L125650 106958
L125678 107015
L125707 107044
L125764 107072
L125878 107072
L125935 107044
L125964 107015
L125992 106958
L125992 106815
L125964 106758
L125935 106730
L125878 106701
L125764 106701
L125707 106730
L125678 106758
L125650 106815
" />
<path d="M126107 107130
L126564 107130
" />
<path d="M127050 107072
L126850 106787
" />
<path d="M126707 107072
L126707 106472
L126935 106472
L126992 106501
L127021 106530
L127050 106587
L127050 106672
L127021 106730
L126992 106758
L126935 106787
L126707 106787
" />
<path d="M127535 107044
L127478 107072
L127364 107072
L127307 107044
L127278 106987
L127278 106758
L127307 106701
L127364 106672
L127478 106672
L127535 106701
L127564 106758
L127564 106815
L127278 106872
" />
<path d="M127735 106672
L127964 106672
" />
<path d="M127821 107072
L127821 106558
L127850 106501
L127907 106472
L127964 106472
" />
<path d="M128392 107044
L128335 107072
L128221 107072
L128164 107044
L128135 106987
L128135 106758
L128164 106701
L128221 106672
L128335 106672
L128392 106701
L128421 106758
L128421 106815
L128135 106872
" />
<path d="M128678 107072
L128678 106672
" />
<path d="M128678 106787
L128707 106730
L128735 106701
L128792 106672
L128850 106672
" />
<path d="M129278 107044
L129221 107072
L129107 107072
L129050 107044
L129021 106987
L129021 106758
L129050 106701
L129107 106672
L129221 106672
L129278 106701
L129307 106758
L129307 106815
L129021 106872
" />
<path d="M129564 106672
L129564 107072
" />
<path d="M129564 106730
L129592 106701
L129650 106672
L129735 106672
L129792 106701
L129821 106758
L129821 107072
" />
<path d="M130364 107044
L130307 107072
L130192 107072
L130135 107044
L130107 107015
L130078 106958
L130078 106787
L130107 106730
L130135 106701
L130192 106672
L130307 106672
L130364 106701
" />
<path d="M130850 107044
L130792 107072
L130678 107072
L130621 107044
L130592 106987
L130592 106758
L130621 106701
L130678 106672
L130792 106672
L130850 106701
L130878 106758
L130878 106815
L130592 106872
" />
<path d="M131135 107015
L131164 107044
L131135 107072
L131107 107044
L131135 107015
L131135 107072
" />
<path d="M131421 107072
L131421 106472
" />
<path d="M131478 106844
L131650 107072
" />
<path d="M131650 106672
L131421 106901
" />
<path d="M131907 107072
L131907 106672
" />
<path d="M131907 106472
L131878 106501
L131907 106530
L131935 106501
L131907 106472
L131907 106530
" />
<path d="M132450 107044
L132392 107072
L132278 107072
L132221 107044
L132192 107015
L132164 106958
L132164 106787
L132192 106730
L132221 106701
L132278 106672
L132392 106672
L132450 106701
" />
<path d="M132964 107072
L132964 106758
L132935 106701
L132878 106672
L132764 106672
L132707 106701
" />
<path d="M132964 107044
L132907 107072
L132764 107072
L132707 107044
L132678 106987
L132678 106930
L132707 106872
L132764 106844
L132907 106844
L132964 106815
" />
<path d="M133507 107072
L133507 106472
" />
<path d="M133507 107044
L133450 107072
L133335 107072
L133278 107044
L133250 107015
L133221 106958
L133221 106787
L133250 106730
L133278 106701
L133335 106672
L133450 106672
L133507 106701
" />
<path d="M133650 107130
L134107 107130
" />
<path d="M134250 106672
L134250 107272
" />
<path d="M134250 106701
L134307 106672
L134421 106672
L134478 106701
L134507 106730
L134535 106787
L134535 106958
L134507 107015
L134478 107044
L134421 107072
L134307 107072
L134250 107044
" />
<path d="M135050 107044
L134992 107072
L134878 107072
L134821 107044
L134792 107015
L134764 106958
L134764 106787
L134792 106730
L134821 106701
L134878 106672
L134992 106672
L135050 106701
" />
<path d="M135307 107072
L135307 106472
" />
<path d="M135307 106701
L135364 106672
L135478 106672
L135535 106701
L135564 106730
L135592 106787
L135592 106958
L135564 107015
L135535 107044
L135478 107072
L135364 107072
L135307 107044
" />
<path d="M119364 108244
L119450 108272
L119592 108272
L119650 108244
L119678 108215
L119707 108158
L119707 108101
L119678 108044
L119650 108015
L119592 107987
L119478 107958
L119421 107930
L119392 107901
L119364 107844
L119364 107787
L119392 107730
L119421 107701
L119478 107672
L119621 107672
L119707 107701
" />
<path d="M119964 108272
L119964 107672
" />
<path d="M120221 108272
L120221 107958
L120192 107901
L120135 107872
L120050 107872
L119992 107901
L119964 107930
" />
<path d="M120735 108244
L120678 108272
L120564 108272
L120507 108244
L120478 108187
L120478 107958
L120507 107901
L120564 107872
L120678 107872
L120735 107901
L120764 107958
L120764 108015
L120478 108072
" />
<path d="M121250 108244
L121192 108272
L121078 108272
L121021 108244
L120992 108187
L120992 107958
L121021 107901
L121078 107872
L121192 107872
L121250 107901
L121278 107958
L121278 108015
L120992 108072
" />
<path d="M121450 107872
L121678 107872
" />
<path d="M121535 107672
L121535 108187
L121564 108244
L121621 108272
L121678 108272
" />
<path d="M121878 108215
L121907 108244
L121878 108272
L121850 108244
L121878 108215
L121878 108272
" />
<path d="M121878 107901
L121907 107930
L121878 107958
L121850 107930
L121878 107901
L121878 107958
" />
<path d="M118650 106230
L118650 112230
" />
<path d="M118650 106230
L160650 106230
" />
<path d="M118650 106230
L160650 106230
" />
<path d="M118650 108630
L160650 108630
" />
<path d="M151850 109830
L151850 112230
" />
<path d="M118650 111030
L160650 111030
" />
<path d="M118650 109830
L160650 109830
" />
<path d="M125250 109830
L125250 111030
" />
</g>
<g style="fill:#9F009F; fill-opacity:0.0; 
stroke:#9F009F; stroke-width:78.7402; stroke-opacity:1; 
stroke-linecap:round; stroke-linejoin:round;">
<path d="M51000 23300
L51000 20100
" />
<path d="M50000 23300
L50000 20100
" />
<path d="M49000 23300
L49000 20100
" />
<path d="M48000 23300
L48000 20100
" />
</g>
<g style="fill:#9F009F; fill-opacity:0.0; 
stroke:#9F009F; stroke-width:80; stroke-opacity:1; 
stroke-linecap:round; stroke-linejoin:round;">
<path d="M52028 30069
L51909 30402
L51790 30069
" />
<path d="M51338 30402
L51623 30402
" />
<path d="M51480 30402
L51480 29902
L51528 29973
L51576 30021
L51623 30045
" />
<path d="M51123 30354
L51100 30378
L51123 30402
L51147 30378
L51123 30354
L51123 30402
" />
<path d="M50790 29902
L50742 29902
L50695 29926
L50671 29950
L50647 29997
L50623 30092
L50623 30211
L50647 30307
L50671 30354
L50695 30378
L50742 30402
L50790 30402
L50838 30378
L50861 30354
L50885 30307
L50909 30211
L50909 30092
L50885 29997
L50861 29950
L50838 29926
L50790 29902
" />
<path d="M47311 23409
L47311 23790
" />
<path d="M47407 23695
L47311 23790
L47216 23695
" />
<path d="M47002 23980
L47002 24290
L47192 24123
L47192 24195
L47216 24242
L47240 24266
L47288 24290
L47407 24290
L47454 24266
L47478 24242
L47502 24195
L47502 24052
L47478 24004
L47454 23980
" />
<path d="M47454 24504
L47478 24528
L47502 24504
L47478 24480
L47454 24504
L47502 24504
" />
<path d="M47002 24695
L47002 25004
L47192 24838
L47192 24909
L47216 24957
L47240 24980
L47288 25004
L47407 25004
L47454 24980
L47478 24957
L47502 24909
L47502 24766
L47478 24719
L47454 24695
" />
<path d="M47311 25219
L47311 25600
" />
<path d="M47502 26100
L47502 25814
" />
<path d="M47502 25957
L47002 25957
L47073 25909
L47121 25861
L47145 25814
" />
<path d="M47502 26576
L47502 26290
" />
<path d="M47502 26433
L47002 26433
L47073 26385
L47121 26338
L47145 26290
" />
<path d="M47002 26719
L47502 26885
L47002 27052
" />
<path d="M48091 25361
L48091 24980
" />
<path d="M48187 25076
L48091 24980
L47996 25076
" />
<path d="M47782 25552
L47782 25861
L47972 25695
L47972 25766
L47996 25814
L48020 25838
L48068 25861
L48187 25861
L48234 25838
L48258 25814
L48282 25766
L48282 25623
L48258 25576
L48234 25552
" />
<path d="M48234 26076
L48258 26100
L48282 26076
L48258 26052
L48234 26076
L48282 26076
" />
<path d="M47782 26266
L47782 26576
L47972 26409
L47972 26480
L47996 26528
L48020 26552
L48068 26576
L48187 26576
L48234 26552
L48258 26528
L48282 26480
L48282 26338
L48258 26290
L48234 26266
" />
<path d="M47782 26719
L48282 26885
L47782 27052
" />
<path d="M48871 25361
L48871 24980
" />
<path d="M48967 25076
L48871 24980
L48776 25076
" />
<path d="M48562 25695
L48562 25742
L48586 25790
L48610 25814
L48657 25838
L48752 25861
L48871 25861
L48967 25838
L49014 25814
L49038 25790
L49062 25742
L49062 25695
L49038 25647
L49014 25623
L48967 25600
L48871 25576
L48752 25576
L48657 25600
L48610 25623
L48586 25647
L48562 25695
" />
<path d="M49014 26076
L49038 26100
L49062 26076
L49038 26052
L49014 26076
L49062 26076
" />
<path d="M48776 26385
L48752 26338
L48729 26314
L48681 26290
L48657 26290
L48610 26314
L48586 26338
L48562 26385
L48562 26480
L48586 26528
L48610 26552
L48657 26576
L48681 26576
L48729 26552
L48752 26528
L48776 26480
L48776 26385
L48800 26338
L48824 26314
L48871 26290
L48967 26290
L49014 26314
L49038 26338
L49062 26385
L49062 26480
L49038 26528
L49014 26552
L48967 26576
L48871 26576
L48824 26552
L48800 26528
L48776 26480
" />
<path d="M48919 26766
L48919 27004
" />
<path d="M49062 26719
L48562 26885
L49062 27052
" />
<path d="M51602 23759
L51364 23592
" />
<path d="M51602 23473
L51102 23473
L51102 23664
L51126 23711
L51150 23735
L51197 23759
L51269 23759
L51316 23735
L51340 23711
L51364 23664
L51364 23473
" />
<path d="M51578 24164
L51602 24116
L51602 24021
L51578 23973
L51530 23950
L51340 23950
L51292 23973
L51269 24021
L51269 24116
L51292 24164
L51340 24188
L51388 24188
L51435 23950
" />
<path d="M51269 24330
L51269 24521
" />
<path d="M51602 24402
L51173 24402
L51126 24426
L51102 24473
L51102 24521
" />
<path d="M51578 24878
L51602 24830
L51602 24735
L51578 24688
L51530 24664
L51340 24664
L51292 24688
L51269 24735
L51269 24830
L51292 24878
L51340 24902
L51388 24902
L51435 24664
" />
<path d="M51602 25116
L51269 25116
" />
<path d="M51364 25116
L51316 25140
L51292 25164
L51269 25211
L51269 25259
" />
<path d="M51578 25616
L51602 25569
L51602 25473
L51578 25426
L51530 25402
L51340 25402
L51292 25426
L51269 25473
L51269 25569
L51292 25616
L51340 25640
L51388 25640
L51435 25402
" />
<path d="M51269 25854
L51602 25854
" />
<path d="M51316 25854
L51292 25878
L51269 25926
L51269 25997
L51292 26045
L51340 26069
L51602 26069
" />
<path d="M51578 26521
L51602 26473
L51602 26378
L51578 26330
L51554 26307
L51507 26283
L51364 26283
L51316 26307
L51292 26330
L51269 26378
L51269 26473
L51292 26521
" />
<path d="M51578 26926
L51602 26878
L51602 26783
L51578 26735
L51530 26711
L51340 26711
L51292 26735
L51269 26783
L51269 26878
L51292 26926
L51340 26950
L51388 26950
L51435 26711
" />
</g>
<g style="fill:#9F009F; fill-opacity:0.0; 
stroke:#9F009F; stroke-width:78.7402; stroke-opacity:1; 
stroke-linecap:round; stroke-linejoin:round;">
<path d="M47000 22800
L47000 20100
" />
<path d="M48000 22800
L47000 22800
" />
<path d="M52000 22800
L52000 22700
" />
<path d="M51000 22800
L52000 22800
" />
<path d="M52000 22700
L52000 20100
" />
<path d="M51000 23300
L48000 23300
" />
</g>
<g style="fill:#9F009F; fill-opacity:0.0; 
stroke:#9F009F; stroke-width:80; stroke-opacity:1; 
stroke-linecap:round; stroke-linejoin:round;">
<path d="M50302 23478
L50302 23764
" />
<path d="M50802 23621
L50302 23621
" />
<path d="M50802 23930
L50302 23930
L50302 24121
L50326 24169
L50350 24192
L50397 24216
L50469 24216
L50516 24192
L50540 24169
L50564 24121
L50564 23930
" />
<path d="M50778 24407
L50802 24478
L50802 24597
L50778 24645
L50754 24669
L50707 24692
L50659 24692
L50611 24669
L50588 24645
L50564 24597
L50540 24502
L50516 24454
L50492 24430
L50445 24407
L50397 24407
L50350 24430
L50326 24454
L50302 24502
L50302 24621
L50326 24692
" />
<path d="M50302 25121
L50302 25026
L50326 24978
L50350 24954
L50421 24907
L50516 24883
L50707 24883
L50754 24907
L50778 24930
L50802 24978
L50802 25073
L50778 25121
L50754 25145
L50707 25169
L50588 25169
L50540 25145
L50516 25121
L50492 25073
L50492 24978
L50516 24930
L50540 24907
L50588 24883
" />
<path d="M50350 25359
L50326 25383
L50302 25430
L50302 25550
L50326 25597
L50350 25621
L50397 25645
L50445 25645
L50516 25621
L50802 25335
L50802 25645
" />
<path d="M50302 25954
L50302 26002
L50326 26050
L50350 26073
L50397 26097
L50492 26121
L50611 26121
L50707 26097
L50754 26073
L50778 26050
L50802 26002
L50802 25954
L50778 25907
L50754 25883
L50707 25859
L50611 25835
L50492 25835
L50397 25859
L50350 25883
L50326 25907
L50302 25954
" />
<path d="M50302 26573
L50302 26335
L50540 26311
L50516 26335
L50492 26383
L50492 26502
L50516 26550
L50540 26573
L50588 26597
L50707 26597
L50754 26573
L50778 26550
L50802 26502
L50802 26383
L50778 26335
L50754 26311
" />
<path d="M50302 27026
L50302 26930
L50326 26883
L50350 26859
L50421 26811
L50516 26788
L50707 26788
L50754 26811
L50778 26835
L50802 26883
L50802 26978
L50778 27026
L50754 27050
L50707 27073
L50588 27073
L50540 27050
L50516 27026
L50492 26978
L50492 26883
L50516 26835
L50540 26811
L50588 26788
" />
</g>
<g style="fill:#9F009F; fill-opacity:0.0; 
stroke:#9F009F; stroke-width:78.7402; stroke-opacity:1; 
stroke-linecap:round; stroke-linejoin:round;">
<path d="M51900 27350
L49900 27350
" />
<path d="M52050 29500
L52050 27500
" />
<path d="M49900 29650
L51900 29650
" />
<path d="M49750 27500
L49750 29500
" />
<path d="M49750 29500 A150 150 0.0 0 0 49900 29650 " />
<path d="M49900 27350 A150 150 0.0 0 0 49750 27500 " />
<path d="M52050 27500 A150 150 0.0 0 0 51900 27350 " />
<path d="M51900 29650 A150 150 0.0 0 0 52050 29500 " />
</g>
<g style="fill:#9F009F; fill-opacity:0.0; 
stroke:#9F009F; stroke-width:118.11; stroke-opacity:1; 
stroke-linecap:round; stroke-linejoin:round;">
<path d="M47748 28134
L47748 28246
L47776 28303
L47832 28359
L47945 28387
L48142 28387
L48254 28359
L48310 28303
L48339 28246
L48339 28134
L48310 28078
L48254 28021
L48142 27993
L47945 27993
L47832 28021
L47776 28078
L47748 28134
" />
<path d="M48339 28640
L47748 28640
L48339 28978
L47748 28978
" />
<path d="M50548 27937
L50548 28050
L50576 28106
L50632 28162
L50745 28190
L50942 28190
L51054 28162
L51110 28106
L51139 28050
L51139 27937
L51110 27881
L51054 27825
L50942 27796
L50745 27796
L50632 27825
L50576 27881
L50548 27937
" />
<path d="M50829 28640
L50829 28443
" />
<path d="M51139 28443
L50548 28443
L50548 28724
" />
<path d="M50829 29146
L50829 28949
" />
<path d="M51139 28949
L50548 28949
L50548 29231
" />
</g>
<g style="fill:#9F009F; fill-opacity:0.0; 
stroke:#9F009F; stroke-width:80; stroke-opacity:1; 
stroke-linecap:round; stroke-linejoin:round;">
<path d="M51752 21407
L51752 21169
L51252 21169
" />
<path d="M51490 21740
L51514 21811
L51538 21835
L51585 21859
L51657 21859
L51704 21835
L51728 21811
L51752 21764
L51752 21573
L51252 21573
L51252 21740
L51276 21788
L51300 21811
L51347 21835
L51395 21835
L51442 21811
L51466 21788
L51490 21740
L51490 21573
" />
<path d="M51252 22169
L51252 22264
L51276 22311
L51323 22359
L51419 22383
L51585 22383
L51680 22359
L51728 22311
L51752 22264
L51752 22169
L51728 22121
L51680 22073
L51585 22050
L51419 22050
L51323 22073
L51276 22121
L51252 22169
" />
<path d="M50252 21147
L50752 21314
L50252 21480
" />
<path d="M50252 21742
L50252 21838
L50276 21885
L50323 21933
L50419 21957
L50585 21957
L50680 21933
L50728 21885
L50752 21838
L50752 21742
L50728 21695
L50680 21647
L50585 21623
L50419 21623
L50323 21647
L50276 21695
L50252 21742
" />
<path d="M50252 22171
L50657 22171
L50704 22195
L50728 22219
L50752 22266
L50752 22361
L50728 22409
L50704 22433
L50657 22457
L50252 22457
" />
<path d="M50252 22623
L50252 22909
" />
<path d="M50752 22766
L50252 22766
" />
<path d="M49276 21430
L49252 21383
L49252 21311
L49276 21240
L49323 21192
L49371 21169
L49466 21145
L49538 21145
L49633 21169
L49680 21192
L49728 21240
L49752 21311
L49752 21359
L49728 21430
L49704 21454
L49538 21454
L49538 21359
" />
<path d="M49752 21669
L49252 21669
L49752 21954
L49252 21954
" />
<path d="M49752 22192
L49252 22192
L49252 22311
L49276 22383
L49323 22430
L49371 22454
L49466 22478
L49538 22478
L49633 22454
L49680 22430
L49728 22383
L49752 22311
L49752 22192
" />
<path d="M48252 21147
L48752 21314
L48252 21480
" />
<path d="M48752 21647
L48252 21647
" />
<path d="M48752 21885
L48252 21885
L48752 22171
L48252 22171
" />
<path d="M47490 21169
L47490 21335
" />
<path d="M47752 21407
L47752 21169
L47252 21169
L47252 21407
" />
<path d="M47752 21621
L47252 21621
L47752 21907
L47252 21907
" />
</g>
<g style="fill:#FFFF00; fill-opacity:0.0; 
stroke:#FFFF00; stroke-width:39.3701; stroke-opacity:1; 
stroke-linecap:round; stroke-linejoin:round;">
<path d="M52300 30700
L52300 26100
" />
<path d="M46700 30700
L52300 30700
" />
<path d="M46700 24900
L46700 30700
" />
<path d="M52300 19900
L46700 19900
" />
<path d="M52300 19900
L52300 26100
" />
<path d="M46700 19900
L46700 24900
" />
</g>
<g style="fill:#9F009F; fill-opacity:1.0; 
stroke:#9F009F; stroke-width:39.3701; stroke-opacity:1; 
stroke-linecap:round; stroke-linejoin:round;">
<polyline style="fill-rule:evenodd;"
points="49100,29500
48700,29500
48700,29400
48700,27600
47400,27600
47400,29400
48700,29400
48700,29500
48500,29500
47600,29500
47400,29500
47100,29500
47100,27500
47400,27500
47600,27500
48500,27500
48700,27500
49100,27500
49100,29500
" /> 
</g>
<g style="fill:#9F009F; fill-opacity:0.0; 
stroke:#9F009F; stroke-width:400; stroke-opacity:1; 
stroke-linecap:round; stroke-linejoin:round;">
<polyline fill="none;"
points="49100,29500
48700,29500
48700,29400
48700,27600
47400,27600
47400,29400
48700,29400
48700,29500
48500,29500
47600,29500
47400,29500
47100,29500
47100,27500
47400,27500
47600,27500
48500,27500
48700,27500
49100,27500
49100,29500
" /> 
</g> 
</svg>
