<?xml version="1.0" standalone="no"?>
 <!DOCTYPE svg PUBLIC "-//W3C//DTD SVG 1.1//EN" 
 "http://www.w3.org/Graphics/SVG/1.1/DTD/svg11.dtd"> 
<svg xmlns="http://www.w3.org/2000/svg" version="1.1" 
    width="41.9989cm" height="29.7002cm" viewBox="0 0 165350 116930 ">
<title>SVG Picture created as TPS62056_Reference-F_SilkS.svg date 2013/07/23 20:59:59 </title>
  <desc>Picture generated by PCBNEW </desc>
<g style="fill:#000000; fill-opacity:1;stroke:#000000; stroke-opacity:1;
stroke-linecap:round; stroke-linejoin:round; "
 transform="translate(0 0) scale(1 1)">
</g>
<g style="fill:#000000; fill-opacity:0.0; 
stroke:#000000; stroke-width:39.3701; stroke-opacity:1; 
stroke-linecap:round; stroke-linejoin:round;">
<path d="M4000 4000
L161350 4000
L161350 112930
L4000 112930
L4000 4000
" />
<path d="M4700 4700
L160650 4700
L160650 112230
L4700 112230
L4700 4700
" />
<path d="M26470 4000
L26470 4700
" />
<path d="M15382 4552
L15097 4552
" />
<path d="M15240 4552
L15240 4052
L15192 4123
L15144 4171
L15097 4195
" />
<path d="M26470 112930
L26470 112230
" />
<path d="M15382 112782
L15097 112782
" />
<path d="M15240 112782
L15240 112282
L15192 112353
L15144 112401
L15097 112425
" />
<path d="M48940 4000
L48940 4700
" />
<path d="M37567 4100
L37590 4076
L37638 4052
L37757 4052
L37805 4076
L37829 4100
L37852 4147
L37852 4195
L37829 4266
L37543 4552
L37852 4552
" />
<path d="M48940 112930
L48940 112230
" />
<path d="M37567 112330
L37590 112306
L37638 112282
L37757 112282
L37805 112306
L37829 112330
L37852 112377
L37852 112425
L37829 112496
L37543 112782
L37852 112782
" />
<path d="M71410 4000
L71410 4700
" />
<path d="M60013 4052
L60322 4052
L60156 4242
L60227 4242
L60275 4266
L60299 4290
L60322 4338
L60322 4457
L60299 4504
L60275 4528
L60227 4552
L60084 4552
L60037 4528
L60013 4504
" />
<path d="M71410 112930
L71410 112230
" />
<path d="M60013 112282
L60322 112282
L60156 112472
L60227 112472
L60275 112496
L60299 112520
L60322 112568
L60322 112687
L60299 112734
L60275 112758
L60227 112782
L60084 112782
L60037 112758
L60013 112734
" />
<path d="M93880 4000
L93880 4700
" />
<path d="M82745 4219
L82745 4552
" />
<path d="M82626 4028
L82507 4385
L82816 4385
" />
<path d="M93880 112930
L93880 112230
" />
<path d="M82745 112449
L82745 112782
" />
<path d="M82626 112258
L82507 112615
L82816 112615
" />
<path d="M116350 4000
L116350 4700
" />
<path d="M105239 4052
L105000 4052
L104977 4290
L105000 4266
L105048 4242
L105167 4242
L105215 4266
L105239 4290
L105262 4338
L105262 4457
L105239 4504
L105215 4528
L105167 4552
L105048 4552
L105000 4528
L104977 4504
" />
<path d="M116350 112930
L116350 112230
" />
<path d="M105239 112282
L105000 112282
L104977 112520
L105000 112496
L105048 112472
L105167 112472
L105215 112496
L105239 112520
L105262 112568
L105262 112687
L105239 112734
L105215 112758
L105167 112782
L105048 112782
L105000 112758
L104977 112734
" />
<path d="M138820 4000
L138820 4700
" />
<path d="M127685 4052
L127590 4052
L127542 4076
L127518 4100
L127470 4171
L127447 4266
L127447 4457
L127470 4504
L127494 4528
L127542 4552
L127637 4552
L127685 4528
L127709 4504
L127732 4457
L127732 4338
L127709 4290
L127685 4266
L127637 4242
L127542 4242
L127494 4266
L127470 4290
L127447 4338
" />
<path d="M138820 112930
L138820 112230
" />
<path d="M127685 112282
L127590 112282
L127542 112306
L127518 112330
L127470 112401
L127447 112496
L127447 112687
L127470 112734
L127494 112758
L127542 112782
L127637 112782
L127685 112758
L127709 112734
L127732 112687
L127732 112568
L127709 112520
L127685 112496
L127637 112472
L127542 112472
L127494 112496
L127470 112520
L127447 112568
" />
<path d="M149893 4052
L150226 4052
L150012 4552
" />
<path d="M149893 112282
L150226 112282
L150012 112782
" />
<path d="M4000 25780
L4700 25780
" />
<path d="M4230 14949
L4469 14949
" />
<path d="M4183 15092
L4350 14592
L4516 15092
" />
<path d="M161350 25780
L160650 25780
" />
<path d="M160880 14949
L161119 14949
" />
<path d="M160833 15092
L161000 14592
L161166 15092
" />
<path d="M4000 47560
L4700 47560
" />
<path d="M4385 36610
L4457 36634
L4480 36658
L4504 36705
L4504 36777
L4480 36824
L4457 36848
L4409 36872
L4219 36872
L4219 36372
L4385 36372
L4433 36396
L4457 36420
L4480 36467
L4480 36515
L4457 36562
L4433 36586
L4385 36610
L4219 36610
" />
<path d="M161350 47560
L160650 47560
" />
<path d="M161035 36610
L161107 36634
L161130 36658
L161154 36705
L161154 36777
L161130 36824
L161107 36848
L161059 36872
L160869 36872
L160869 36372
L161035 36372
L161083 36396
L161107 36420
L161130 36467
L161130 36515
L161107 36562
L161083 36586
L161035 36610
L160869 36610
" />
<path d="M4000 69340
L4700 69340
" />
<path d="M4504 58604
L4480 58628
L4409 58652
L4361 58652
L4290 58628
L4242 58580
L4219 58533
L4195 58438
L4195 58366
L4219 58271
L4242 58223
L4290 58176
L4361 58152
L4409 58152
L4480 58176
L4504 58200
" />
<path d="M161350 69340
L160650 69340
" />
<path d="M161154 58604
L161130 58628
L161059 58652
L161011 58652
L160940 58628
L160892 58580
L160869 58533
L160845 58438
L160845 58366
L160869 58271
L160892 58223
L160940 58176
L161011 58152
L161059 58152
L161130 58176
L161154 58200
" />
<path d="M4000 91120
L4700 91120
" />
<path d="M4219 80432
L4219 79932
L4338 79932
L4409 79956
L4457 80003
L4480 80051
L4504 80146
L4504 80218
L4480 80313
L4457 80360
L4409 80408
L4338 80432
L4219 80432
" />
<path d="M161350 91120
L160650 91120
" />
<path d="M160869 80432
L160869 79932
L160988 79932
L161059 79956
L161107 80003
L161130 80051
L161154 80146
L161154 80218
L161130 80313
L161107 80360
L161059 80408
L160988 80432
L160869 80432
" />
<path d="M4242 101950
L4409 101950
" />
<path d="M4480 102212
L4242 102212
L4242 101712
L4480 101712
" />
<path d="M160892 101950
L161059 101950
" />
<path d="M161130 102212
L160892 102212
L160892 101712
L161130 101712
" />
<path d="M127800 110672
L127875 110072
L128017 110072
L128100 110101
L128150 110158
L128171 110215
L128185 110330
L128175 110415
L128132 110530
L128096 110587
L128032 110644
L127942 110672
L127800 110672
" />
<path d="M128657 110672
L128696 110358
L128675 110301
L128621 110272
L128507 110272
L128446 110301
" />
<path d="M128660 110644
L128600 110672
L128457 110672
L128403 110644
L128382 110587
L128389 110530
L128425 110472
L128485 110444
L128628 110444
L128689 110415
" />
<path d="M128907 110272
L129135 110272
" />
<path d="M129017 110072
L128953 110587
L128975 110644
L129028 110672
L129085 110672
" />
<path d="M129517 110644
L129457 110672
L129342 110672
L129289 110644
L129267 110587
L129296 110358
L129332 110301
L129392 110272
L129507 110272
L129560 110301
L129582 110358
L129575 110415
L129282 110472
" />
<path d="M129807 110615
L129832 110644
L129800 110672
L129775 110644
L129807 110615
L129800 110672
" />
<path d="M129846 110301
L129871 110330
L129839 110358
L129814 110330
L129846 110301
L129839 110358
" />
<path d="M119392 111872
L119392 111272
" />
<path d="M119735 111872
L119478 111530
" />
<path d="M119735 111272
L119392 111615
" />
<path d="M119992 111872
L119992 111472
" />
<path d="M119992 111272
L119964 111301
L119992 111330
L120021 111301
L119992 111272
L119992 111330
" />
<path d="M120621 111815
L120592 111844
L120507 111872
L120450 111872
L120364 111844
L120307 111787
L120278 111730
L120250 111615
L120250 111530
L120278 111415
L120307 111358
L120364 111301
L120450 111272
L120507 111272
L120592 111301
L120621 111330
" />
<path d="M121135 111872
L121135 111558
L121107 111501
L121050 111472
L120935 111472
L120878 111501
" />
<path d="M121135 111844
L121078 111872
L120935 111872
L120878 111844
L120850 111787
L120850 111730
L120878 111672
L120935 111644
L121078 111644
L121135 111615
" />
<path d="M121678 111872
L121678 111272
" />
<path d="M121678 111844
L121621 111872
L121507 111872
L121450 111844
L121421 111815
L121392 111758
L121392 111587
L121421 111530
L121450 111501
L121507 111472
L121621 111472
L121678 111501
" />
<path d="M122421 111558
L122621 111558
" />
<path d="M122707 111872
L122421 111872
L122421 111272
L122707 111272
" />
<path d="M122964 111815
L122992 111844
L122964 111872
L122935 111844
L122964 111815
L122964 111872
" />
<path d="M123249 111872
L123249 111272
L123392 111272
L123478 111301
L123535 111358
L123564 111415
L123592 111530
L123592 111615
L123564 111730
L123535 111787
L123478 111844
L123392 111872
L123249 111872
" />
<path d="M123849 111815
L123878 111844
L123849 111872
L123821 111844
L123849 111815
L123849 111872
" />
<path d="M124107 111701
L124392 111701
" />
<path d="M124049 111872
L124249 111272
L124449 111872
" />
<path d="M124649 111815
L124678 111844
L124649 111872
L124621 111844
L124649 111815
L124649 111872
" />
<path d="M152942 110672
L152778 110387
" />
<path d="M152600 110672
L152675 110072
L152903 110072
L152957 110101
L152982 110130
L153003 110187
L152992 110272
L152957 110330
L152925 110358
L152864 110387
L152635 110387
" />
<path d="M153432 110644
L153371 110672
L153257 110672
L153203 110644
L153182 110587
L153210 110358
L153246 110301
L153307 110272
L153421 110272
L153475 110301
L153496 110358
L153489 110415
L153196 110472
" />
<path d="M153707 110272
L153800 110672
L153992 110272
" />
<path d="M154178 110615
L154203 110644
L154171 110672
L154146 110644
L154178 110615
L154171 110672
" />
<path d="M154217 110301
L154242 110330
L154210 110358
L154185 110330
L154217 110301
L154210 110358
" />
<path d="M119364 110644
L119450 110672
L119592 110672
L119650 110644
L119678 110615
L119707 110558
L119707 110501
L119678 110444
L119650 110415
L119592 110387
L119478 110358
L119421 110330
L119392 110301
L119364 110244
L119364 110187
L119392 110130
L119421 110101
L119478 110072
L119621 110072
L119707 110101
" />
<path d="M119964 110672
L119964 110272
" />
<path d="M119964 110072
L119935 110101
L119964 110130
L119992 110101
L119964 110072
L119964 110130
" />
<path d="M120192 110272
L120507 110272
L120192 110672
L120507 110672
" />
<path d="M120964 110644
L120907 110672
L120792 110672
L120735 110644
L120707 110587
L120707 110358
L120735 110301
L120792 110272
L120907 110272
L120964 110301
L120992 110358
L120992 110415
L120707 110472
" />
<path d="M121250 110615
L121278 110644
L121250 110672
L121221 110644
L121250 110615
L121250 110672
" />
<path d="M121250 110301
L121278 110330
L121250 110358
L121221 110330
L121250 110301
L121250 110358
" />
<path d="M121964 110501
L122250 110501
" />
<path d="M121907 110672
L122107 110072
L122307 110672
" />
<path d="M122450 110072
L122821 110072
L122621 110301
L122707 110301
L122764 110330
L122792 110358
L122821 110415
L122821 110558
L122792 110615
L122764 110644
L122707 110672
L122535 110672
L122478 110644
L122450 110615
" />
<path d="M152592 111872
L152592 111272
" />
<path d="M153135 111872
L153135 111272
" />
<path d="M153135 111844
L153078 111872
L152964 111872
L152907 111844
L152878 111815
L152850 111758
L152850 111587
L152878 111530
L152907 111501
L152964 111472
L153078 111472
L153135 111501
" />
<path d="M153421 111815
L153450 111844
L153421 111872
L153392 111844
L153421 111815
L153421 111872
" />
<path d="M153421 111501
L153450 111530
L153421 111558
L153392 111530
L153421 111501
L153421 111558
" />
<path d="M154478 111872
L154135 111872
" />
<path d="M154307 111872
L154307 111272
L154249 111358
L154192 111415
L154135 111444
" />
<path d="M155164 111244
L154650 112015
" />
<path d="M155678 111872
L155335 111872
" />
<path d="M155507 111872
L155507 111272
L155449 111358
L155392 111415
L155335 111444
" />
<path d="M119389 108872
L119732 108872
" />
<path d="M119485 109472
L119560 108872
" />
<path d="M119857 109472
L119907 109072
" />
<path d="M119932 108872
L119900 108901
L119925 108930
L119957 108901
L119932 108872
L119925 108930
" />
<path d="M120107 109072
L120335 109072
" />
<path d="M120217 108872
L120153 109387
L120175 109444
L120228 109472
L120285 109472
" />
<path d="M120571 109472
L120517 109444
L120496 109387
L120560 108872
" />
<path d="M121032 109444
L120971 109472
L120857 109472
L120803 109444
L120782 109387
L120810 109158
L120846 109101
L120907 109072
L121021 109072
L121075 109101
L121096 109158
L121089 109215
L120796 109272
" />
<path d="M121321 109415
L121346 109444
L121314 109472
L121289 109444
L121321 109415
L121314 109472
" />
<path d="M121360 109101
L121385 109130
L121353 109158
L121328 109130
L121360 109101
L121353 109158
" />
<path d="M119592 106758
L119392 106758
" />
<path d="M119392 107072
L119392 106472
L119678 106472
" />
<path d="M119907 107072
L119907 106672
" />
<path d="M119907 106472
L119878 106501
L119907 106530
L119935 106501
L119907 106472
L119907 106530
" />
<path d="M120278 107072
L120221 107044
L120192 106987
L120192 106472
" />
<path d="M120735 107044
L120678 107072
L120564 107072
L120507 107044
L120478 106987
L120478 106758
L120507 106701
L120564 106672
L120678 106672
L120735 106701
L120764 106758
L120764 106815
L120478 106872
" />
<path d="M121021 107015
L121050 107044
L121021 107072
L120992 107044
L121021 107015
L121021 107072
" />
<path d="M121021 106701
L121050 106730
L121021 106758
L120992 106730
L121021 106701
L121021 106758
" />
<path d="M121678 106472
L122021 106472
" />
<path d="M121850 107072
L121850 106472
" />
<path d="M122221 107072
L122221 106472
L122450 106472
L122507 106501
L122535 106530
L122564 106587
L122564 106672
L122535 106730
L122507 106758
L122450 106787
L122221 106787
" />
<path d="M122792 107044
L122878 107072
L123021 107072
L123078 107044
L123107 107015
L123135 106958
L123135 106901
L123107 106844
L123078 106815
L123021 106787
L122907 106758
L122850 106730
L122821 106701
L122792 106644
L122792 106587
L122821 106530
L122850 106501
L122907 106472
L123050 106472
L123135 106501
" />
<path d="M123650 106472
L123535 106472
L123478 106501
L123450 106530
L123392 106615
L123364 106730
L123364 106958
L123392 107015
L123421 107044
L123478 107072
L123592 107072
L123650 107044
L123678 107015
L123707 106958
L123707 106815
L123678 106758
L123650 106730
L123592 106701
L123478 106701
L123421 106730
L123392 106758
L123364 106815
" />
<path d="M123935 106530
L123964 106501
L124021 106472
L124164 106472
L124221 106501
L124250 106530
L124278 106587
L124278 106644
L124250 106730
L123907 107072
L124278 107072
" />
<path d="M124650 106472
L124707 106472
L124764 106501
L124792 106530
L124821 106587
L124850 106701
L124850 106844
L124821 106958
L124792 107015
L124764 107044
L124707 107072
L124650 107072
L124592 107044
L124564 107015
L124535 106958
L124507 106844
L124507 106701
L124535 106587
L124564 106530
L124592 106501
L124650 106472
" />
<path d="M125392 106472
L125107 106472
L125078 106758
L125107 106730
L125164 106701
L125307 106701
L125364 106730
L125392 106758
L125421 106815
L125421 106958
L125392 107015
L125364 107044
L125307 107072
L125164 107072
L125107 107044
L125078 107015
" />
<path d="M125935 106472
L125821 106472
L125764 106501
L125735 106530
L125678 106615
L125650 106730
L125650 106958
L125678 107015
L125707 107044
L125764 107072
L125878 107072
L125935 107044
L125964 107015
L125992 106958
L125992 106815
L125964 106758
L125935 106730
L125878 106701
L125764 106701
L125707 106730
L125678 106758
L125650 106815
" />
<path d="M126107 107130
L126564 107130
" />
<path d="M127050 107072
L126850 106787
" />
<path d="M126707 107072
L126707 106472
L126935 106472
L126992 106501
L127021 106530
L127050 106587
L127050 106672
L127021 106730
L126992 106758
L126935 106787
L126707 106787
" />
<path d="M127535 107044
L127478 107072
L127364 107072
L127307 107044
L127278 106987
L127278 106758
L127307 106701
L127364 106672
L127478 106672
L127535 106701
L127564 106758
L127564 106815
L127278 106872
" />
<path d="M127735 106672
L127964 106672
" />
<path d="M127821 107072
L127821 106558
L127850 106501
L127907 106472
L127964 106472
" />
<path d="M128392 107044
L128335 107072
L128221 107072
L128164 107044
L128135 106987
L128135 106758
L128164 106701
L128221 106672
L128335 106672
L128392 106701
L128421 106758
L128421 106815
L128135 106872
" />
<path d="M128678 107072
L128678 106672
" />
<path d="M128678 106787
L128707 106730
L128735 106701
L128792 106672
L128850 106672
" />
<path d="M129278 107044
L129221 107072
L129107 107072
L129050 107044
L129021 106987
L129021 106758
L129050 106701
L129107 106672
L129221 106672
L129278 106701
L129307 106758
L129307 106815
L129021 106872
" />
<path d="M129564 106672
L129564 107072
" />
<path d="M129564 106730
L129592 106701
L129650 106672
L129735 106672
L129792 106701
L129821 106758
L129821 107072
" />
<path d="M130364 107044
L130307 107072
L130192 107072
L130135 107044
L130107 107015
L130078 106958
L130078 106787
L130107 106730
L130135 106701
L130192 106672
L130307 106672
L130364 106701
" />
<path d="M130850 107044
L130792 107072
L130678 107072
L130621 107044
L130592 106987
L130592 106758
L130621 106701
L130678 106672
L130792 106672
L130850 106701
L130878 106758
L130878 106815
L130592 106872
" />
<path d="M131135 107015
L131164 107044
L131135 107072
L131107 107044
L131135 107015
L131135 107072
" />
<path d="M131421 107072
L131421 106472
" />
<path d="M131478 106844
L131650 107072
" />
<path d="M131650 106672
L131421 106901
" />
<path d="M131907 107072
L131907 106672
" />
<path d="M131907 106472
L131878 106501
L131907 106530
L131935 106501
L131907 106472
L131907 106530
" />
<path d="M132450 107044
L132392 107072
L132278 107072
L132221 107044
L132192 107015
L132164 106958
L132164 106787
L132192 106730
L132221 106701
L132278 106672
L132392 106672
L132450 106701
" />
<path d="M132964 107072
L132964 106758
L132935 106701
L132878 106672
L132764 106672
L132707 106701
" />
<path d="M132964 107044
L132907 107072
L132764 107072
L132707 107044
L132678 106987
L132678 106930
L132707 106872
L132764 106844
L132907 106844
L132964 106815
" />
<path d="M133507 107072
L133507 106472
" />
<path d="M133507 107044
L133450 107072
L133335 107072
L133278 107044
L133250 107015
L133221 106958
L133221 106787
L133250 106730
L133278 106701
L133335 106672
L133450 106672
L133507 106701
" />
<path d="M133650 107130
L134107 107130
" />
<path d="M134250 106672
L134250 107272
" />
<path d="M134250 106701
L134307 106672
L134421 106672
L134478 106701
L134507 106730
L134535 106787
L134535 106958
L134507 107015
L134478 107044
L134421 107072
L134307 107072
L134250 107044
" />
<path d="M135050 107044
L134992 107072
L134878 107072
L134821 107044
L134792 107015
L134764 106958
L134764 106787
L134792 106730
L134821 106701
L134878 106672
L134992 106672
L135050 106701
" />
<path d="M135307 107072
L135307 106472
" />
<path d="M135307 106701
L135364 106672
L135478 106672
L135535 106701
L135564 106730
L135592 106787
L135592 106958
L135564 107015
L135535 107044
L135478 107072
L135364 107072
L135307 107044
" />
<path d="M119364 108244
L119450 108272
L119592 108272
L119650 108244
L119678 108215
L119707 108158
L119707 108101
L119678 108044
L119650 108015
L119592 107987
L119478 107958
L119421 107930
L119392 107901
L119364 107844
L119364 107787
L119392 107730
L119421 107701
L119478 107672
L119621 107672
L119707 107701
" />
<path d="M119964 108272
L119964 107672
" />
<path d="M120221 108272
L120221 107958
L120192 107901
L120135 107872
L120050 107872
L119992 107901
L119964 107930
" />
<path d="M120735 108244
L120678 108272
L120564 108272
L120507 108244
L120478 108187
L120478 107958
L120507 107901
L120564 107872
L120678 107872
L120735 107901
L120764 107958
L120764 108015
L120478 108072
" />
<path d="M121250 108244
L121192 108272
L121078 108272
L121021 108244
L120992 108187
L120992 107958
L121021 107901
L121078 107872
L121192 107872
L121250 107901
L121278 107958
L121278 108015
L120992 108072
" />
<path d="M121450 107872
L121678 107872
" />
<path d="M121535 107672
L121535 108187
L121564 108244
L121621 108272
L121678 108272
" />
<path d="M121878 108215
L121907 108244
L121878 108272
L121850 108244
L121878 108215
L121878 108272
" />
<path d="M121878 107901
L121907 107930
L121878 107958
L121850 107930
L121878 107901
L121878 107958
" />
<path d="M118650 106230
L118650 112230
" />
<path d="M118650 106230
L160650 106230
" />
<path d="M118650 106230
L160650 106230
" />
<path d="M118650 108630
L160650 108630
" />
<path d="M151850 109830
L151850 112230
" />
<path d="M118650 111030
L160650 111030
" />
<path d="M118650 109830
L160650 109830
" />
<path d="M125250 109830
L125250 111030
" />
</g>
<g style="fill:#FFFF00; fill-opacity:0.0; 
stroke:#FFFF00; stroke-width:39.3701; stroke-opacity:1; 
stroke-linecap:round; stroke-linejoin:round;">
<path d="M52300 30700
L52300 26100
" />
<path d="M46700 30700
L52300 30700
" />
<path d="M46700 24900
L46700 30700
" />
<path d="M52300 19900
L46700 19900
" />
<path d="M52300 19900
L52300 26100
" />
<path d="M46700 19900
L46700 24900
" />
</g>
<g style="fill:#009F9F; fill-opacity:0.0; 
stroke:#009F9F; stroke-width:35; stroke-opacity:1; 
stroke-linecap:round; stroke-linejoin:round;">
<path d="M47440 21654
L47416 21678
L47345 21702
L47297 21702
L47226 21678
L47178 21630
L47154 21583
L47130 21488
L47130 21416
L47154 21321
L47178 21273
L47226 21226
L47297 21202
L47345 21202
L47416 21226
L47440 21250
" />
<path d="M47750 21202
L47845 21202
L47892 21226
L47940 21273
L47964 21369
L47964 21535
L47940 21630
L47892 21678
L47845 21702
L47750 21702
L47702 21678
L47654 21630
L47630 21535
L47630 21369
L47654 21273
L47702 21226
L47750 21202
" />
<path d="M48178 21702
L48178 21202
L48464 21702
L48464 21202
" />
<path d="M48702 21702
L48702 21202
L48988 21702
L48988 21202
" />
<path d="M49107 21750
L49488 21750
" />
<path d="M49845 21202
L49607 21202
L49583 21440
L49607 21416
L49654 21392
L49773 21392
L49821 21416
L49845 21440
L49869 21488
L49869 21607
L49845 21654
L49821 21678
L49773 21702
L49654 21702
L49607 21678
L49583 21654
" />
</g>
<g style="fill:#009F9F; fill-opacity:0.0; 
stroke:#009F9F; stroke-width:59.0551; stroke-opacity:1; 
stroke-linecap:round; stroke-linejoin:round;">
<path d="M49800 29540
L49856 29559
L49950 29559
L49987 29540
L50006 29521
L50025 29484
L50025 29446
L50006 29409
L49987 29390
L49950 29371
L49875 29353
L49837 29334
L49818 29315
L49800 29278
L49800 29240
L49818 29203
L49837 29184
L49875 29165
L49968 29165
L50025 29184
" />
<path d="M50174 29203
L50193 29184
L50231 29165
L50324 29165
L50362 29184
L50381 29203
L50399 29240
L50399 29278
L50381 29334
L50156 29559
L50399 29559
" />
<path d="M49012 30796
L49012 30571
" />
<path d="M49405 30684
L49012 30684
" />
<path d="M49293 30459
L49293 30271
" />
<path d="M49405 30496
L49012 30365
L49405 30234
" />
<path d="M49368 29877
L49387 29896
L49405 29952
L49405 29990
L49387 30046
L49349 30084
L49312 30102
L49237 30121
L49180 30121
L49105 30102
L49068 30084
L49030 30046
L49012 29990
L49012 29952
L49030 29896
L49049 29877
" />
<path d="M49443 29802
L49443 29502
" />
<path d="M49387 29428
L49405 29371
L49405 29278
L49387 29240
L49368 29221
L49330 29203
L49293 29203
L49255 29221
L49237 29240
L49218 29278
L49199 29353
L49180 29390
L49162 29409
L49124 29428
L49087 29428
L49049 29409
L49030 29390
L49012 29353
L49012 29259
L49030 29203
" />
<path d="M49012 29071
L49405 28978
L49124 28903
L49405 28828
L49012 28734
" />
<path d="M49405 28584
L49012 28584
" />
<path d="M49012 28453
L49012 28228
" />
<path d="M49405 28340
L49012 28340
" />
<path d="M49368 27871
L49387 27890
L49405 27946
L49405 27984
L49387 28040
L49349 28078
L49312 28096
L49237 28115
L49180 28115
L49105 28096
L49068 28078
L49030 28040
L49012 27984
L49012 27946
L49030 27890
L49049 27871
" />
<path d="M49405 27703
L49012 27703
" />
<path d="M49199 27703
L49199 27478
" />
<path d="M49405 27478
L49012 27478
" />
<path d="M49387 27309
L49405 27253
L49405 27159
L49387 27122
L49368 27103
L49330 27084
L49293 27084
L49255 27103
L49237 27122
L49218 27159
L49199 27234
L49180 27272
L49162 27290
L49124 27309
L49087 27309
L49049 27290
L49030 27272
L49012 27234
L49012 27140
L49030 27084
" />
<path d="M49405 26915
L49012 26915
L49293 26784
L49012 26653
L49405 26653
" />
<path d="M49405 26465
L49012 26465
L49012 26372
L49030 26315
L49068 26278
L49105 26259
L49180 26240
L49237 26240
L49312 26259
L49349 26278
L49387 26315
L49405 26372
L49405 26465
" />
</g>
<g style="fill:#009F9F; fill-opacity:0.0; 
stroke:#009F9F; stroke-width:60; stroke-opacity:1; 
stroke-linecap:round; stroke-linejoin:round;">
<path d="M48071 23371
L48071 23614
L48085 23642
L48100 23657
L48128 23671
L48185 23671
L48214 23657
L48228 23642
L48242 23614
L48242 23371
" />
<path d="M48542 23671
L48371 23671
" />
<path d="M48457 23671
L48457 23371
L48428 23414
L48400 23442
L48371 23457
" />
<path d="M47621 25492
L47621 25321
" />
<path d="M47921 25407
L47621 25407
" />
<path d="M47921 25221
L47621 25221
L47621 25107
L47635 25078
L47650 25064
L47678 25049
L47721 25049
L47750 25064
L47764 25078
L47778 25107
L47778 25221
" />
<path d="M47907 24935
L47921 24892
L47921 24821
L47907 24792
L47892 24778
L47864 24764
L47835 24764
L47807 24778
L47792 24792
L47778 24821
L47764 24878
L47750 24907
L47735 24921
L47707 24935
L47678 24935
L47650 24921
L47635 24907
L47621 24878
L47621 24807
L47635 24764
" />
<path d="M47621 24507
L47621 24564
L47635 24592
L47650 24607
L47692 24635
L47750 24649
L47864 24649
L47892 24635
L47907 24621
L47921 24592
L47921 24535
L47907 24507
L47892 24492
L47864 24478
L47792 24478
L47764 24492
L47750 24507
L47735 24535
L47735 24592
L47750 24621
L47764 24635
L47792 24649
" />
<path d="M47650 24364
L47635 24349
L47621 24321
L47621 24249
L47635 24221
L47650 24207
L47678 24192
L47707 24192
L47750 24207
L47921 24378
L47921 24192
" />
<path d="M47621 24007
L47621 23978
L47635 23950
L47650 23935
L47678 23921
L47735 23907
L47807 23907
L47864 23921
L47892 23935
L47907 23950
L47921 23978
L47921 24007
L47907 24035
L47892 24050
L47864 24064
L47807 24078
L47735 24078
L47678 24064
L47650 24050
L47635 24035
L47621 24007
" />
<path d="M47621 23635
L47621 23778
L47764 23792
L47750 23778
L47735 23750
L47735 23678
L47750 23650
L47764 23635
L47792 23621
L47864 23621
L47892 23635
L47907 23650
L47921 23678
L47921 23750
L47907 23778
L47892 23792
" />
<path d="M47621 23521
L47921 23321
" />
<path d="M47621 23321
L47921 23521
" />
</g>
<g style="fill:#009F9F; fill-opacity:0.0; 
stroke:#009F9F; stroke-width:50; stroke-opacity:1; 
stroke-linecap:round; stroke-linejoin:round;">
<path d="M47750 21642
L47735 21657
L47692 21671
L47664 21671
L47621 21657
L47592 21628
L47578 21600
L47564 21542
L47564 21500
L47578 21442
L47592 21414
L47621 21385
L47664 21371
L47692 21371
L47735 21385
L47750 21400
" />
<path d="M48035 21671
L47864 21671
" />
<path d="M47950 21671
L47950 21371
L47921 21414
L47892 21442
L47864 21457
" />
<path d="M47307 21800
L47321 21785
L47350 21771
L47421 21771
L47450 21785
L47464 21800
L47478 21828
L47478 21857
L47464 21900
L47292 22071
L47478 22071
" />
<path d="M47592 21800
L47607 21785
L47635 21771
L47707 21771
L47735 21785
L47750 21800
L47764 21828
L47764 21857
L47750 21900
L47578 22071
L47764 22071
" />
<path d="M48021 21871
L48021 22071
" />
<path d="M47892 21871
L47892 22028
L47907 22057
L47935 22071
L47978 22071
L48007 22057
L48021 22042
" />
<path d="M48264 21914
L48164 21914
" />
<path d="M48164 22071
L48164 21771
L48307 21771
" />
</g>
<g style="fill:#009F9F; fill-opacity:0.0; 
stroke:#009F9F; stroke-width:45; stroke-opacity:1; 
stroke-linecap:round; stroke-linejoin:round;">
<path d="M50745 26654
L50685 26560
" />
<path d="M50642 26654
L50642 26457
L50710 26457
L50727 26467
L50736 26476
L50745 26495
L50745 26523
L50736 26542
L50727 26551
L50710 26560
L50642 26560
" />
<path d="M50916 26654
L50813 26654
" />
<path d="M50865 26654
L50865 26457
L50847 26485
L50830 26504
L50813 26514
" />
<path d="M50302 27216
L50302 27349
" />
<path d="M50260 27140
L50217 27283
L50328 27283
" />
<path d="M50397 27330
L50405 27340
L50397 27349
L50388 27340
L50397 27330
L50397 27349
" />
<path d="M50465 27149
L50585 27149
L50508 27349
" />
<path d="M50654 27349
L50654 27149
L50714 27292
L50774 27149
L50774 27349
" />
<path d="M50868 27340
L50868 27349
L50860 27369
L50851 27378
" />
<path d="M51168 27149
L51082 27149
L51074 27245
L51082 27235
L51100 27226
L51142 27226
L51160 27235
L51168 27245
L51177 27264
L51177 27311
L51168 27330
L51160 27340
L51142 27349
L51100 27349
L51082 27340
L51074 27330
" />
<path d="M51245 27349
L51382 27149
" />
<path d="M51271 27149
L51288 27159
L51297 27178
L51288 27197
L51271 27207
L51254 27197
L51245 27178
L51254 27159
L51271 27149
" />
<path d="M51374 27340
L51382 27321
L51374 27302
L51357 27292
L51340 27302
L51331 27321
L51340 27340
L51357 27349
L51374 27340
" />
<path d="M48095 26854
L48035 26760
" />
<path d="M47992 26854
L47992 26657
L48060 26657
L48077 26667
L48086 26676
L48095 26695
L48095 26723
L48086 26742
L48077 26751
L48060 26760
L47992 26760
" />
<path d="M48163 26676
L48172 26667
L48189 26657
L48232 26657
L48249 26667
L48257 26676
L48266 26695
L48266 26714
L48257 26742
L48155 26854
L48266 26854
" />
<path d="M47311 27018
L47311 27104
L47407 27112
L47397 27104
L47388 27087
L47388 27044
L47397 27027
L47407 27018
L47426 27010
L47473 27010
L47492 27018
L47502 27027
L47511 27044
L47511 27087
L47502 27104
L47492 27112
" />
<path d="M47511 26838
L47511 26941
" />
<path d="M47511 26890
L47311 26890
L47340 26907
L47359 26924
L47369 26941
" />
<path d="M47311 26727
L47311 26709
L47321 26692
L47331 26684
L47350 26675
L47388 26667
L47435 26667
L47473 26675
L47492 26684
L47502 26692
L47511 26709
L47511 26727
L47502 26744
L47492 26752
L47473 26761
L47435 26769
L47388 26769
L47350 26761
L47331 26752
L47321 26744
L47311 26727
" />
<path d="M47511 26589
L47311 26589
" />
<path d="M47511 26487
L47397 26564
" />
<path d="M47311 26487
L47426 26589
" />
<path d="M48995 25704
L48935 25610
" />
<path d="M48892 25704
L48892 25507
L48960 25507
L48977 25517
L48986 25526
L48995 25545
L48995 25573
L48986 25592
L48977 25601
L48960 25610
L48892 25610
" />
<path d="M49055 25507
L49166 25507
L49106 25582
L49132 25582
L49149 25592
L49157 25601
L49166 25620
L49166 25667
L49157 25685
L49149 25695
L49132 25704
L49080 25704
L49063 25695
L49055 25685
" />
<path d="M48790 25011
L48687 25011
" />
<path d="M48738 25011
L48738 24811
L48721 24840
L48704 24859
L48687 24869
" />
<path d="M48961 25011
L48858 25011
" />
<path d="M48910 25011
L48910 24811
L48892 24840
L48875 24859
L48858 24869
" />
<path d="M49072 24811
L49090 24811
L49107 24821
L49115 24831
L49124 24850
L49132 24888
L49132 24935
L49124 24973
L49115 24992
L49107 25002
L49090 25011
L49072 25011
L49055 25002
L49047 24992
L49038 24973
L49030 24935
L49030 24888
L49038 24850
L49047 24831
L49055 24821
L49072 24811
" />
<path d="M49210 25011
L49210 24811
" />
<path d="M49312 25011
L49235 24897
" />
<path d="M49312 24811
L49210 24926
" />
<path d="M47445 26204
L47385 26110
" />
<path d="M47342 26204
L47342 26007
L47410 26007
L47427 26017
L47436 26026
L47445 26045
L47445 26073
L47436 26092
L47427 26101
L47410 26110
L47342 26110
" />
<path d="M47599 26073
L47599 26204
" />
<path d="M47556 25998
L47513 26139
L47625 26139
" />
<path d="M48049 26331
L48049 26220
L48126 26280
L48126 26254
L48135 26237
L48145 26228
L48164 26220
L48211 26220
L48230 26228
L48240 26237
L48249 26254
L48249 26305
L48240 26322
L48230 26331
" />
<path d="M48049 26160
L48049 26048
L48126 26108
L48126 26082
L48135 26065
L48145 26057
L48164 26048
L48211 26048
L48230 26057
L48240 26065
L48249 26082
L48249 26134
L48240 26151
L48230 26160
" />
<path d="M48049 25937
L48049 25919
L48059 25902
L48069 25894
L48088 25885
L48126 25877
L48173 25877
L48211 25885
L48230 25894
L48240 25902
L48249 25919
L48249 25937
L48240 25954
L48230 25962
L48211 25971
L48173 25979
L48126 25979
L48088 25971
L48069 25962
L48059 25954
L48049 25937
" />
<path d="M48870 23161
L48861 23171
L48835 23180
L48818 23180
L48792 23171
L48775 23152
L48767 23133
L48758 23095
L48758 23066
L48767 23028
L48775 23009
L48792 22990
L48818 22980
L48835 22980
L48861 22990
L48870 23000
" />
<path d="M48938 23000
L48947 22990
L48964 22980
L49007 22980
L49024 22990
L49032 23000
L49041 23019
L49041 23038
L49032 23066
L48930 23180
L49041 23180
" />
<path d="M48604 23650
L48612 23640
L48630 23630
L48672 23630
L48690 23640
L48698 23650
L48707 23669
L48707 23688
L48698 23716
L48595 23830
L48707 23830
" />
<path d="M48775 23650
L48784 23640
L48801 23630
L48844 23630
L48861 23640
L48870 23650
L48878 23669
L48878 23688
L48870 23716
L48767 23830
L48878 23830
" />
<path d="M49032 23697
L49032 23830
" />
<path d="M48955 23697
L48955 23802
L48964 23821
L48981 23830
L49007 23830
L49024 23821
L49032 23811
" />
<path d="M49178 23726
L49118 23726
" />
<path d="M49118 23830
L49118 23630
L49204 23630
" />
<path d="M49461 22230
L49471 22238
L49480 22264
L49480 22281
L49471 22307
L49452 22324
L49433 22332
L49395 22341
L49366 22341
L49328 22332
L49309 22324
L49290 22307
L49280 22281
L49280 22264
L49290 22238
L49300 22230
" />
<path d="M49280 22170
L49280 22058
L49357 22118
L49357 22092
L49366 22075
L49376 22067
L49395 22058
L49442 22058
L49461 22067
L49471 22075
L49480 22092
L49480 22144
L49471 22161
L49461 22170
" />
<path d="M49950 22495
L49940 22487
L49930 22470
L49930 22427
L49940 22410
L49950 22401
L49969 22392
L49988 22392
L50016 22401
L50130 22504
L50130 22392
" />
<path d="M49950 22324
L49940 22315
L49930 22298
L49930 22255
L49940 22238
L49950 22230
L49969 22221
L49988 22221
L50016 22230
L50130 22332
L50130 22221
" />
<path d="M49997 22067
L50130 22067
" />
<path d="M49997 22144
L50102 22144
L50121 22135
L50130 22118
L50130 22092
L50121 22075
L50111 22067
" />
<path d="M50026 21921
L50026 21981
" />
<path d="M50130 21981
L49930 21981
L49930 21895
" />
<path d="M49461 21530
L49471 21538
L49480 21564
L49480 21581
L49471 21607
L49452 21624
L49433 21632
L49395 21641
L49366 21641
L49328 21632
L49309 21624
L49290 21607
L49280 21581
L49280 21564
L49290 21538
L49300 21530
" />
<path d="M49347 21375
L49480 21375
" />
<path d="M49271 21418
L49414 21461
L49414 21350
" />
<path d="M49950 21795
L49940 21787
L49930 21770
L49930 21727
L49940 21710
L49950 21701
L49969 21692
L49988 21692
L50016 21701
L50130 21804
L50130 21692
" />
<path d="M49950 21624
L49940 21615
L49930 21598
L49930 21555
L49940 21538
L49950 21530
L49969 21521
L49988 21521
L50016 21530
L50130 21632
L50130 21521
" />
<path d="M49997 21367
L50130 21367
" />
<path d="M49997 21444
L50102 21444
L50121 21435
L50130 21418
L50130 21392
L50121 21375
L50111 21367
" />
<path d="M50026 21221
L50026 21281
" />
<path d="M50130 21281
L49930 21281
L49930 21195
" />
</g>
<g style="fill:#009F9F; fill-opacity:0.0; 
stroke:#009F9F; stroke-width:50; stroke-opacity:1; 
stroke-linecap:round; stroke-linejoin:round;">
<path d="M48078 26021
L48078 25721
L48150 25721
L48192 25735
L48221 25764
L48235 25792
L48250 25850
L48250 25892
L48235 25950
L48221 25978
L48192 26007
L48150 26021
L48078 26021
" />
<path d="M48535 26021
L48364 26021
" />
<path d="M48450 26021
L48450 25721
L48421 25764
L48392 25792
L48364 25807
" />
<path d="M47507 26021
L47364 26021
L47364 25721
" />
<path d="M47607 25864
L47707 25864
" />
<path d="M47750 26021
L47607 26021
L47607 25721
L47750 25721
" />
<path d="M47878 26021
L47878 25721
L47950 25721
L47992 25735
L48021 25764
L48035 25792
L48050 25850
L48050 25892
L48035 25950
L48021 25978
L47992 26007
L47950 26021
L47878 26021
" />
</g>
<g style="fill:#009F9F; fill-opacity:0.0; 
stroke:#009F9F; stroke-width:59.0551; stroke-opacity:1; 
stroke-linecap:round; stroke-linejoin:round;">
<path d="M51334 26159
L51146 26159
L51146 25765
" />
<path d="M51671 26159
L51446 26159
" />
<path d="M51559 26159
L51559 25765
L51521 25821
L51484 25859
L51446 25878
" />
<path d="M50340 22392
L50115 22392
" />
<path d="M50228 22392
L50228 21998
L50190 22054
L50153 22092
L50115 22111
" />
<path d="M50584 21998
L50621 21998
L50659 22017
L50678 22036
L50696 22073
L50715 22148
L50715 22242
L50696 22317
L50678 22354
L50659 22373
L50621 22392
L50584 22392
L50546 22373
L50528 22354
L50509 22317
L50490 22242
L50490 22148
L50509 22073
L50528 22036
L50546 22017
L50584 21998
" />
<path d="M51053 22129
L51053 22392
" />
<path d="M50884 22129
L50884 22336
L50903 22373
L50940 22392
L50996 22392
L51034 22373
L51053 22354
" />
<path d="M51240 22392
L51240 21998
" />
<path d="M51240 22186
L51465 22186
" />
<path d="M51465 22392
L51465 21998
" />
<path d="M50534 21909
L50346 21909
L50346 21515
" />
<path d="M50646 21553
L50665 21534
L50703 21515
L50796 21515
L50834 21534
L50853 21553
L50871 21590
L50871 21628
L50853 21684
L50628 21909
L50871 21909
" />
<path d="M51420 22309
L51401 22346
L51382 22365
L51345 22384
L51326 22384
L51288 22365
L51270 22346
L51251 22309
L51251 22234
L51270 22196
L51288 22178
L51326 22159
L51345 22159
L51382 22178
L51401 22196
L51420 22234
L51420 22309
L51438 22346
L51457 22365
L51495 22384
L51570 22384
L51607 22365
L51626 22346
L51645 22309
L51645 22234
L51626 22196
L51607 22178
L51570 22159
L51495 22159
L51457 22178
L51438 22196
L51420 22234
" />
<path d="M51288 22009
L51270 21990
L51251 21953
L51251 21859
L51270 21821
L51288 21803
L51326 21784
L51363 21784
L51420 21803
L51645 22028
L51645 21784
" />
<path d="M51382 21615
L51645 21615
" />
<path d="M51420 21615
L51401 21596
L51382 21559
L51382 21503
L51401 21465
L51438 21446
L51645 21446
" />
<path d="M51645 21259
L51251 21259
" />
<path d="M51438 21259
L51438 21034
" />
<path d="M51645 21034
L51251 21034
" />
<path d="M47000 29540
L47056 29559
L47150 29559
L47187 29540
L47206 29521
L47225 29484
L47225 29446
L47206 29409
L47187 29390
L47150 29371
L47075 29353
L47037 29334
L47018 29315
L47000 29278
L47000 29240
L47018 29203
L47037 29184
L47075 29165
L47168 29165
L47225 29184
" />
<path d="M47599 29559
L47374 29559
" />
<path d="M47487 29559
L47487 29165
L47449 29221
L47412 29259
L47374 29278
" />
<path d="M46212 30796
L46212 30571
" />
<path d="M46605 30684
L46212 30684
" />
<path d="M46493 30459
L46493 30271
" />
<path d="M46605 30496
L46212 30365
L46605 30234
" />
<path d="M46568 29877
L46587 29896
L46605 29952
L46605 29990
L46587 30046
L46549 30084
L46512 30102
L46437 30121
L46380 30121
L46305 30102
L46268 30084
L46230 30046
L46212 29990
L46212 29952
L46230 29896
L46249 29877
" />
<path d="M46643 29802
L46643 29502
" />
<path d="M46587 29428
L46605 29371
L46605 29278
L46587 29240
L46568 29221
L46530 29203
L46493 29203
L46455 29221
L46437 29240
L46418 29278
L46399 29353
L46380 29390
L46362 29409
L46324 29428
L46287 29428
L46249 29409
L46230 29390
L46212 29353
L46212 29259
L46230 29203
" />
<path d="M46212 29071
L46605 28978
L46324 28903
L46605 28828
L46212 28734
" />
<path d="M46605 28584
L46212 28584
" />
<path d="M46212 28453
L46212 28228
" />
<path d="M46605 28340
L46212 28340
" />
<path d="M46568 27871
L46587 27890
L46605 27946
L46605 27984
L46587 28040
L46549 28078
L46512 28096
L46437 28115
L46380 28115
L46305 28096
L46268 28078
L46230 28040
L46212 27984
L46212 27946
L46230 27890
L46249 27871
" />
<path d="M46605 27703
L46212 27703
" />
<path d="M46399 27703
L46399 27478
" />
<path d="M46605 27478
L46212 27478
" />
<path d="M46587 27309
L46605 27253
L46605 27159
L46587 27122
L46568 27103
L46530 27084
L46493 27084
L46455 27103
L46437 27122
L46418 27159
L46399 27234
L46380 27272
L46362 27290
L46324 27309
L46287 27309
L46249 27290
L46230 27272
L46212 27234
L46212 27140
L46230 27084
" />
<path d="M46605 26915
L46212 26915
L46493 26784
L46212 26653
L46605 26653
" />
<path d="M46605 26465
L46212 26465
L46212 26372
L46230 26315
L46268 26278
L46305 26259
L46380 26240
L46437 26240
L46512 26259
L46549 26278
L46587 26315
L46605 26372
L46605 26465
" />
</g>
<g style="fill:#009F9F; fill-opacity:0.0; 
stroke:#009F9F; stroke-width:45; stroke-opacity:1; 
stroke-linecap:round; stroke-linejoin:round;">
<path d="M51804 21405
L51710 21465
" />
<path d="M51804 21507
L51607 21507
L51607 21439
L51617 21422
L51626 21413
L51645 21405
L51673 21405
L51692 21413
L51701 21422
L51710 21439
L51710 21507
" />
<path d="M51607 21242
L51607 21327
L51701 21336
L51692 21327
L51682 21310
L51682 21267
L51692 21250
L51701 21242
L51720 21233
L51767 21233
L51785 21242
L51795 21250
L51804 21267
L51804 21310
L51795 21327
L51785 21336
" />
<path d="M50911 21618
L50911 21704
L51007 21712
L50997 21704
L50988 21687
L50988 21644
L50997 21627
L51007 21618
L51026 21610
L51073 21610
L51092 21618
L51102 21627
L51111 21644
L51111 21687
L51102 21704
L51092 21712
" />
<path d="M51111 21438
L51111 21541
" />
<path d="M51111 21490
L50911 21490
L50940 21507
L50959 21524
L50969 21541
" />
<path d="M50911 21327
L50911 21309
L50921 21292
L50931 21284
L50950 21275
L50988 21267
L51035 21267
L51073 21275
L51092 21284
L51102 21292
L51111 21309
L51111 21327
L51102 21344
L51092 21352
L51073 21361
L51035 21369
L50988 21369
L50950 21361
L50931 21352
L50921 21344
L50911 21327
" />
<path d="M51111 21189
L50911 21189
" />
<path d="M51111 21087
L50997 21164
" />
<path d="M50911 21087
L51026 21189
" />
</g>
<g style="fill:#009F9F; fill-opacity:0.0; 
stroke:#009F9F; stroke-width:35; stroke-opacity:1; 
stroke-linecap:round; stroke-linejoin:round;">
<path d="M51546 22604
L51546 22719
L51539 22741
L51523 22757
L51500 22764
L51485 22764
" />
<path d="M51615 22620
L51622 22612
L51638 22604
L51676 22604
L51691 22612
L51699 22620
L51706 22635
L51706 22650
L51699 22673
L51607 22764
L51706 22764
" />
<path d="M52082 22188
L52074 22203
L52074 22226
L52082 22249
L52097 22264
L52112 22272
L52143 22279
L52166 22279
L52196 22272
L52211 22264
L52227 22249
L52234 22226
L52234 22211
L52227 22188
L52219 22180
L52166 22180
L52166 22211
" />
<path d="M52227 22119
L52234 22097
L52234 22058
L52227 22043
L52219 22036
L52204 22028
L52189 22028
L52173 22036
L52166 22043
L52158 22058
L52150 22089
L52143 22104
L52135 22112
L52120 22119
L52105 22119
L52090 22112
L52082 22104
L52074 22089
L52074 22051
L52082 22028
" />
<path d="M52090 21967
L52082 21959
L52074 21944
L52074 21906
L52082 21891
L52090 21883
L52105 21876
L52120 21876
L52143 21883
L52234 21975
L52234 21876
" />
<path d="M47488 22424
L47488 22539
L47481 22561
L47465 22577
L47442 22584
L47427 22584
" />
<path d="M47648 22584
L47557 22584
" />
<path d="M47602 22584
L47602 22424
L47587 22447
L47572 22462
L47557 22470
" />
<path d="M47511 23582
L47496 23574
L47473 23574
L47450 23582
L47435 23597
L47427 23612
L47420 23643
L47420 23666
L47427 23696
L47435 23711
L47450 23727
L47473 23734
L47488 23734
L47511 23727
L47519 23719
L47519 23666
L47488 23666
" />
<path d="M47580 23727
L47602 23734
L47641 23734
L47656 23727
L47663 23719
L47671 23704
L47671 23689
L47663 23673
L47656 23666
L47641 23658
L47610 23650
L47595 23643
L47587 23635
L47580 23620
L47580 23605
L47587 23590
L47595 23582
L47610 23574
L47648 23574
L47671 23582
" />
<path d="M47732 23590
L47740 23582
L47755 23574
L47793 23574
L47808 23582
L47816 23590
L47823 23605
L47823 23620
L47816 23643
L47724 23734
L47823 23734
" />
</g>
<g style="fill:#009F9F; fill-opacity:0.0; 
stroke:#009F9F; stroke-width:26; stroke-opacity:1; 
stroke-linecap:round; stroke-linejoin:round;">
<path d="M51400 20600
L51600 20600
" />
<path d="M51600 20600
L51600 20400
" />
<path d="M51400 20400
L51600 20400
" />
<path d="M51400 20600
L51400 20400
" />
<path d="M50400 20600
L50600 20600
" />
<path d="M50600 20600
L50600 20400
" />
<path d="M50400 20400
L50600 20400
" />
<path d="M50400 20600
L50400 20400
" />
<path d="M49400 20600
L49600 20600
" />
<path d="M49600 20600
L49600 20400
" />
<path d="M49400 20400
L49600 20400
" />
<path d="M49400 20600
L49400 20400
" />
<path d="M48400 20600
L48600 20600
" />
<path d="M48600 20600
L48600 20400
" />
<path d="M48400 20400
L48600 20400
" />
<path d="M48400 20600
L48400 20400
" />
<path d="M47400 20600
L47600 20600
" />
<path d="M47600 20600
L47600 20400
" />
<path d="M47400 20400
L47600 20400
" />
<path d="M47400 20600
L47400 20400
" />
</g>
<g style="fill:#009F9F; fill-opacity:0.0; 
stroke:#009F9F; stroke-width:80; stroke-opacity:1; 
stroke-linecap:round; stroke-linejoin:round;">
<path d="M50250 20000
L50750 20000
" />
<path d="M50750 20000
L51000 20250
" />
<path d="M51000 20750
L50750 21000
" />
<path d="M51000 20250
L51250 20000
" />
<path d="M51250 20000
L51750 20000
" />
<path d="M51750 20000
L52000 20250
" />
<path d="M52000 20750
L51750 21000
" />
<path d="M51750 21000
L51250 21000
" />
<path d="M51250 21000
L51000 20750
" />
<path d="M49000 20250
L49250 20000
" />
<path d="M49250 20000
L49750 20000
" />
<path d="M49750 20000
L50000 20250
" />
<path d="M50000 20750
L49750 21000
" />
<path d="M49750 21000
L49250 21000
" />
<path d="M49250 21000
L49000 20750
" />
<path d="M50250 20000
L50000 20250
" />
<path d="M50000 20750
L50250 21000
" />
<path d="M50750 21000
L50250 21000
" />
<path d="M47250 20000
L47750 20000
" />
<path d="M47750 20000
L48000 20250
" />
<path d="M48000 20750
L47750 21000
" />
<path d="M48000 20250
L48250 20000
" />
<path d="M48250 20000
L48750 20000
" />
<path d="M48750 20000
L49000 20250
" />
<path d="M49000 20750
L48750 21000
" />
<path d="M48750 21000
L48250 21000
" />
<path d="M48250 21000
L48000 20750
" />
<path d="M47000 20250
L47000 20750
" />
<path d="M47250 20000
L47000 20250
" />
<path d="M47000 20750
L47250 21000
" />
<path d="M47750 21000
L47250 21000
" />
<path d="M52000 20250
L52000 20750
" />
</g>
<g style="fill:#009F9F; fill-opacity:0.0; 
stroke:#009F9F; stroke-width:59.0551; stroke-opacity:1; 
stroke-linecap:round; stroke-linejoin:round;">
<circle cx="50900" cy="28500" r="590.551" /> 
<path d="M52120 27279
L52120 29720
" />
<path d="M52120 29720
L49679 29720
" />
<path d="M49679 29720
L49679 27279
" />
<path d="M49679 27279
L52120 27279
" />
</g>
<g style="fill:#009F9F; fill-opacity:0.0; 
stroke:#009F9F; stroke-width:80; stroke-opacity:1; 
stroke-linecap:round; stroke-linejoin:round;">
<circle cx="47700" cy="24000" r="100" /> 
<path d="M47500 25000
L47500 23800
" />
<path d="M47500 23800
L48700 23800
" />
<path d="M48700 23800
L48700 25000
" />
<path d="M48700 25000
L47500 25000
" />
</g>
<g style="fill:#009F9F; fill-opacity:0.0; 
stroke:#009F9F; stroke-width:50; stroke-opacity:1; 
stroke-linecap:round; stroke-linejoin:round;">
<circle cx="46850" cy="22350" r="70.7106" /> 
<path d="M47500 21200
L46900 21200
" />
<path d="M46900 21200
L46900 22300
" />
<path d="M46900 22300
L47500 22300
" />
<path d="M48100 22300
L48700 22300
" />
<path d="M48700 22300
L48700 21200
" />
<path d="M48700 21200
L48100 21200
" />
<path d="M50525 26797
L50525 27075
" />
<path d="M50525 27075
L51075 27075
" />
<path d="M51075 27075
L51075 26797
" />
<path d="M50525 26125
L50525 26403
" />
<path d="M50525 26125
L51075 26125
" />
<path d="M51075 26125
L51075 26403
" />
<path d="M47903 26525
L47625 26525
" />
<path d="M47625 26525
L47625 27075
" />
<path d="M47625 27075
L47903 27075
" />
<path d="M48575 26525
L48297 26525
" />
<path d="M48575 26525
L48575 27075
" />
<path d="M48575 27075
L48297 27075
" />
<path d="M49275 25403
L49275 25125
" />
<path d="M49275 25125
L48725 25125
" />
<path d="M48725 25125
L48725 25403
" />
<path d="M49275 26075
L49275 25797
" />
<path d="M49275 26075
L48725 26075
" />
<path d="M48725 26075
L48725 25797
" />
<path d="M47697 26375
L47975 26375
" />
<path d="M47975 26375
L47975 25825
" />
<path d="M47975 25825
L47697 25825
" />
<path d="M47025 26375
L47303 26375
" />
<path d="M47025 26375
L47025 25825
" />
<path d="M47025 25825
L47303 25825
" />
</g>
<g style="fill:#009F9F; fill-opacity:0.0; 
stroke:#009F9F; stroke-width:47; stroke-opacity:1; 
stroke-linecap:round; stroke-linejoin:round;">
<path d="M49156 22903
L49156 22628
" />
<path d="M49156 23297
L49156 23572
" />
<path d="M48644 22903
L48644 22628
" />
<path d="M48644 23572
L48644 23297
" />
<path d="M48650 22628
L49150 22628
" />
<path d="M49150 23572
L48650 23572
" />
<path d="M49203 21944
L48928 21944
" />
<path d="M49597 21944
L49872 21944
" />
<path d="M49203 22456
L48928 22456
" />
<path d="M49872 22456
L49597 22456
" />
<path d="M48928 22450
L48928 21950
" />
<path d="M49872 21950
L49872 22450
" />
<path d="M49203 21244
L48928 21244
" />
<path d="M49597 21244
L49872 21244
" />
<path d="M49203 21756
L48928 21756
" />
<path d="M49872 21756
L49597 21756
" />
<path d="M48928 21750
L48928 21250
" />
<path d="M49872 21250
L49872 21750
" />
</g>
<g style="fill:#009F9F; fill-opacity:0.0; 
stroke:#009F9F; stroke-width:26; stroke-opacity:1; 
stroke-linecap:round; stroke-linejoin:round;">
<path d="M47896 25518
L47896 25646
" />
<path d="M47896 25646
L48093 25646
" />
<path d="M48093 25518
L48093 25646
" />
<path d="M47896 25518
L48093 25518
" />
<path d="M47896 25273
L47896 25332
" />
<path d="M47896 25332
L47995 25332
" />
<path d="M47995 25273
L47995 25332
" />
<path d="M47896 25273
L47995 25273
" />
<path d="M47896 25468
L47896 25527
" />
<path d="M47896 25527
L47995 25527
" />
<path d="M47995 25468
L47995 25527
" />
<path d="M47896 25468
L47995 25468
" />
<path d="M47896 25322
L47896 25478
" />
<path d="M47896 25478
L47965 25478
" />
<path d="M47965 25322
L47965 25478
" />
<path d="M47896 25322
L47965 25322
" />
<path d="M47307 25518
L47307 25646
" />
<path d="M47307 25646
L47504 25646
" />
<path d="M47504 25518
L47504 25646
" />
<path d="M47307 25518
L47504 25518
" />
<path d="M47307 25154
L47307 25282
" />
<path d="M47307 25282
L47504 25282
" />
<path d="M47504 25154
L47504 25282
" />
<path d="M47307 25154
L47504 25154
" />
<path d="M47405 25468
L47405 25527
" />
<path d="M47405 25527
L47504 25527
" />
<path d="M47504 25468
L47504 25527
" />
<path d="M47405 25468
L47504 25468
" />
<path d="M47405 25273
L47405 25332
" />
<path d="M47405 25332
L47504 25332
" />
<path d="M47504 25273
L47504 25332
" />
<path d="M47405 25273
L47504 25273
" />
<path d="M47435 25322
L47435 25478
" />
<path d="M47435 25478
L47504 25478
" />
<path d="M47504 25322
L47504 25478
" />
<path d="M47435 25322
L47504 25322
" />
<path d="M47700 25361
L47700 25439
" />
<path d="M47700 25439
L47778 25439
" />
<path d="M47778 25361
L47778 25439
" />
<path d="M47700 25361
L47778 25361
" />
<path d="M47896 25164
L47896 25282
" />
<path d="M47896 25282
L48014 25282
" />
<path d="M48014 25164
L48014 25282
" />
<path d="M47896 25164
L48014 25164
" />
<path d="M48064 25154
L48064 25243
" />
<path d="M48064 25243
L48093 25243
" />
<path d="M48093 25154
L48093 25243
" />
<path d="M48064 25154
L48093 25154
" />
</g>
<g style="fill:#009F9F; fill-opacity:0.0; 
stroke:#009F9F; stroke-width:40; stroke-opacity:1; 
stroke-linecap:round; stroke-linejoin:round;">
<path d="M47906 25626
L47494 25626
" />
<path d="M47504 25174
L48064 25174
" />
</g>
<g style="fill:#009F9F; fill-opacity:0.0; 
stroke:#009F9F; stroke-width:20; stroke-opacity:1; 
stroke-linecap:round; stroke-linejoin:round;">
<circle cx="48034" cy="25223" r="28.2843" /> 
</g>
<g style="fill:#009F9F; fill-opacity:0.0; 
stroke:#009F9F; stroke-width:40; stroke-opacity:1; 
stroke-linecap:round; stroke-linejoin:round;">
<path d="M48093 25263 A137 137 0.0 0 0 48093 25537 " />
<path d="M47307 25537 A137 137 0.0 0 0 47307 25263 " />
</g>
<g style="fill:#009F9F; fill-opacity:0.0; 
stroke:#009F9F; stroke-width:59.0551; stroke-opacity:1; 
stroke-linecap:round; stroke-linejoin:round;">
<path d="M51981 23217
L52177 23020
" />
<path d="M52177 23020
L52079 22922
" />
<path d="M52079 22922
L51882 23118
" />
<path d="M49520 25677
L49717 25481
" />
<path d="M49717 25481
L49520 25677
" />
<path d="M49520 25677
L49422 25579
" />
<path d="M49422 25579
L49618 25382
" />
<circle cx="50800" cy="24300" r="1181.1" /> 
<path d="M49422 25185
L49422 22922
" />
<path d="M52177 25677
L49914 25677
" />
<path d="M49914 25677
L49422 25185
" />
<path d="M52177 23414
L51685 22922
" />
<path d="M51685 22922
L49422 22922
" />
<path d="M52177 23414
L52177 25677
" />
<circle cx="50800" cy="24300" r="1377.95" /> 
<path d="M50993 21995
L50206 21995
" />
<path d="M50206 21404
L50993 21404
" />
<path d="M50206 21207
L50993 21207
" />
<path d="M50993 21207
L50993 22192
" />
<path d="M50993 22192
L50206 22192
" />
<path d="M50206 22192
L50206 21207
" />
<circle cx="48100" cy="28500" r="590.551" /> 
<path d="M49320 27279
L49320 29720
" />
<path d="M49320 29720
L46879 29720
" />
<path d="M46879 29720
L46879 27279
" />
<path d="M46879 27279
L49320 27279
" />
</g>
<g style="fill:#009F9F; fill-opacity:0.0; 
stroke:#009F9F; stroke-width:50; stroke-opacity:1; 
stroke-linecap:round; stroke-linejoin:round;">
<path d="M51503 21125
L51225 21125
" />
<path d="M51225 21125
L51225 21675
" />
<path d="M51225 21675
L51503 21675
" />
<path d="M52175 21125
L51897 21125
" />
<path d="M52175 21125
L52175 21675
" />
<path d="M52175 21675
L51897 21675
" />
</g>
<g style="fill:#009F9F; fill-opacity:0.0; 
stroke:#009F9F; stroke-width:80; stroke-opacity:1; 
stroke-linecap:round; stroke-linejoin:round;">
<path d="M51993 21886
L51993 22514
" />
<path d="M51207 22514
L51207 21886
" />
<path d="M51324 21807 A99.8248 99.8248 0.0 0 0 51207 21886 " />
<path d="M51207 22514.9 A100.02 100.02 0.0 0 0 51324.9 22593 " />
<path d="M51876 22593 A99.8248 99.8248 0.0 0 0 51993 22514 " />
<path d="M51993 21885.1 A100.02 100.02 0.0 0 0 51875.1 21807 " />
<path d="M47814 23493
L47186 23493
" />
<path d="M47186 22707
L47814 22707
" />
<path d="M47893 22824 A99.8248 99.8248 0.0 0 0 47814 22707 " />
<path d="M47185.1 22707 A100.02 100.02 0.0 0 0 47107 22824.9 " />
<path d="M47107 23376 A99.8248 99.8248 0.0 0 0 47186 23493 " />
<path d="M47814.9 23493 A100.02 100.02 0.0 0 0 47893 23375.1 " />
</g>
<g style="fill:#7F7F00; fill-opacity:0.0; 
stroke:#7F7F00; stroke-width:39.3701; stroke-opacity:1; 
stroke-linecap:round; stroke-linejoin:round;">
</g>
<g style="fill:#7F7F00; fill-opacity:1.0; 
stroke:#7F7F00; stroke-width:39.3701; stroke-opacity:1; 
stroke-linecap:round; stroke-linejoin:round;">
<circle cx="47500" cy="20500" r="350.315" /> 
<circle cx="48500" cy="20500" r="350.315" /> 
<circle cx="49500" cy="20500" r="350.315" /> 
<circle cx="50500" cy="20500" r="350.315" /> 
<circle cx="51500" cy="20500" r="350.315" /> 
</g> 
</svg>
