<?xml version="1.0" standalone="no"?>
 <!DOCTYPE svg PUBLIC "-//W3C//DTD SVG 1.1//EN" 
 "http://www.w3.org/Graphics/SVG/1.1/DTD/svg11.dtd"> 
<svg xmlns="http://www.w3.org/2000/svg" version="1.1" 
    width="41.9989cm" height="29.7002cm" viewBox="0 0 165350 116930 ">
<title>SVG Picture created as TPS62056_Reference-B_Cu.svg date 2013/07/23 20:59:59 </title>
  <desc>Picture generated by PCBNEW </desc>
<g style="fill:#000000; fill-opacity:1;stroke:#000000; stroke-opacity:1;
stroke-linecap:round; stroke-linejoin:round; "
 transform="translate(0 0) scale(1 1)">
</g>
<g style="fill:#000000; fill-opacity:0.0; 
stroke:#000000; stroke-width:39.3701; stroke-opacity:1; 
stroke-linecap:round; stroke-linejoin:round;">
<path d="M4000 4000
L161350 4000
L161350 112930
L4000 112930
L4000 4000
" />
<path d="M4700 4700
L160650 4700
L160650 112230
L4700 112230
L4700 4700
" />
<path d="M26470 4000
L26470 4700
" />
<path d="M15382 4552
L15097 4552
" />
<path d="M15240 4552
L15240 4052
L15192 4123
L15144 4171
L15097 4195
" />
<path d="M26470 112930
L26470 112230
" />
<path d="M15382 112782
L15097 112782
" />
<path d="M15240 112782
L15240 112282
L15192 112353
L15144 112401
L15097 112425
" />
<path d="M48940 4000
L48940 4700
" />
<path d="M37567 4100
L37590 4076
L37638 4052
L37757 4052
L37805 4076
L37829 4100
L37852 4147
L37852 4195
L37829 4266
L37543 4552
L37852 4552
" />
<path d="M48940 112930
L48940 112230
" />
<path d="M37567 112330
L37590 112306
L37638 112282
L37757 112282
L37805 112306
L37829 112330
L37852 112377
L37852 112425
L37829 112496
L37543 112782
L37852 112782
" />
<path d="M71410 4000
L71410 4700
" />
<path d="M60013 4052
L60322 4052
L60156 4242
L60227 4242
L60275 4266
L60299 4290
L60322 4338
L60322 4457
L60299 4504
L60275 4528
L60227 4552
L60084 4552
L60037 4528
L60013 4504
" />
<path d="M71410 112930
L71410 112230
" />
<path d="M60013 112282
L60322 112282
L60156 112472
L60227 112472
L60275 112496
L60299 112520
L60322 112568
L60322 112687
L60299 112734
L60275 112758
L60227 112782
L60084 112782
L60037 112758
L60013 112734
" />
<path d="M93880 4000
L93880 4700
" />
<path d="M82745 4219
L82745 4552
" />
<path d="M82626 4028
L82507 4385
L82816 4385
" />
<path d="M93880 112930
L93880 112230
" />
<path d="M82745 112449
L82745 112782
" />
<path d="M82626 112258
L82507 112615
L82816 112615
" />
<path d="M116350 4000
L116350 4700
" />
<path d="M105239 4052
L105000 4052
L104977 4290
L105000 4266
L105048 4242
L105167 4242
L105215 4266
L105239 4290
L105262 4338
L105262 4457
L105239 4504
L105215 4528
L105167 4552
L105048 4552
L105000 4528
L104977 4504
" />
<path d="M116350 112930
L116350 112230
" />
<path d="M105239 112282
L105000 112282
L104977 112520
L105000 112496
L105048 112472
L105167 112472
L105215 112496
L105239 112520
L105262 112568
L105262 112687
L105239 112734
L105215 112758
L105167 112782
L105048 112782
L105000 112758
L104977 112734
" />
<path d="M138820 4000
L138820 4700
" />
<path d="M127685 4052
L127590 4052
L127542 4076
L127518 4100
L127470 4171
L127447 4266
L127447 4457
L127470 4504
L127494 4528
L127542 4552
L127637 4552
L127685 4528
L127709 4504
L127732 4457
L127732 4338
L127709 4290
L127685 4266
L127637 4242
L127542 4242
L127494 4266
L127470 4290
L127447 4338
" />
<path d="M138820 112930
L138820 112230
" />
<path d="M127685 112282
L127590 112282
L127542 112306
L127518 112330
L127470 112401
L127447 112496
L127447 112687
L127470 112734
L127494 112758
L127542 112782
L127637 112782
L127685 112758
L127709 112734
L127732 112687
L127732 112568
L127709 112520
L127685 112496
L127637 112472
L127542 112472
L127494 112496
L127470 112520
L127447 112568
" />
<path d="M149893 4052
L150226 4052
L150012 4552
" />
<path d="M149893 112282
L150226 112282
L150012 112782
" />
<path d="M4000 25780
L4700 25780
" />
<path d="M4230 14949
L4469 14949
" />
<path d="M4183 15092
L4350 14592
L4516 15092
" />
<path d="M161350 25780
L160650 25780
" />
<path d="M160880 14949
L161119 14949
" />
<path d="M160833 15092
L161000 14592
L161166 15092
" />
<path d="M4000 47560
L4700 47560
" />
<path d="M4385 36610
L4457 36634
L4480 36658
L4504 36705
L4504 36777
L4480 36824
L4457 36848
L4409 36872
L4219 36872
L4219 36372
L4385 36372
L4433 36396
L4457 36420
L4480 36467
L4480 36515
L4457 36562
L4433 36586
L4385 36610
L4219 36610
" />
<path d="M161350 47560
L160650 47560
" />
<path d="M161035 36610
L161107 36634
L161130 36658
L161154 36705
L161154 36777
L161130 36824
L161107 36848
L161059 36872
L160869 36872
L160869 36372
L161035 36372
L161083 36396
L161107 36420
L161130 36467
L161130 36515
L161107 36562
L161083 36586
L161035 36610
L160869 36610
" />
<path d="M4000 69340
L4700 69340
" />
<path d="M4504 58604
L4480 58628
L4409 58652
L4361 58652
L4290 58628
L4242 58580
L4219 58533
L4195 58438
L4195 58366
L4219 58271
L4242 58223
L4290 58176
L4361 58152
L4409 58152
L4480 58176
L4504 58200
" />
<path d="M161350 69340
L160650 69340
" />
<path d="M161154 58604
L161130 58628
L161059 58652
L161011 58652
L160940 58628
L160892 58580
L160869 58533
L160845 58438
L160845 58366
L160869 58271
L160892 58223
L160940 58176
L161011 58152
L161059 58152
L161130 58176
L161154 58200
" />
<path d="M4000 91120
L4700 91120
" />
<path d="M4219 80432
L4219 79932
L4338 79932
L4409 79956
L4457 80003
L4480 80051
L4504 80146
L4504 80218
L4480 80313
L4457 80360
L4409 80408
L4338 80432
L4219 80432
" />
<path d="M161350 91120
L160650 91120
" />
<path d="M160869 80432
L160869 79932
L160988 79932
L161059 79956
L161107 80003
L161130 80051
L161154 80146
L161154 80218
L161130 80313
L161107 80360
L161059 80408
L160988 80432
L160869 80432
" />
<path d="M4242 101950
L4409 101950
" />
<path d="M4480 102212
L4242 102212
L4242 101712
L4480 101712
" />
<path d="M160892 101950
L161059 101950
" />
<path d="M161130 102212
L160892 102212
L160892 101712
L161130 101712
" />
<path d="M127800 110672
L127875 110072
L128017 110072
L128100 110101
L128150 110158
L128171 110215
L128185 110330
L128175 110415
L128132 110530
L128096 110587
L128032 110644
L127942 110672
L127800 110672
" />
<path d="M128657 110672
L128696 110358
L128675 110301
L128621 110272
L128507 110272
L128446 110301
" />
<path d="M128660 110644
L128600 110672
L128457 110672
L128403 110644
L128382 110587
L128389 110530
L128425 110472
L128485 110444
L128628 110444
L128689 110415
" />
<path d="M128907 110272
L129135 110272
" />
<path d="M129017 110072
L128953 110587
L128975 110644
L129028 110672
L129085 110672
" />
<path d="M129517 110644
L129457 110672
L129342 110672
L129289 110644
L129267 110587
L129296 110358
L129332 110301
L129392 110272
L129507 110272
L129560 110301
L129582 110358
L129575 110415
L129282 110472
" />
<path d="M129807 110615
L129832 110644
L129800 110672
L129775 110644
L129807 110615
L129800 110672
" />
<path d="M129846 110301
L129871 110330
L129839 110358
L129814 110330
L129846 110301
L129839 110358
" />
<path d="M119392 111872
L119392 111272
" />
<path d="M119735 111872
L119478 111530
" />
<path d="M119735 111272
L119392 111615
" />
<path d="M119992 111872
L119992 111472
" />
<path d="M119992 111272
L119964 111301
L119992 111330
L120021 111301
L119992 111272
L119992 111330
" />
<path d="M120621 111815
L120592 111844
L120507 111872
L120450 111872
L120364 111844
L120307 111787
L120278 111730
L120250 111615
L120250 111530
L120278 111415
L120307 111358
L120364 111301
L120450 111272
L120507 111272
L120592 111301
L120621 111330
" />
<path d="M121135 111872
L121135 111558
L121107 111501
L121050 111472
L120935 111472
L120878 111501
" />
<path d="M121135 111844
L121078 111872
L120935 111872
L120878 111844
L120850 111787
L120850 111730
L120878 111672
L120935 111644
L121078 111644
L121135 111615
" />
<path d="M121678 111872
L121678 111272
" />
<path d="M121678 111844
L121621 111872
L121507 111872
L121450 111844
L121421 111815
L121392 111758
L121392 111587
L121421 111530
L121450 111501
L121507 111472
L121621 111472
L121678 111501
" />
<path d="M122421 111558
L122621 111558
" />
<path d="M122707 111872
L122421 111872
L122421 111272
L122707 111272
" />
<path d="M122964 111815
L122992 111844
L122964 111872
L122935 111844
L122964 111815
L122964 111872
" />
<path d="M123249 111872
L123249 111272
L123392 111272
L123478 111301
L123535 111358
L123564 111415
L123592 111530
L123592 111615
L123564 111730
L123535 111787
L123478 111844
L123392 111872
L123249 111872
" />
<path d="M123849 111815
L123878 111844
L123849 111872
L123821 111844
L123849 111815
L123849 111872
" />
<path d="M124107 111701
L124392 111701
" />
<path d="M124049 111872
L124249 111272
L124449 111872
" />
<path d="M124649 111815
L124678 111844
L124649 111872
L124621 111844
L124649 111815
L124649 111872
" />
<path d="M152942 110672
L152778 110387
" />
<path d="M152600 110672
L152675 110072
L152903 110072
L152957 110101
L152982 110130
L153003 110187
L152992 110272
L152957 110330
L152925 110358
L152864 110387
L152635 110387
" />
<path d="M153432 110644
L153371 110672
L153257 110672
L153203 110644
L153182 110587
L153210 110358
L153246 110301
L153307 110272
L153421 110272
L153475 110301
L153496 110358
L153489 110415
L153196 110472
" />
<path d="M153707 110272
L153800 110672
L153992 110272
" />
<path d="M154178 110615
L154203 110644
L154171 110672
L154146 110644
L154178 110615
L154171 110672
" />
<path d="M154217 110301
L154242 110330
L154210 110358
L154185 110330
L154217 110301
L154210 110358
" />
<path d="M119364 110644
L119450 110672
L119592 110672
L119650 110644
L119678 110615
L119707 110558
L119707 110501
L119678 110444
L119650 110415
L119592 110387
L119478 110358
L119421 110330
L119392 110301
L119364 110244
L119364 110187
L119392 110130
L119421 110101
L119478 110072
L119621 110072
L119707 110101
" />
<path d="M119964 110672
L119964 110272
" />
<path d="M119964 110072
L119935 110101
L119964 110130
L119992 110101
L119964 110072
L119964 110130
" />
<path d="M120192 110272
L120507 110272
L120192 110672
L120507 110672
" />
<path d="M120964 110644
L120907 110672
L120792 110672
L120735 110644
L120707 110587
L120707 110358
L120735 110301
L120792 110272
L120907 110272
L120964 110301
L120992 110358
L120992 110415
L120707 110472
" />
<path d="M121250 110615
L121278 110644
L121250 110672
L121221 110644
L121250 110615
L121250 110672
" />
<path d="M121250 110301
L121278 110330
L121250 110358
L121221 110330
L121250 110301
L121250 110358
" />
<path d="M121964 110501
L122250 110501
" />
<path d="M121907 110672
L122107 110072
L122307 110672
" />
<path d="M122450 110072
L122821 110072
L122621 110301
L122707 110301
L122764 110330
L122792 110358
L122821 110415
L122821 110558
L122792 110615
L122764 110644
L122707 110672
L122535 110672
L122478 110644
L122450 110615
" />
<path d="M152592 111872
L152592 111272
" />
<path d="M153135 111872
L153135 111272
" />
<path d="M153135 111844
L153078 111872
L152964 111872
L152907 111844
L152878 111815
L152850 111758
L152850 111587
L152878 111530
L152907 111501
L152964 111472
L153078 111472
L153135 111501
" />
<path d="M153421 111815
L153450 111844
L153421 111872
L153392 111844
L153421 111815
L153421 111872
" />
<path d="M153421 111501
L153450 111530
L153421 111558
L153392 111530
L153421 111501
L153421 111558
" />
<path d="M154478 111872
L154135 111872
" />
<path d="M154307 111872
L154307 111272
L154249 111358
L154192 111415
L154135 111444
" />
<path d="M155164 111244
L154650 112015
" />
<path d="M155678 111872
L155335 111872
" />
<path d="M155507 111872
L155507 111272
L155449 111358
L155392 111415
L155335 111444
" />
<path d="M119389 108872
L119732 108872
" />
<path d="M119485 109472
L119560 108872
" />
<path d="M119857 109472
L119907 109072
" />
<path d="M119932 108872
L119900 108901
L119925 108930
L119957 108901
L119932 108872
L119925 108930
" />
<path d="M120107 109072
L120335 109072
" />
<path d="M120217 108872
L120153 109387
L120175 109444
L120228 109472
L120285 109472
" />
<path d="M120571 109472
L120517 109444
L120496 109387
L120560 108872
" />
<path d="M121032 109444
L120971 109472
L120857 109472
L120803 109444
L120782 109387
L120810 109158
L120846 109101
L120907 109072
L121021 109072
L121075 109101
L121096 109158
L121089 109215
L120796 109272
" />
<path d="M121321 109415
L121346 109444
L121314 109472
L121289 109444
L121321 109415
L121314 109472
" />
<path d="M121360 109101
L121385 109130
L121353 109158
L121328 109130
L121360 109101
L121353 109158
" />
<path d="M119592 106758
L119392 106758
" />
<path d="M119392 107072
L119392 106472
L119678 106472
" />
<path d="M119907 107072
L119907 106672
" />
<path d="M119907 106472
L119878 106501
L119907 106530
L119935 106501
L119907 106472
L119907 106530
" />
<path d="M120278 107072
L120221 107044
L120192 106987
L120192 106472
" />
<path d="M120735 107044
L120678 107072
L120564 107072
L120507 107044
L120478 106987
L120478 106758
L120507 106701
L120564 106672
L120678 106672
L120735 106701
L120764 106758
L120764 106815
L120478 106872
" />
<path d="M121021 107015
L121050 107044
L121021 107072
L120992 107044
L121021 107015
L121021 107072
" />
<path d="M121021 106701
L121050 106730
L121021 106758
L120992 106730
L121021 106701
L121021 106758
" />
<path d="M121678 106472
L122021 106472
" />
<path d="M121850 107072
L121850 106472
" />
<path d="M122221 107072
L122221 106472
L122450 106472
L122507 106501
L122535 106530
L122564 106587
L122564 106672
L122535 106730
L122507 106758
L122450 106787
L122221 106787
" />
<path d="M122792 107044
L122878 107072
L123021 107072
L123078 107044
L123107 107015
L123135 106958
L123135 106901
L123107 106844
L123078 106815
L123021 106787
L122907 106758
L122850 106730
L122821 106701
L122792 106644
L122792 106587
L122821 106530
L122850 106501
L122907 106472
L123050 106472
L123135 106501
" />
<path d="M123650 106472
L123535 106472
L123478 106501
L123450 106530
L123392 106615
L123364 106730
L123364 106958
L123392 107015
L123421 107044
L123478 107072
L123592 107072
L123650 107044
L123678 107015
L123707 106958
L123707 106815
L123678 106758
L123650 106730
L123592 106701
L123478 106701
L123421 106730
L123392 106758
L123364 106815
" />
<path d="M123935 106530
L123964 106501
L124021 106472
L124164 106472
L124221 106501
L124250 106530
L124278 106587
L124278 106644
L124250 106730
L123907 107072
L124278 107072
" />
<path d="M124650 106472
L124707 106472
L124764 106501
L124792 106530
L124821 106587
L124850 106701
L124850 106844
L124821 106958
L124792 107015
L124764 107044
L124707 107072
L124650 107072
L124592 107044
L124564 107015
L124535 106958
L124507 106844
L124507 106701
L124535 106587
L124564 106530
L124592 106501
L124650 106472
" />
<path d="M125392 106472
L125107 106472
L125078 106758
L125107 106730
L125164 106701
L125307 106701
L125364 106730
L125392 106758
L125421 106815
L125421 106958
L125392 107015
L125364 107044
L125307 107072
L125164 107072
L125107 107044
L125078 107015
" />
<path d="M125935 106472
L125821 106472
L125764 106501
L125735 106530
L125678 106615
L125650 106730
L125650 106958
L125678 107015
L125707 107044
L125764 107072
L125878 107072
L125935 107044
L125964 107015
L125992 106958
L125992 106815
L125964 106758
L125935 106730
L125878 106701
L125764 106701
L125707 106730
L125678 106758
L125650 106815
" />
<path d="M126107 107130
L126564 107130
" />
<path d="M127050 107072
L126850 106787
" />
<path d="M126707 107072
L126707 106472
L126935 106472
L126992 106501
L127021 106530
L127050 106587
L127050 106672
L127021 106730
L126992 106758
L126935 106787
L126707 106787
" />
<path d="M127535 107044
L127478 107072
L127364 107072
L127307 107044
L127278 106987
L127278 106758
L127307 106701
L127364 106672
L127478 106672
L127535 106701
L127564 106758
L127564 106815
L127278 106872
" />
<path d="M127735 106672
L127964 106672
" />
<path d="M127821 107072
L127821 106558
L127850 106501
L127907 106472
L127964 106472
" />
<path d="M128392 107044
L128335 107072
L128221 107072
L128164 107044
L128135 106987
L128135 106758
L128164 106701
L128221 106672
L128335 106672
L128392 106701
L128421 106758
L128421 106815
L128135 106872
" />
<path d="M128678 107072
L128678 106672
" />
<path d="M128678 106787
L128707 106730
L128735 106701
L128792 106672
L128850 106672
" />
<path d="M129278 107044
L129221 107072
L129107 107072
L129050 107044
L129021 106987
L129021 106758
L129050 106701
L129107 106672
L129221 106672
L129278 106701
L129307 106758
L129307 106815
L129021 106872
" />
<path d="M129564 106672
L129564 107072
" />
<path d="M129564 106730
L129592 106701
L129650 106672
L129735 106672
L129792 106701
L129821 106758
L129821 107072
" />
<path d="M130364 107044
L130307 107072
L130192 107072
L130135 107044
L130107 107015
L130078 106958
L130078 106787
L130107 106730
L130135 106701
L130192 106672
L130307 106672
L130364 106701
" />
<path d="M130850 107044
L130792 107072
L130678 107072
L130621 107044
L130592 106987
L130592 106758
L130621 106701
L130678 106672
L130792 106672
L130850 106701
L130878 106758
L130878 106815
L130592 106872
" />
<path d="M131135 107015
L131164 107044
L131135 107072
L131107 107044
L131135 107015
L131135 107072
" />
<path d="M131421 107072
L131421 106472
" />
<path d="M131478 106844
L131650 107072
" />
<path d="M131650 106672
L131421 106901
" />
<path d="M131907 107072
L131907 106672
" />
<path d="M131907 106472
L131878 106501
L131907 106530
L131935 106501
L131907 106472
L131907 106530
" />
<path d="M132450 107044
L132392 107072
L132278 107072
L132221 107044
L132192 107015
L132164 106958
L132164 106787
L132192 106730
L132221 106701
L132278 106672
L132392 106672
L132450 106701
" />
<path d="M132964 107072
L132964 106758
L132935 106701
L132878 106672
L132764 106672
L132707 106701
" />
<path d="M132964 107044
L132907 107072
L132764 107072
L132707 107044
L132678 106987
L132678 106930
L132707 106872
L132764 106844
L132907 106844
L132964 106815
" />
<path d="M133507 107072
L133507 106472
" />
<path d="M133507 107044
L133450 107072
L133335 107072
L133278 107044
L133250 107015
L133221 106958
L133221 106787
L133250 106730
L133278 106701
L133335 106672
L133450 106672
L133507 106701
" />
<path d="M133650 107130
L134107 107130
" />
<path d="M134250 106672
L134250 107272
" />
<path d="M134250 106701
L134307 106672
L134421 106672
L134478 106701
L134507 106730
L134535 106787
L134535 106958
L134507 107015
L134478 107044
L134421 107072
L134307 107072
L134250 107044
" />
<path d="M135050 107044
L134992 107072
L134878 107072
L134821 107044
L134792 107015
L134764 106958
L134764 106787
L134792 106730
L134821 106701
L134878 106672
L134992 106672
L135050 106701
" />
<path d="M135307 107072
L135307 106472
" />
<path d="M135307 106701
L135364 106672
L135478 106672
L135535 106701
L135564 106730
L135592 106787
L135592 106958
L135564 107015
L135535 107044
L135478 107072
L135364 107072
L135307 107044
" />
<path d="M119364 108244
L119450 108272
L119592 108272
L119650 108244
L119678 108215
L119707 108158
L119707 108101
L119678 108044
L119650 108015
L119592 107987
L119478 107958
L119421 107930
L119392 107901
L119364 107844
L119364 107787
L119392 107730
L119421 107701
L119478 107672
L119621 107672
L119707 107701
" />
<path d="M119964 108272
L119964 107672
" />
<path d="M120221 108272
L120221 107958
L120192 107901
L120135 107872
L120050 107872
L119992 107901
L119964 107930
" />
<path d="M120735 108244
L120678 108272
L120564 108272
L120507 108244
L120478 108187
L120478 107958
L120507 107901
L120564 107872
L120678 107872
L120735 107901
L120764 107958
L120764 108015
L120478 108072
" />
<path d="M121250 108244
L121192 108272
L121078 108272
L121021 108244
L120992 108187
L120992 107958
L121021 107901
L121078 107872
L121192 107872
L121250 107901
L121278 107958
L121278 108015
L120992 108072
" />
<path d="M121450 107872
L121678 107872
" />
<path d="M121535 107672
L121535 108187
L121564 108244
L121621 108272
L121678 108272
" />
<path d="M121878 108215
L121907 108244
L121878 108272
L121850 108244
L121878 108215
L121878 108272
" />
<path d="M121878 107901
L121907 107930
L121878 107958
L121850 107930
L121878 107901
L121878 107958
" />
<path d="M118650 106230
L118650 112230
" />
<path d="M118650 106230
L160650 106230
" />
<path d="M118650 106230
L160650 106230
" />
<path d="M118650 108630
L160650 108630
" />
<path d="M151850 109830
L151850 112230
" />
<path d="M118650 111030
L160650 111030
" />
<path d="M118650 109830
L160650 109830
" />
<path d="M125250 109830
L125250 111030
" />
</g>
<g style="fill:#FFFF00; fill-opacity:0.0; 
stroke:#FFFF00; stroke-width:39.3701; stroke-opacity:1; 
stroke-linecap:round; stroke-linejoin:round;">
<path d="M52300 30700
L52300 26100
" />
<path d="M46700 30700
L52300 30700
" />
<path d="M46700 24900
L46700 30700
" />
<path d="M52300 19900
L46700 19900
" />
<path d="M52300 19900
L52300 26100
" />
<path d="M46700 19900
L46700 24900
" />
</g>
<g style="fill:#7F7F00; fill-opacity:0.0; 
stroke:#7F7F00; stroke-width:39.3701; stroke-opacity:1; 
stroke-linecap:round; stroke-linejoin:round;">
</g>
<g style="fill:#7F7F00; fill-opacity:1.0; 
stroke:#7F7F00; stroke-width:39.3701; stroke-opacity:1; 
stroke-linecap:round; stroke-linejoin:round;">
<circle cx="47500" cy="20500" r="350.315" /> 
<circle cx="48500" cy="20500" r="350.315" /> 
<circle cx="49500" cy="20500" r="350.315" /> 
<circle cx="50500" cy="20500" r="350.315" /> 
<circle cx="51500" cy="20500" r="350.315" /> 
</g>
<g style="fill:#BFBFBF; fill-opacity:1.0; 
stroke:#BFBFBF; stroke-width:39.3701; stroke-opacity:1; 
stroke-linecap:round; stroke-linejoin:round;">
<circle cx="47700" cy="27500" r="155.315" /> 
<circle cx="48400" cy="24300" r="155.315" /> 
<circle cx="49500" cy="27500" r="155.315" /> 
<circle cx="49500" cy="28500" r="155.315" /> 
<circle cx="48150" cy="22600" r="155.315" /> 
<circle cx="50900" cy="23900" r="155.315" /> 
<circle cx="48000" cy="24500" r="155.315" /> 
<circle cx="49400" cy="22700" r="155.315" /> 
<circle cx="49400" cy="23100" r="155.315" /> 
<circle cx="48300" cy="24900" r="155.315" /> 
<circle cx="51800" cy="26200" r="155.315" /> 
<circle cx="49800" cy="26100" r="155.315" /> 
</g>
<g style="fill:#0000BF; fill-opacity:1.0; 
stroke:#0000BF; stroke-width:100; stroke-opacity:1; 
stroke-linecap:round; stroke-linejoin:round;">
<path d="M47400 27200
L47200 27000
" />
<path d="M47700 21300
L47800 21200
" />
<path d="M47800 21200
L47800 21200
" />
<path d="M47800 21900
L47800 21899
" />
<path d="M48300 23000
L48500 22800
" />
<path d="M48500 22800
L48500 22400
" />
<path d="M48500 22400
L48300 22200
" />
<path d="M48300 22200
L48100 22200
" />
<path d="M48100 22200
L47800 21900
" />
<path d="M47800 21899
L47700 21800
" />
<path d="M48500 20500
L47800 21200
" />
<path d="M47700 21800
L47700 21300
" />
<path d="M47400 23900
L48300 23000
" />
<path d="M47400 27200
L47700 27500
" />
<path d="M47200 24100
L47400 23900
" />
<path d="M47200 27000
L47200 24100
" />
<path d="M48400 24300
L48800 24700
" />
<path d="M48800 26800
L49500 27500
" />
<path d="M48800 24700
L48800 26800
" />
<path d="M49500 28500
L49500 27500
" />
<path d="M47500 21950
L48150 22600
" />
<path d="M47500 21950
L47500 20500
" />
<path d="M48300 23900
L48000 24200
" />
<path d="M48400 23900
L48300 23900
" />
<path d="M50900 23900
L48400 23900
" />
<path d="M48000 24200
L48000 24500
" />
<path d="M48300 28400
L49000 29100
" />
<path d="M48300 24900
L48300 28400
" />
<path d="M50500 28500
L49900 29100
" />
<path d="M49000 29100
L49900 29100
" />
<path d="M51800 26200
L51800 22800
" />
<path d="M51800 22800
L49500 20500
" />
<path d="M50500 28500
L51400 27600
" />
<path d="M51800 27200
L51800 26200
" />
<path d="M51400 27600
L51800 27200
" />
<path d="M50500 26800
L49800 26100
" />
<path d="M50500 28500
L50500 26800
" />
</g>
<g style="fill:#0000BF; fill-opacity:1.0; 
stroke:#0000BF; stroke-width:39.3701; stroke-opacity:1; 
stroke-linecap:round; stroke-linejoin:round;">
<polyline style="fill-rule:evenodd;"
points="52060,30460
51195,30460
51195,23841
51150,23733
51067,23650
50958,23605
50841,23604
50733,23649
50652,23730
48400,23730
48300,23730
48299,23730
48234,23742
48179,23779
48179,23779
47879,24079
47842,24134
47830,24200
47830,24252
47750,24332
47705,24441
47704,24558
47749,24666
47832,24749
47941,24794
48058,24795
48166,24750
48249,24667
48288,24573
48341,24594
48454,24595
48630,24770
48630,26800
48642,26865
48679,26920
49205,27445
49204,27558
49249,27666
49330,27747
49330,28252
49250,28332
49205,28441
49204,28558
49249,28666
49332,28749
49441,28794
49558,28795
49666,28750
49749,28667
49794,28558
49795,28441
49750,28333
49670,28252
49670,27747
49749,27667
49794,27558
49795,27441
49750,27333
49667,27250
49558,27205
49445,27204
48970,26729
48970,24700
48969,24699
48970,24699
48957,24634
48920,24579
48920,24579
48694,24354
48695,24241
48650,24133
48587,24070
50652,24070
50732,24149
50841,24194
50958,24195
51066,24150
51149,24067
51194,23958
51195,23841
51195,30460
46940,30460
46940,20140
47167,20140
47084,20222
47010,20402
47009,20597
47084,20777
47222,20915
47330,20959
47330,21950
47342,22015
47379,22070
47855,22545
47854,22658
47899,22766
47982,22849
48091,22894
48164,22895
47279,23779
47279,23779
47079,23979
47042,24034
47030,24100
47030,27000
47042,27065
47079,27120
47279,27320
47279,27320
47405,27445
47404,27558
47449,27666
47532,27749
47641,27794
47758,27795
47866,27750
47949,27667
47994,27558
47995,27441
47950,27333
47867,27250
47758,27205
47645,27204
47520,27079
47520,27079
47370,26929
47370,24170
47520,24020
47520,24020
47520,24020
48420,23120
48620,22920
48620,22920
48620,22920
48657,22865
48670,22800
48670,22400
48657,22334
48620,22279
48620,22279
48420,22079
48365,22042
48300,22030
48170,22030
47920,21779
47920,21779
47920,21779
47870,21729
47870,21370
47920,21320
47920,21320
47920,21320
47920,21320
47920,21320
48294,20945
48402,20989
48597,20990
48777,20915
48915,20777
48989,20597
48990,20402
48915,20222
48832,20140
50167,20140
50084,20222
50010,20402
50009,20597
50084,20777
50222,20915
50402,20989
50597,20990
50777,20915
50915,20777
50989,20597
50990,20402
50915,20222
50832,20140
51167,20140
51084,20222
51010,20402
51009,20597
51084,20777
51222,20915
51402,20989
51597,20990
51777,20915
51915,20777
51989,20597
51990,20402
51915,20222
51832,20140
52060,20140
52060,30460
" /> 
</g>
<g style="fill:#0000BF; fill-opacity:0.0; 
stroke:#0000BF; stroke-width:80; stroke-opacity:1; 
stroke-linecap:round; stroke-linejoin:round;">
<polyline fill="none;"
points="52060,30460
51195,30460
51195,23841
51150,23733
51067,23650
50958,23605
50841,23604
50733,23649
50652,23730
48400,23730
48300,23730
48299,23730
48234,23742
48179,23779
48179,23779
47879,24079
47842,24134
47830,24200
47830,24252
47750,24332
47705,24441
47704,24558
47749,24666
47832,24749
47941,24794
48058,24795
48166,24750
48249,24667
48288,24573
48341,24594
48454,24595
48630,24770
48630,26800
48642,26865
48679,26920
49205,27445
49204,27558
49249,27666
49330,27747
49330,28252
49250,28332
49205,28441
49204,28558
49249,28666
49332,28749
49441,28794
49558,28795
49666,28750
49749,28667
49794,28558
49795,28441
49750,28333
49670,28252
49670,27747
49749,27667
49794,27558
49795,27441
49750,27333
49667,27250
49558,27205
49445,27204
48970,26729
48970,24700
48969,24699
48970,24699
48957,24634
48920,24579
48920,24579
48694,24354
48695,24241
48650,24133
48587,24070
50652,24070
50732,24149
50841,24194
50958,24195
51066,24150
51149,24067
51194,23958
51195,23841
51195,30460
46940,30460
46940,20140
47167,20140
47084,20222
47010,20402
47009,20597
47084,20777
47222,20915
47330,20959
47330,21950
47342,22015
47379,22070
47855,22545
47854,22658
47899,22766
47982,22849
48091,22894
48164,22895
47279,23779
47279,23779
47079,23979
47042,24034
47030,24100
47030,27000
47042,27065
47079,27120
47279,27320
47279,27320
47405,27445
47404,27558
47449,27666
47532,27749
47641,27794
47758,27795
47866,27750
47949,27667
47994,27558
47995,27441
47950,27333
47867,27250
47758,27205
47645,27204
47520,27079
47520,27079
47370,26929
47370,24170
47520,24020
47520,24020
47520,24020
48420,23120
48620,22920
48620,22920
48620,22920
48657,22865
48670,22800
48670,22400
48657,22334
48620,22279
48620,22279
48420,22079
48365,22042
48300,22030
48170,22030
47920,21779
47920,21779
47920,21779
47870,21729
47870,21370
47920,21320
47920,21320
47920,21320
47920,21320
47920,21320
48294,20945
48402,20989
48597,20990
48777,20915
48915,20777
48989,20597
48990,20402
48915,20222
48832,20140
50167,20140
50084,20222
50010,20402
50009,20597
50084,20777
50222,20915
50402,20989
50597,20990
50777,20915
50915,20777
50989,20597
50990,20402
50915,20222
50832,20140
51167,20140
51084,20222
51010,20402
51009,20597
51084,20777
51222,20915
51402,20989
51597,20990
51777,20915
51915,20777
51989,20597
51990,20402
51915,20222
51832,20140
52060,20140
52060,30460
" /> 
</g>
<g style="fill:#FFFFFF; fill-opacity:0.0; 
stroke:#FFFFFF; stroke-width:39.3701; stroke-opacity:1; 
stroke-linecap:round; stroke-linejoin:round;">
</g>
<g style="fill:#FFFFFF; fill-opacity:1.0; 
stroke:#FFFFFF; stroke-width:39.3701; stroke-opacity:1; 
stroke-linecap:round; stroke-linejoin:round;">
<circle cx="47700" cy="27500" r="105.315" /> 
<circle cx="48400" cy="24300" r="105.315" /> 
<circle cx="49500" cy="27500" r="105.315" /> 
<circle cx="49500" cy="28500" r="105.315" /> 
<circle cx="48150" cy="22600" r="105.315" /> 
<circle cx="50900" cy="23900" r="105.315" /> 
<circle cx="48000" cy="24500" r="105.315" /> 
<circle cx="49400" cy="22700" r="105.315" /> 
<circle cx="49400" cy="23100" r="105.315" /> 
<circle cx="48300" cy="24900" r="105.315" /> 
<circle cx="51800" cy="26200" r="105.315" /> 
<circle cx="49800" cy="26100" r="105.315" /> 
<circle cx="47500" cy="20500" r="180.315" /> 
<circle cx="48500" cy="20500" r="180.315" /> 
<circle cx="49500" cy="20500" r="180.315" /> 
<circle cx="50500" cy="20500" r="180.315" /> 
<circle cx="51500" cy="20500" r="180.315" /> 
</g> 
</svg>
